<svg id="Layer_1" data-name="Layer 1" xmlns="http://www.w3.org/2000/svg" viewBox="0 0 971.25 192.76"><defs><style>.cls-1,.cls-3{fill:#162428;}.cls-2{fill:#14c3a2;}.cls-3{fill-rule:evenodd;}</style></defs><title>ClearVoice-Logo--RGB</title><path class="cls-1" d="M184,92.55C184,58.8,209,32.91,243.61,32.91c26.22,0,48.5,16.38,55.22,40.31,0.66,2.79-.82,4.59-3.6,4.59H275.89c-2.29,0-3.6-1.15-4.59-3.28-4.59-10-15.24-16.06-27.69-16.06-20.32,0-33.43,13.6-33.43,34.08s13.11,34.08,33.43,34.08c12.45,0,23.1-6.06,27.69-16.06,1-2.13,2.29-3.28,4.59-3.28h19.33c2.79,0,4.26,1.64,3.6,4.26-6.39,23.92-28.84,40.63-55.22,40.63C209,152.19,184,126.31,184,92.55Z" transform="translate(0 0)"/><path class="cls-1" d="M306.36,148.12V37a3.71,3.71,0,0,1,4.1-4.1h16.38c2.62,0,4.1,1.47,4.1,4.1V148.12c0,2.62-1.47,4.1-4.1,4.1H310.46A3.71,3.71,0,0,1,306.36,148.12Z" transform="translate(0 0)"/><path class="cls-1" d="M426,108.94c0,2.13-.16,4.1-0.33,6.06-0.33,2.62-2,3.77-4.42,3.77H366.5c3,9.73,10.62,13.6,19.16,13.6a19.63,19.63,0,0,0,12.12-4.1c1.64-1.31,2.95-2.13,5.08-2.13L418.6,126c2.95,0,4.59,2,3.28,4.59-6.39,14.25-19.83,21.63-36.54,21.63-27.2,0-44.57-18.84-44.57-43.26s18-43.26,43.91-43.26C408.6,65.68,426,84.2,426,108.94Zm-24.47-8.85c-2.53-9.32-9.76-12.62-17-12.62-9.21,0-15.58,4.44-18.12,12.62H401.5Z" transform="translate(0 0)"/><path class="cls-1" d="M515.19,68H498.81c-2,0-3.35.89-3.86,2.49a44,44,0,0,0-20.15-4.82,43.26,43.26,0,1,0,0,86.51,44,44,0,0,0,19.92-4.7v0.6a3.71,3.71,0,0,0,4.1,4.1h16.38a3.71,3.71,0,0,0,4.1-4.1v-76A3.71,3.71,0,0,0,515.19,68Zm-40.4,60.26c-10.65,0-18.84-7.7-18.84-19.33S464.15,89.6,474.8,89.6s18.84,7.7,18.84,19.33S485.45,128.27,474.8,128.27Z" transform="translate(0 0)"/><path class="cls-1" d="M571.63,66.66c2.79-.49,4.26,1.31,4.26,3.93V89.93c0,2.62-1.15,3.93-3.28,3.93-9.18-.33-18,4.26-18,17.37v36.93a3.71,3.71,0,0,1-4.1,4.1H534.11a3.71,3.71,0,0,1-4.1-4.1V72.07a3.71,3.71,0,0,1,4.1-4.1h16.38a3.71,3.71,0,0,1,4.1,4.1v8.86c2.44-8.22,8.9-13,17-14.26h0Z" transform="translate(0 0)"/><path class="cls-1" d="M608.17,148.82L574.9,37.57c-0.82-2.79.49-4.59,3.44-4.59H598.5a4.27,4.27,0,0,1,4.59,3.44l22.78,83.15,22.78-83.15A4.27,4.27,0,0,1,653.22,33h20.15c2.95,0,4.26,1.8,3.44,4.59L643.56,148.82a4.42,4.42,0,0,1-4.59,3.44H612.75A4.42,4.42,0,0,1,608.17,148.82Z" transform="translate(0 0)"/><path class="cls-1" d="M666.82,108.94a43.42,43.42,0,1,1,43.42,43.26A42.94,42.94,0,0,1,666.82,108.94Zm62.26,0c0-11.63-8.19-19.33-18.84-19.33s-18.84,7.7-18.84,19.33,8.19,19.33,18.84,19.33S729.09,120.57,729.09,108.94Z" transform="translate(0 0)"/><path class="cls-1" d="M763.49,52V37.12c0-2.65,1.47-4.15,4.1-4.15H784c2.62,0,4.1,1.49,4.1,4.15V52c0,2.65-1.47,4.15-4.1,4.15H767.59C765,56.19,763.49,54.7,763.49,52Z" transform="translate(0 0)"/><rect class="cls-1" x="763.49" y="68" width="24.58" height="84.28" rx="4.1" ry="4.1"/><path class="cls-1" d="M881.63,123.36c-5.08,17-21.14,28.84-40.31,28.84-24.9,0-43.42-18.84-43.42-43.26s18.52-43.26,43.42-43.26c19.17,0,35.23,11.8,40.31,28.84,1,2.79-.66,4.59-3.44,4.59h-18a5.76,5.76,0,0,1-4.92-2.79c-2.95-4.1-8-6.39-13.93-6.39-10.65,0-18.84,7.7-18.84,19s8.19,19,18.84,19c5.9,0,11-2.29,13.93-6.23,1.31-2,2.62-2.95,4.92-2.95h18C881,118.77,882.61,120.57,881.63,123.36Z" transform="translate(0 0)"/><path class="cls-1" d="M971.25,108.94c0,2.13-.16,4.1-0.33,6.06-0.33,2.62-2,3.77-4.42,3.77H911.78c3,9.73,10.62,13.6,19.16,13.6a19.63,19.63,0,0,0,12.12-4.1c1.64-1.31,2.95-2.13,5.08-2.13l15.73-.16c2.95,0,4.59,2,3.28,4.59-6.39,14.25-19.83,21.63-36.54,21.63-27.2,0-44.57-18.84-44.57-43.26s18-43.26,43.91-43.26C953.88,65.68,971.25,84.2,971.25,108.94Zm-24.47-8.85c-2.53-9.32-9.76-12.62-17-12.62-9.21,0-15.58,4.44-18.12,12.62h35.11Z" transform="translate(0 0)"/><path class="cls-2" d="M135.11,129.41a4.48,4.48,0,0,0-4.48,0l-3.55,2a0.89,0.89,0,0,0-.44.76v16.85a1.39,1.39,0,0,1-2.12,1.19l-14.11-8.64a0.89,0.89,0,0,0-.89,0L86.64,154.81a4.48,4.48,0,0,1-4.48,0l-47.5-27.42a4,4,0,0,1-2-3.44V69.1a4.48,4.48,0,0,1,2.24-3.88L82.17,37.95a4.48,4.48,0,0,1,4.48,0l44,25.4a4.48,4.48,0,0,0,4.48,0l22.72-13.12a5.15,5.15,0,0,0,0-8.92L87.9,0.94a7,7,0,0,0-7,0L3.49,45.63A7,7,0,0,0,0,51.69v89.68A6.49,6.49,0,0,0,3.21,147l11.55,6.67a1.44,1.44,0,0,1,.71,1.24v28.07a2,2,0,0,0,3,1.66L41.94,170.2a1.45,1.45,0,0,1,1.46,0l37.51,21.65a7,7,0,0,0,7,0l69.93-40.37a5.15,5.15,0,0,0,0-8.92Z" transform="translate(0 0)"/><path class="cls-3" d="M60.29,113.44h0a5.85,5.85,0,0,1,6-5.69h36a5.85,5.85,0,0,1,6,5.69h0a5.85,5.85,0,0,1-6,5.69h-36A5.85,5.85,0,0,1,60.29,113.44Zm6.07-22.75H84.57a5.89,5.89,0,0,1,6.07,5.69h0a5.89,5.89,0,0,1-6.07,5.69H66.36a5.89,5.89,0,0,1-6.07-5.69h0A5.89,5.89,0,0,1,66.36,90.69ZM66.29,73.63h36a5.85,5.85,0,0,1,6,5.69h0a5.85,5.85,0,0,1-6,5.69h-36a5.85,5.85,0,0,1-6-5.69h0A5.85,5.85,0,0,1,66.29,73.63Z" transform="translate(0 0)"/></svg>