<?xml version="1.0" encoding="UTF-8"?>
<!DOCTYPE svg PUBLIC "-//W3C//DTD SVG 1.1//EN" "http://www.w3.org/Graphics/SVG/1.1/DTD/svg11.dtd">
<svg version="1.1" xmlns="http://www.w3.org/2000/svg" xmlns:xlink="http://www.w3.org/1999/xlink" x="0" y="0" width="874" height="272" viewBox="0, 0, 874, 272">
  <g id="Background">
    <rect x="0" y="0" width="874" height="272" fill="#FFFFFF"/>
  </g>
  <defs>
    <clipPath id="Clip_1">
      <path d="M0.06,0.836 L873.377,0.836 L873.377,272 L0.06,272 z"/>
    </clipPath>
    <clipPath id="Clip_2">
      <path d="M0.06,0.836 L873.377,0.836 L873.377,272 L0.06,272 z"/>
    </clipPath>
  </defs>
  <g id="Layer_1">
    <g clip-path="url(#Clip_1)">
      <path d="M10.397,272 C7.509,272 5.054,270.99 3.033,268.968 C1.011,266.946 0,264.503 0,261.637 L0,237.931 C0,235.042 1.017,232.587 3.05,230.566 C5.083,228.544 7.532,227.533 10.397,227.533 C13.286,227.533 15.735,228.55 17.745,230.583 C19.756,232.616 20.761,235.066 20.761,237.931 L20.761,242.887 L13.968,242.887 L13.968,237.792 C13.968,236.752 13.598,235.862 12.858,235.123 C12.119,234.384 11.229,234.014 10.19,234.014 C9.149,234.014 8.266,234.384 7.538,235.123 C6.811,235.862 6.446,236.752 6.446,237.792 L6.446,261.568 C6.446,262.608 6.811,263.491 7.538,264.219 C8.266,264.947 9.149,265.311 10.19,265.311 C11.229,265.311 12.119,264.947 12.858,264.219 C13.598,263.491 13.968,262.608 13.968,261.568 L13.968,255.572 L20.761,255.572 L20.761,261.637 C20.761,264.525 19.744,266.975 17.711,268.985 C15.677,270.995 13.24,272 10.397,272" fill="#6F6652"/>
    </g>
    <path d="M39.961,237.723 C39.961,236.683 39.598,235.799 38.869,235.071 C38.141,234.344 37.257,233.979 36.218,233.979 C35.178,233.979 34.288,234.344 33.549,235.071 C32.81,235.799 32.439,236.683 32.439,237.723 L32.439,261.498 C32.439,262.539 32.81,263.422 33.549,264.15 C34.288,264.878 35.178,265.242 36.218,265.242 C37.257,265.242 38.141,264.878 38.869,264.15 C39.598,263.422 39.961,262.539 39.961,261.498 L39.961,237.723 z M36.391,227.464 C39.279,227.464 41.733,228.481 43.756,230.514 C45.778,232.547 46.789,234.996 46.789,237.861 L46.789,261.568 C46.789,264.456 45.771,266.911 43.738,268.933 C41.705,270.955 39.256,271.965 36.391,271.965 C33.502,271.965 31.054,270.949 29.044,268.916 C27.033,266.883 26.028,264.433 26.028,261.568 L26.028,237.861 C26.028,234.973 27.044,232.519 29.078,230.496 C31.111,228.475 33.549,227.464 36.391,227.464" fill="#6F6652"/>
    <path d="M70.425,271.445 L52.576,271.445 L52.576,228.019 L59.126,228.019 L59.126,264.93 L70.425,264.93 L70.425,271.445" fill="#6F6652"/>
    <path d="M92.779,271.445 L74.931,271.445 L74.931,228.019 L81.48,228.019 L81.48,264.93 L92.779,264.93 L92.779,271.445" fill="#6F6652"/>
    <path d="M109.139,237.965 L106.712,255.087 L111.563,255.087 L109.139,237.965 z M105.697,261.464 L104.105,271.445 L97.284,271.445 L104.668,228.019 L113.678,228.019 L120.956,271.445 L114.068,271.445 L112.536,261.464 L105.697,261.464" fill="#6F6652"/>
    <path d="M133.537,264.964 L136.275,264.964 C138.493,264.964 140.029,263.821 140.885,261.533 C141.185,260.748 141.335,259.847 141.335,258.83 C141.335,256.404 140.873,254.636 139.948,253.527 C139.117,252.51 137.892,252.002 136.275,252.002 L133.537,252.002 L133.537,264.964 z M133.537,245.729 L136.275,245.729 C138.308,245.729 139.672,244.735 140.364,242.748 C140.619,242.009 140.745,241.097 140.745,240.01 C140.745,238.208 140.307,236.845 139.429,235.921 C138.619,235.066 137.568,234.639 136.275,234.639 L133.537,234.639 L133.537,245.729 z M126.467,271.445 L126.467,227.984 L136.275,227.984 C138.862,227.984 141.196,228.665 143.275,230.028 C145.055,231.184 146.326,232.975 147.088,235.4 C147.504,236.694 147.712,238.231 147.712,240.01 C147.712,242.921 146.938,245.255 145.391,247.012 C144.743,247.751 143.98,248.317 143.103,248.71 C144.558,249.264 145.794,250.361 146.811,252.002 C147.482,253.111 147.979,254.544 148.301,256.3 C148.463,257.201 148.545,258.206 148.545,259.315 C148.545,262.065 148.023,264.399 146.985,266.316 C146.175,267.818 145.032,269.02 143.554,269.921 C141.891,270.938 140.237,271.445 138.597,271.445 L126.467,271.445" fill="#6F6652"/>
    <path d="M168.057,237.723 C168.057,236.683 167.692,235.799 166.964,235.071 C166.237,234.344 165.354,233.979 164.313,233.979 C163.274,233.979 162.384,234.344 161.644,235.071 C160.904,235.799 160.535,236.683 160.535,237.723 L160.535,261.498 C160.535,262.539 160.904,263.422 161.644,264.15 C162.384,264.878 163.274,265.242 164.313,265.242 C165.354,265.242 166.237,264.878 166.964,264.15 C167.692,263.422 168.057,262.539 168.057,261.498 L168.057,237.723 z M164.485,227.464 C167.375,227.464 169.829,228.481 171.851,230.514 C173.873,232.547 174.884,234.996 174.884,237.861 L174.884,261.568 C174.884,264.456 173.867,266.911 171.834,268.933 C169.8,270.955 167.351,271.965 164.485,271.965 C161.599,271.965 159.149,270.949 157.139,268.916 C155.129,266.883 154.124,264.433 154.124,261.568 L154.124,237.861 C154.124,234.973 155.141,232.519 157.174,230.496 C159.207,228.475 161.644,227.464 164.485,227.464" fill="#6F6652"/>
    <path d="M194.915,238.485 C194.915,235.967 193.668,234.707 191.173,234.707 L187.223,234.707 L187.223,248.606 L191.173,248.606 C192.213,248.606 193.097,248.236 193.824,247.496 C194.553,246.757 194.915,245.868 194.915,244.828 L194.915,238.485 z M191,228.019 C194.65,228.019 197.33,229.024 199.04,231.034 C200.542,232.79 201.293,235.239 201.293,238.381 L201.293,244.689 C201.293,247.762 200.127,250.361 197.793,252.487 L202.645,271.445 L195.561,271.445 L191.588,255.087 C191.403,255.087 191.208,255.087 191,255.087 L187.223,255.087 L187.223,271.445 L180.671,271.445 L180.671,228.019 L191,228.019" fill="#6F6652"/>
    <path d="M219.765,237.965 L217.34,255.087 L222.191,255.087 L219.765,237.965 z M216.324,261.464 L214.732,271.445 L207.912,271.445 L215.295,228.019 L224.306,228.019 L231.584,271.445 L224.696,271.445 L223.164,261.464 L216.324,261.464" fill="#6F6652"/>
    <path d="M237.928,234.603 L230.962,234.603 L230.962,228.019 L251.41,228.019 L251.41,234.603 L244.478,234.603 L244.478,271.445 L237.928,271.445 L237.928,234.603" fill="#6F6652"/>
    <path d="M256.677,228.019 L263.228,228.019 L263.228,271.445 L256.677,271.445 z" fill="#6F6652"/>
    <path d="M282.947,237.723 C282.947,236.683 282.583,235.799 281.857,235.071 C281.128,234.344 280.244,233.979 279.204,233.979 C278.165,233.979 277.275,234.344 276.536,235.071 C275.796,235.799 275.427,236.683 275.427,237.723 L275.427,261.498 C275.427,262.539 275.796,263.422 276.536,264.15 C277.275,264.878 278.165,265.242 279.204,265.242 C280.244,265.242 281.128,264.878 281.857,264.15 C282.583,263.422 282.947,262.539 282.947,261.498 L282.947,237.723 z M279.378,227.464 C282.266,227.464 284.72,228.481 286.743,230.514 C288.765,232.547 289.775,234.996 289.775,237.861 L289.775,261.568 C289.775,264.456 288.758,266.911 286.726,268.933 C284.691,270.955 282.242,271.965 279.378,271.965 C276.489,271.965 274.04,270.949 272.03,268.916 C270.02,266.883 269.015,264.433 269.015,261.568 L269.015,237.861 C269.015,234.973 270.031,232.519 272.065,230.496 C274.099,228.475 276.536,227.464 279.378,227.464" fill="#6F6652"/>
    <path d="M302.882,227.984 L311.575,257.192 L311.575,227.984 L318.125,227.984 L318.125,271.445 L311.09,271.445 L302.078,243.614 L302.078,271.445 L295.527,271.445 L295.527,227.984 L302.882,227.984" fill="#6F6652"/>
    <path d="M340.722,247.774 L349.455,247.774 L349.455,252.626 L340.722,252.626 L340.722,261.36 L335.868,261.36 L335.868,252.626 L327.135,252.626 L327.135,247.774 L335.868,247.774 L335.868,239.04 L340.722,239.04 L340.722,247.774" fill="#CA712E"/>
    <path d="M368.863,272 C365.975,272 363.52,270.99 361.498,268.968 C359.477,266.946 358.466,264.503 358.466,261.637 L358.466,237.931 C358.466,235.042 359.482,232.587 361.516,230.566 C363.549,228.544 365.998,227.533 368.863,227.533 C371.751,227.533 374.2,228.55 376.211,230.583 C378.222,232.616 379.226,235.066 379.226,237.931 L379.226,242.887 L372.433,242.887 L372.433,237.792 C372.433,236.752 372.063,235.862 371.323,235.123 C370.584,234.384 369.695,234.014 368.654,234.014 C367.616,234.014 366.732,234.384 366.004,235.123 C365.275,235.862 364.912,236.752 364.912,237.792 L364.912,261.568 C364.912,262.608 365.275,263.491 366.004,264.219 C366.732,264.947 367.616,265.311 368.654,265.311 C369.695,265.311 370.584,264.947 371.323,264.219 C372.063,263.491 372.433,262.608 372.433,261.568 L372.433,255.572 L379.226,255.572 L379.226,261.637 C379.226,264.525 378.209,266.975 376.177,268.985 C374.142,270.995 371.705,272 368.863,272" fill="#6F6652"/>
    <path d="M398.427,237.723 C398.427,236.683 398.063,235.799 397.335,235.071 C396.607,234.344 395.723,233.979 394.684,233.979 C393.645,233.979 392.755,234.344 392.015,235.071 C391.275,235.799 390.905,236.683 390.905,237.723 L390.905,261.498 C390.905,262.539 391.275,263.422 392.015,264.15 C392.755,264.878 393.645,265.242 394.684,265.242 C395.723,265.242 396.607,264.878 397.335,264.15 C398.063,263.422 398.427,262.539 398.427,261.498 L398.427,237.723 z M394.857,227.464 C397.745,227.464 400.2,228.481 402.222,230.514 C404.244,232.547 405.254,234.996 405.254,237.861 L405.254,261.568 C405.254,264.456 404.238,266.911 402.204,268.933 C400.171,270.955 397.721,271.965 394.857,271.965 C391.969,271.965 389.52,270.949 387.509,268.916 C385.5,266.883 384.494,264.433 384.494,261.568 L384.494,237.861 C384.494,234.973 385.51,232.519 387.544,230.496 C389.577,228.475 392.015,227.464 394.857,227.464" fill="#6F6652"/>
    <path d="M436.676,228.019 L443.552,228.019 L436.758,271.445 L430.521,271.445 L426.784,247.552 L423.298,271.445 L417.031,271.445 L409.76,228.019 L416.621,228.019 L420.053,251.275 L423.207,228.019 L430.069,228.019 L433.498,251.255 L436.676,228.019" fill="#6F6652"/>
    <path d="M461.989,237.723 C461.989,236.683 461.626,235.799 460.897,235.071 C460.17,234.344 459.286,233.979 458.246,233.979 C457.207,233.979 456.317,234.344 455.578,235.071 C454.838,235.799 454.469,236.683 454.469,237.723 L454.469,261.498 C454.469,262.539 454.838,263.422 455.578,264.15 C456.317,264.878 457.207,265.242 458.246,265.242 C459.286,265.242 460.17,264.878 460.897,264.15 C461.626,263.422 461.989,262.539 461.989,261.498 L461.989,237.723 z M458.42,227.464 C461.308,227.464 463.763,228.481 465.785,230.514 C467.807,232.547 468.817,234.996 468.817,237.861 L468.817,261.568 C468.817,264.456 467.801,266.911 465.768,268.933 C463.733,270.955 461.284,271.965 458.42,271.965 C455.531,271.965 453.082,270.949 451.071,268.916 C449.063,266.883 448.057,264.433 448.057,261.568 L448.057,237.861 C448.057,234.973 449.073,232.519 451.107,230.496 C453.14,228.475 455.578,227.464 458.42,227.464" fill="#6F6652"/>
    <path d="M488.85,238.485 C488.85,235.967 487.602,234.707 485.107,234.707 L481.155,234.707 L481.155,248.606 L485.107,248.606 C486.147,248.606 487.03,248.236 487.758,247.496 C488.485,246.757 488.85,245.868 488.85,244.828 L488.85,238.485 z M484.933,228.019 C488.584,228.019 491.264,229.024 492.975,231.034 C494.476,232.79 495.227,235.239 495.227,238.381 L495.227,244.689 C495.227,247.762 494.06,250.361 491.726,252.487 L496.578,271.445 L489.494,271.445 L485.522,255.087 C485.336,255.087 485.141,255.087 484.933,255.087 L481.155,255.087 L481.155,271.445 L474.605,271.445 L474.605,228.019 L484.933,228.019" fill="#6F6652"/>
    <path d="M508.743,257.668 L508.743,271.445 L502.192,271.445 L502.192,227.984 L508.743,227.984 L508.743,243.476 L516.748,227.984 L523.732,227.984 L514.766,245.711 L525.28,271.445 L517.58,271.445 L510.703,253.8 L508.743,257.668" fill="#6F6652"/>
    <path d="M530.576,228.019 L537.128,228.019 L537.128,271.445 L530.576,271.445 z" fill="#6F6652"/>
    <path d="M550.338,227.984 L559.031,257.192 L559.031,227.984 L565.581,227.984 L565.581,271.445 L558.545,271.445 L549.534,243.614 L549.534,271.445 L542.984,271.445 L542.984,227.984 L550.338,227.984" fill="#6F6652"/>
    <path d="M581.731,272 C578.843,272 576.389,270.983 574.366,268.95 C572.344,266.917 571.334,264.479 571.334,261.637 L571.334,237.931 C571.334,235.042 572.351,232.587 574.384,230.566 C576.417,228.544 578.866,227.533 581.731,227.533 C584.619,227.533 587.068,228.55 589.079,230.583 C591.089,232.616 592.095,235.066 592.095,237.931 L592.095,242.887 L585.301,242.887 L585.301,237.792 C585.301,236.752 584.932,235.862 584.191,235.123 C583.452,234.384 582.563,234.014 581.523,234.014 C580.483,234.014 579.6,234.384 578.872,235.123 C578.144,235.862 577.779,236.752 577.779,237.792 L577.779,261.568 C577.779,262.608 578.144,263.491 578.872,264.219 C579.6,264.947 580.483,265.311 581.523,265.311 C582.563,265.311 583.452,264.948 584.191,264.223 C584.932,263.497 585.301,262.615 585.301,261.578 L585.301,253.042 L581.662,253.042 L581.662,246.457 L592.095,246.457 L592.095,261.637 C592.095,264.525 591.077,266.975 589.045,268.985 C587.01,270.995 584.572,272 581.731,272" fill="#6F6652"/>
    <path d="M614.69,247.774 L623.424,247.774 L623.424,252.626 L614.69,252.626 L614.69,261.36 L609.838,261.36 L609.838,252.626 L601.104,252.626 L601.104,247.774 L609.838,247.774 L609.838,239.04 L614.69,239.04 L614.69,247.774" fill="#CA712E"/>
    <path d="M642.832,272 C639.943,272 637.488,270.99 635.467,268.968 C633.444,266.946 632.436,264.503 632.436,261.637 L632.436,237.931 C632.436,235.042 633.45,232.587 635.485,230.566 C637.518,228.544 639.968,227.533 642.832,227.533 C645.72,227.533 648.169,228.55 650.181,230.583 C652.19,232.616 653.195,235.066 653.195,237.931 L653.195,242.887 L646.401,242.887 L646.401,237.792 C646.401,236.752 646.032,235.862 645.293,235.123 C644.553,234.384 643.663,234.014 642.624,234.014 C641.584,234.014 640.7,234.384 639.974,235.123 C639.244,235.862 638.881,236.752 638.881,237.792 L638.881,261.568 C638.881,262.608 639.244,263.491 639.974,264.219 C640.7,264.947 641.584,265.311 642.624,265.311 C643.663,265.311 644.553,264.947 645.293,264.219 C646.032,263.491 646.401,262.608 646.401,261.568 L646.401,255.572 L653.195,255.572 L653.195,261.637 C653.195,264.525 652.178,266.975 650.145,268.985 C648.111,270.995 645.674,272 642.832,272" fill="#6F6652"/>
    <path d="M672.396,237.723 C672.396,236.683 672.031,235.799 671.304,235.071 C670.576,234.344 669.692,233.979 668.652,233.979 C667.613,233.979 666.723,234.344 665.983,235.071 C665.243,235.799 664.874,236.683 664.874,237.723 L664.874,261.498 C664.874,262.539 665.243,263.422 665.983,264.15 C666.723,264.878 667.613,265.242 668.652,265.242 C669.692,265.242 670.576,264.878 671.304,264.15 C672.031,263.422 672.396,262.539 672.396,261.498 L672.396,237.723 z M668.825,227.464 C671.714,227.464 674.168,228.481 676.19,230.514 C678.212,232.547 679.224,234.996 679.224,237.861 L679.224,261.568 C679.224,264.456 678.206,266.911 676.174,268.933 C674.14,270.955 671.69,271.965 668.825,271.965 C665.938,271.965 663.488,270.949 661.479,268.916 C659.468,266.883 658.463,264.433 658.463,261.568 L658.463,237.861 C658.463,234.973 659.479,232.519 661.513,230.496 C663.547,228.475 665.983,227.464 668.825,227.464" fill="#6F6652"/>
    <path d="M691.527,271.445 L684.976,271.445 L684.976,227.984 L694.376,227.984 L700.481,259.205 L706.341,227.984 L715.372,227.984 L715.372,271.445 L708.821,271.445 L708.821,244.134 L703.138,271.445 L697.87,271.445 L691.527,244.204 L691.527,271.445" fill="#6F6652"/>
    <path d="M727.778,271.445 L721.229,271.445 L721.229,227.984 L730.628,227.984 L736.733,259.205 L742.593,227.984 L751.624,227.984 L751.624,271.445 L745.074,271.445 L745.074,244.134 L739.391,271.445 L734.122,271.445 L727.778,244.204 L727.778,271.445" fill="#6F6652"/>
    <path d="M767.808,271.931 C764.921,271.931 762.472,270.925 760.461,268.916 C758.451,266.905 757.446,264.468 757.446,261.603 L757.446,228.019 L763.857,228.019 L763.857,261.533 C763.857,262.573 764.227,263.457 764.966,264.185 C765.706,264.912 766.596,265.276 767.635,265.276 C768.676,265.276 769.56,264.912 770.286,264.185 C771.015,263.457 771.379,262.573 771.379,261.533 L771.379,228.019 L778.206,228.019 L778.206,261.603 C778.206,264.514 777.19,266.963 775.156,268.95 C773.122,270.938 770.673,271.931 767.808,271.931" fill="#6F6652"/>
    <path d="M791.382,227.984 L800.075,257.192 L800.075,227.984 L806.625,227.984 L806.625,271.445 L799.59,271.445 L790.578,243.614 L790.578,271.445 L784.028,271.445 L784.028,227.984 L791.382,227.984" fill="#6F6652"/>
    <path d="M812.482,228.019 L819.033,228.019 L819.033,271.445 L812.482,271.445 z" fill="#6F6652"/>
    <path d="M831.267,234.603 L824.301,234.603 L824.301,228.019 L844.748,228.019 L844.748,234.603 L837.816,234.603 L837.816,271.445 L831.267,271.445 L831.267,234.603" fill="#6F6652"/>
    <path d="M858.023,253.25 L849.254,227.984 L856.463,227.984 L861.315,243.58 L866.133,227.984 L873.377,227.984 L864.572,253.25 L864.572,271.445 L858.023,271.445 L858.023,253.25" fill="#6F6652"/>
    <g clip-path="url(#Clip_2)">
      <path d="M281.253,54.664 L258.697,54.664 L258.697,95.275 L218.083,95.275 L218.083,117.837 L258.697,117.837 L258.697,158.451 L281.253,158.451 L281.253,117.837 L321.867,117.837 L321.867,95.275 L281.253,95.275 L281.253,54.664" fill="#CA712E"/>
      <path d="M82.353,193.904 C91.802,184.555 96.532,173.167 96.532,159.737 L96.532,131.536 L64.94,131.536 L64.94,159.417 C64.94,164.251 63.229,168.359 59.79,171.746 C56.345,175.129 52.215,176.822 47.381,176.822 C42.546,176.822 38.436,175.129 35.049,171.746 C31.669,168.359 29.976,164.251 29.976,159.417 L29.976,48.863 C29.976,44.029 31.669,39.896 35.049,36.454 C38.436,33.016 42.546,31.296 47.381,31.296 C52.215,31.296 56.345,33.016 59.79,36.454 C63.229,39.896 64.94,44.029 64.94,48.863 L64.94,72.554 L96.532,72.554 L96.532,49.506 C96.532,36.189 91.853,24.798 82.514,15.342 C73.162,5.89 61.774,1.162 48.344,1.162 C35.023,1.162 23.636,5.861 14.18,15.262 C4.725,24.662 0,36.079 0,49.506 L0,159.737 C0,173.064 4.698,184.423 14.103,193.823 C23.5,203.224 34.913,207.923 48.344,207.923 C61.561,207.923 72.896,203.253 82.353,193.904 M124.996,14.941 C115.54,24.342 110.815,35.756 110.815,49.186 L110.815,159.417 C110.815,172.738 115.488,184.129 124.834,193.581 C134.18,203.037 145.567,207.761 158.998,207.761 C172.318,207.761 183.713,203.063 193.161,193.662 C202.617,184.261 207.348,172.848 207.348,159.417 L207.348,49.186 C207.348,35.866 202.643,24.475 193.246,15.019 C183.842,5.567 172.429,0.836 158.998,0.836 C145.787,0.836 134.444,5.541 124.996,14.941 M175.602,159.094 C175.602,163.928 173.908,168.039 170.521,171.422 C167.135,174.806 163.031,176.499 158.196,176.499 C153.362,176.499 149.226,174.806 145.787,171.422 C142.343,168.039 140.63,163.928 140.63,159.094 L140.63,48.54 C140.63,43.706 142.343,39.598 145.787,36.211 C149.226,32.828 153.362,31.135 158.196,31.135 C163.031,31.135 167.135,32.828 170.521,36.211 C173.908,39.598 175.602,43.706 175.602,48.54 L175.602,159.094 z M399.806,119.773 L399.806,205.347 L430.267,205.347 L430.267,3.415 L399.806,3.415 L399.806,89.151 L363.064,89.151 L363.064,3.415 L332.609,3.415 L332.609,205.347 L363.064,205.347 L363.064,119.773 L399.806,119.773 z M461.147,14.941 C451.691,24.342 446.967,35.756 446.967,49.186 L446.967,159.417 C446.967,172.738 451.64,184.129 460.991,193.581 C470.331,203.037 481.719,207.761 495.149,207.761 C508.476,207.761 519.863,203.063 529.319,193.662 C538.769,184.261 543.499,172.848 543.499,159.417 L543.499,49.186 C543.499,35.866 538.801,24.475 529.396,15.019 C519.999,5.567 508.579,0.836 495.149,0.836 C481.939,0.836 470.603,5.541 461.147,14.941 M511.753,159.094 C511.753,163.928 510.06,168.039 506.673,171.422 C503.292,174.806 499.182,176.499 494.348,176.499 C489.513,176.499 485.377,174.806 481.939,171.422 C478.5,168.039 476.781,163.928 476.781,159.094 L476.781,48.54 C476.781,43.706 478.5,39.598 481.939,36.211 C485.377,32.828 489.513,31.135 494.348,31.135 C499.182,31.135 503.292,32.828 506.673,36.211 C510.06,39.598 511.753,43.706 511.753,48.54 L511.753,159.094 z M573.733,14.941 C564.284,24.342 559.554,35.756 559.554,49.186 L559.554,159.417 C559.554,172.738 564.227,184.129 573.572,193.581 C582.924,203.037 594.312,207.761 607.742,207.761 C621.063,207.761 632.45,203.063 641.906,193.662 C651.354,184.261 656.086,172.848 656.086,159.417 L656.086,49.186 C656.086,35.866 651.388,24.475 641.983,15.019 C632.58,5.567 621.166,0.836 607.742,0.836 C594.525,0.836 583.188,5.541 573.733,14.941 M624.339,159.094 C624.339,163.928 622.646,168.039 619.266,171.422 C615.879,174.806 611.769,176.499 606.935,176.499 C602.1,176.499 597.964,174.806 594.525,171.422 C591.087,168.039 589.368,163.928 589.368,159.094 L589.368,48.54 C589.368,43.706 591.087,39.598 594.525,36.211 C597.964,32.828 602.1,31.135 606.935,31.135 C611.769,31.135 615.879,32.828 619.266,36.211 C622.646,39.598 624.339,43.706 624.339,48.54 L624.339,159.094 z M699.221,205.347 L729.675,205.347 L729.675,34.037 L761.906,34.037 L761.906,3.415 L666.827,3.415 L666.827,34.037 L699.221,34.037 L699.221,205.347 z M868.857,135.727 C867.668,132.825 866.116,129.658 864.178,126.22 C860.093,118.913 854.296,111.5 846.779,103.98 C844.517,101.615 839.844,97.479 832.754,91.571 C826.737,86.63 822.226,82.332 819.221,78.677 C811.265,69.115 807.29,59.718 807.29,50.472 C807.29,44.568 808.473,39.624 810.838,35.65 C813.739,30.708 817.979,28.233 823.57,28.233 C828.831,28.233 832.864,29.9 835.656,33.229 C839.521,37.85 841.887,44.3 842.746,52.57 L871.914,47.25 C871.164,38.441 868.935,30.653 865.232,23.883 C861.521,17.116 856.654,11.852 850.644,8.091 C842.907,3.256 833.614,0.836 822.763,0.836 C811.484,0.836 802.028,3.69 794.402,9.39 C782.045,18.849 775.866,32.776 775.866,51.167 C775.866,61.382 778.122,70.841 782.64,79.553 C786.827,87.299 793.97,96.06 804.071,105.845 C816.099,117.246 825.128,125.796 831.145,131.494 C838.771,139.773 842.585,148.11 842.585,156.493 C842.585,162.303 841.563,166.763 839.521,169.884 C835.546,176.228 830.228,179.508 823.57,179.721 C818.839,179.938 814.651,178.047 810.999,174.053 C806.056,168.76 802.94,160.231 801.648,148.456 L772.642,150.55 C773.287,161.295 775.518,170.831 779.33,179.159 C783.144,187.483 788.327,194.066 794.881,198.9 C802.727,204.811 812.608,207.761 824.533,207.761 C830.983,207.761 836.619,207.011 841.453,205.505 C850.482,202.717 857.463,197.934 862.407,191.164 C869.93,181.172 873.581,169.141 873.368,155.065 C873.259,149.374 871.753,142.927 868.857,135.727" fill="#6F6652"/>
    </g>
  </g>
</svg>
