<?xml version="1.0" encoding="UTF-8"?>
<!DOCTYPE svg PUBLIC "-//W3C//DTD SVG 1.1//EN" "http://www.w3.org/Graphics/SVG/1.1/DTD/svg11.dtd">
<svg version="1.1" xmlns="http://www.w3.org/2000/svg" xmlns:xlink="http://www.w3.org/1999/xlink" x="0" y="0" width="1025" height="312" viewBox="0, 0, 1025, 312">
  <g id="Background">
    <rect x="0" y="0" width="1025" height="312" fill="#000000" fill-opacity="0"/>
  </g>
  <g id="Layer_1">
    <g>
      <path d="M546.992,253.52 C551.918,240.072 556.407,227.193 558.99,219.698 C569.691,218.472 575.179,221.776 575.179,229.798 C575.179,237.622 568.509,245.361 554.375,250.761 C551.719,251.775 549.229,252.702 546.992,253.52 M521.739,281.398 C515.5,294.264 511.647,299.688 506.738,300.448 C504.515,300.793 502.787,299.758 502.787,296.497 C502.787,292.926 506.582,279.695 526.909,269.081 C524.845,274.352 523.032,278.733 521.739,281.398 M581.502,302.176 C577.411,301.747 574.237,301.023 571.219,298.562 C568.47,296.319 566.33,292.641 564.589,287.883 C560.869,277.715 557.187,265.154 555.379,258.783 C579.249,250.375 590.422,239.62 590.422,227.551 C590.422,216.458 585.767,209.153 565.677,211.694 C556.792,212.818 545.894,214.048 539.01,215.386 C513.283,220.389 503.636,231.505 503.636,242.94 C503.636,250.681 510.425,256.042 518.286,256.042 C523.645,256.042 524.159,253.062 522.574,251.872 C519.239,249.371 517.241,246.87 517.241,242.581 C517.241,235.857 522.296,227.257 540.876,223.128 C542.077,222.861 543.103,222.632 544.017,222.428 C540.936,231.135 535.466,246.497 530.49,259.727 C502.114,271.096 493.232,286.667 493.232,297.474 C493.232,305.549 499.586,310.195 507.09,310.195 C518.524,310.195 527.52,302.534 534.722,285.301 C537.352,279.012 540.231,271.628 543.094,264.025 C544.916,270.74 548.269,282.479 551.845,291.932 C553.911,297.396 555.785,301.318 558.594,304.12 C561.991,307.51 566.563,309.202 571.974,309.202 C578.405,309.202 582.276,306.999 583.289,305.451 C584.457,303.663 583.756,302.41 581.502,302.176" fill="#602D6C"/>
      <path d="M849.365,250.308 C855.073,250.308 850.629,265.294 835.723,265.742 C839.43,257.745 845.536,250.308 849.365,250.308 M849.517,281.672 C847.32,281.672 844.137,285.195 838.456,285.195 C834.591,285.195 832.546,282.729 832.546,277.581 C832.546,276.315 832.716,274.943 833.023,273.513 C833.47,273.536 833.962,273.551 834.516,273.551 C852.849,273.551 863.91,262.956 863.91,252.581 C863.91,245.081 858.152,241.319 852.584,241.319 C838.818,241.319 822.323,257.595 819.49,274.237 C815.59,280.996 812.344,283.48 810.273,283.377 C808,283.263 808.176,280.129 810.275,274.145 C813.456,265.081 818.003,252.812 822.008,243.361 C829.945,224.629 839.312,214.267 839.977,212.075 C840.641,209.883 839.469,209.558 837.253,209.883 C829.288,211.05 820.419,210.704 817.016,216.353 C811.674,225.217 788.682,261.066 788.682,261.066 C788.682,261.066 799.897,216.837 800.956,212.262 C801.521,209.814 800.184,209.046 798.066,209.669 C795.491,210.427 793.227,210.899 789.78,212.035 C786.782,213.023 781.709,214.046 779.628,218.853 C778.544,221.36 769.748,247.467 763.531,260.649 C756.94,274.626 751.714,282.808 739.327,283.831 C735.984,284.107 735.79,285.805 736.714,287.922 C738.645,292.354 743.456,294.968 747.849,294.968 C755.577,294.968 761.061,289.502 766.334,276.823 C770.702,266.322 777.147,248.176 781.935,234.562 C777.956,255.748 773.189,284.057 772.517,291.455 C772.118,295.839 777.977,295.94 780.348,291.672 C786.57,280.473 799.884,257.619 811.881,236.886 C807.003,248.569 801.255,262.516 798.576,270.326 C796.741,276.067 795.121,280.27 795.121,285.521 C795.121,291.581 799.331,295.205 803.915,295.205 C808.67,295.205 814.089,292.8 819.876,285.479 C821.61,291.599 826.17,295.373 833.909,295.373 C843.987,295.373 851.487,288.49 851.487,284.096 C851.487,282.505 850.729,281.672 849.517,281.672" fill="#602D6C"/>
      <path d="M934.593,225.611 C939.934,221.747 944.053,221.482 945.313,220.444 C947.245,218.853 949.025,210.862 941.54,210.862 C929.593,210.862 919.085,225.778 914.29,238.944 C911.236,247.328 907.833,257.712 905.198,265.989 C905.152,266.133 905.124,266.032 905.132,265.91 C906.424,247.469 913.012,218.254 913.154,214.99 C913.228,213.285 913.112,212.393 912.357,211.984 C912.019,211.746 911.221,211.694 910.772,211.694 C909.164,211.694 907.67,211.757 906.178,211.806 C899.156,211.804 889.488,211.8 885.502,211.8 C855.123,211.8 853.001,240.217 871.789,240.217 C875.274,240.217 875.371,236.834 873.683,235.99 C866.865,232.581 865.46,220.085 888.188,220.085 C891.135,220.085 892.927,220.095 894.355,220.108 C891.521,229.818 886.181,246.216 879.443,260.649 C872.245,276.066 868.155,281.824 856.942,284.703 C853.694,285.537 853.919,287.349 854.821,289.475 C855.882,291.975 859.973,294.703 864.973,294.703 C873.912,294.703 878.609,288.187 883.42,275.081 C888.087,262.366 892.02,250.058 894.931,240.526 C894.942,240.489 894.927,240.409 894.965,240.415 C895.024,240.425 894.96,240.535 894.958,240.595 C894.17,261.131 893.385,287.286 893.253,292.056 C893.153,295.672 894.587,295.675 897.396,294.462 C903.155,291.975 905.092,291.116 906.638,286.43 C911.487,271.733 916.125,259.385 921.563,245.611 C924.972,236.975 930.153,228.823 934.593,225.611" fill="#602D6C"/>
      <path d="M933.911,284.627 C924.972,284.627 936.79,251.218 944.82,251.218 C952.245,251.218 943.343,284.627 933.911,284.627 M951.227,242.239 C927.32,242.239 915.577,269.972 915.577,281.888 C915.577,290.373 920.956,295.612 930.047,295.612 C950.048,295.612 961.53,268.338 961.53,255.762 C961.53,247.277 957.591,242.239 951.227,242.239" fill="#602D6C"/>
      <path d="M1014.291,227.732 C1012.308,227.732 1005.285,227.924 994.652,228.291 C996.372,224.12 997.766,220.736 998.685,218.437 C999.367,216.732 999.033,215.709 997.208,215.709 C995.579,215.709 992.776,216.278 989.367,217.187 C984.84,218.394 984.296,219.203 981.791,224.463 C981.259,225.58 980.636,227.047 979.918,228.828 C969.593,229.222 957.456,229.717 944.139,230.308 C938.916,230.539 931.639,237.05 937.926,237.05 C950.446,237.05 964,237.512 976.408,237.895 C974.474,242.988 972.12,249.239 969.253,256.619 C965.661,265.868 960.503,276.96 960.503,284.574 C960.503,290.256 964.367,295.108 971.185,295.108 C979.707,295.108 983.23,290.081 982.321,287.24 C981.793,285.592 980.275,285.649 976.98,285.649 C974.707,285.649 973.912,284.096 973.912,282.354 C973.912,279.737 975.141,277.032 976.564,273.324 C981.378,260.78 986.395,248.391 990.541,238.28 C994.002,238.353 997.273,238.399 1000.276,238.399 C1007.628,238.399 1010.503,238.187 1013.079,236.217 C1015.242,234.563 1016.261,233.641 1017.473,232.126 C1018.737,230.546 1019.291,227.732 1014.291,227.732" fill="#602D6C"/>
      <path d="M711.586,239.918 C715.519,239.918 719.476,236.289 720.424,231.812 C721.372,227.335 718.952,223.706 715.019,223.706 C711.086,223.706 707.129,227.335 706.181,231.812 C705.233,236.289 707.653,239.918 711.586,239.918" fill="#602D6C"/>
      <path d="M651.408,284.399 C642.696,284.399 657.431,251.444 665.726,251.444 C668.927,251.444 670.025,253.556 670.462,255.244 C663.673,271.179 658.082,284.399 651.408,284.399 M599.589,249.853 C605.385,249.853 601.862,265.99 586.407,265.99 C586.346,265.99 586.292,265.989 586.233,265.988 C589.828,257.539 595.764,249.853 599.589,249.853 M755.045,222.126 C758.4,222.126 749.224,246.26 732.284,259.591 C739.589,241.909 751.04,222.126 755.045,222.126 M728.303,285.914 C726.397,285.597 725.879,284.346 725.879,282.187 C725.879,279.523 726.633,275.863 727.901,271.658 C759.106,257.063 783.91,212.341 760.69,212.341 C745.264,212.341 721.562,246.659 715.423,269.844 C711.986,275.366 706.123,283.717 702.09,283.717 C698.908,283.717 699.768,279.509 702.053,273.289 C707.393,258.744 715.197,243.781 715.197,243.781 C715.197,243.781 711.257,242.115 705.954,243.024 C702.458,243.623 700.914,245.405 699.284,248.517 C699.083,248.767 698.859,249.142 698.606,249.687 C688.492,271.391 682.147,283.717 676.408,283.717 C672.374,283.717 674.692,279.282 676.976,273.062 C682.317,258.516 690.121,243.554 690.121,243.554 C690.121,243.554 686.181,241.887 680.878,242.796 C677.543,243.368 675.985,245.02 674.434,247.87 C673.384,244.915 671.106,241.936 666.181,241.936 C651.214,241.936 639.919,261.233 636.765,274.812 C633.681,279.579 629.694,284.626 626.635,284.626 C623.605,284.626 623.65,282.008 626.029,275.823 C629.836,265.925 637.199,248.78 643.07,235.34 C657.793,235.664 671.739,235.974 679.667,235.974 C687.018,235.974 689.893,235.762 692.469,233.792 C694.632,232.138 695.651,231.217 696.863,229.702 C698.127,228.122 698.681,225.307 693.681,225.307 C690.942,225.307 670.757,225.976 646.777,226.89 C648.575,222.809 650.027,219.542 650.878,217.641 C651.393,216.489 650.575,215.217 648.757,215.368 C645.972,215.6 644.969,215.974 641.938,216.732 C637.393,217.868 636.261,219.203 633.756,224.463 C633.412,225.186 632.94,226.209 632.376,227.451 C622.822,227.832 613.102,228.236 603.983,228.641 C598.761,228.873 592.847,234.626 599.135,234.626 C607.005,234.626 617.751,234.808 629.011,235.039 C627.053,239.528 624.868,244.662 623.011,249.244 C622.804,249.625 622.585,250.069 622.355,250.596 C614.741,267.982 603.112,286.217 590.271,286.217 C585.271,286.217 583.15,282.91 583.15,278.706 C583.15,277.083 583.378,275.324 583.777,273.505 C584.262,273.534 584.806,273.551 585.422,273.551 C603.756,273.551 614.589,262.274 614.589,251.899 C614.589,245.232 609.059,241.319 603.491,241.319 C588.377,241.319 569.968,260.937 569.968,279.119 C569.968,288.892 575.233,295.373 584.172,295.373 C596.185,295.373 605.493,288.008 612.126,279.909 C611.77,281.764 611.559,283.559 611.559,285.259 C611.559,290.941 614.817,295.108 620.12,295.108 C626.117,295.108 631.311,291.456 636.144,285.128 C637.114,291.447 640.764,295.108 646.181,295.108 C652.524,295.108 658.015,290.249 662.352,284.499 C662.602,289.785 664.487,295.108 671.408,295.108 C676.351,295.108 681.4,292.464 687.41,284.067 C687.577,289.561 689.855,295.335 696.408,295.335 C702.732,295.335 708.37,290.824 713.51,283.893 C713.991,290.801 717.706,294.918 723.038,294.918 C728.53,294.918 733.108,291.36 732.848,287.429 C732.683,284.922 730.121,286.217 728.303,285.914" fill="#602D6C"/>
      <path d="M455.49,265.329 L438.291,240.331 L443.964,240.331 L457.913,261.016 L471.977,240.331 L477.414,240.331 L460.215,265.27 L460.215,281.697 L455.49,281.697 z M420.496,262.906 L407.439,262.906 L407.439,277.504 L421.323,277.504 C427.588,277.504 431.486,274.725 431.486,270.115 L431.486,269.995 C431.486,265.505 427.704,262.906 420.496,262.906 M429.183,251.265 C429.183,247.188 425.933,244.529 420.024,244.529 L407.439,244.529 L407.439,258.768 L419.668,258.768 C425.281,258.768 429.183,256.227 429.183,251.381 z M402.829,240.331 L420.436,240.331 C425.165,240.331 428.887,241.689 431.25,243.997 C432.965,245.768 433.913,247.954 433.913,250.614 L433.913,250.734 C433.913,256.111 430.603,258.884 427.352,260.303 C432.258,261.784 436.216,264.617 436.216,270.29 L436.216,270.41 C436.216,277.504 430.247,281.697 421.208,281.697 L402.829,281.697 z" fill="#BBBBBB"/>
      <path d="M216.715,162.268 L1022.001,162.268 L1022.001,167.537 L216.715,167.537 z" fill="#BBBBBB"/>
      <path d="M954.932,54.71 L966.656,54.71 L1005.221,104.487 L1005.221,54.71 L1017.666,54.71 L1017.666,126.701 L1007.075,126.701 L967.377,75.485 L967.377,126.701 L954.932,126.701 z M886.037,54.71 L939.409,54.71 L939.409,66.022 L898.688,66.022 L898.688,84.742 L934.784,84.742 L934.784,96.053 L898.688,96.053 L898.688,115.387 L939.924,115.387 L939.924,126.701 L886.037,126.701 z M811.281,117.342 L853.758,65.92 L812.618,65.92 L812.618,54.71 L870.313,54.71 L870.313,64.069 L827.734,115.491 L870.313,115.491 L870.313,126.701 L811.281,126.701 z M711.13,66.229 L711.13,115.184 L725.325,115.184 C740.44,115.184 750.315,105.003 750.315,90.911 L750.315,90.705 C750.315,76.616 740.44,66.229 725.325,66.229 z M698.482,54.71 L725.325,54.71 C747.948,54.71 763.581,70.24 763.581,90.5 L763.581,90.705 C763.581,110.966 747.948,126.701 725.325,126.701 L698.482,126.701 z M653.243,90.397 C662.291,90.397 668.054,85.665 668.054,78.366 L668.054,78.16 C668.054,70.445 662.497,66.229 653.141,66.229 L634.732,66.229 L634.732,90.397 z M622.083,54.71 L654.169,54.71 C663.218,54.71 670.313,57.384 674.945,61.91 C678.748,65.816 680.909,71.165 680.909,77.438 L680.909,77.645 C680.909,89.47 673.812,96.567 663.834,99.447 L683.271,126.701 L668.26,126.701 L650.568,101.608 L634.732,101.608 L634.732,126.701 L622.083,126.701 z M584.451,98.111 L572.008,69.313 L559.667,98.111 z M566.352,54.195 L578.075,54.195 L609.755,126.701 L596.385,126.701 L589.083,109.32 L555.039,109.32 L547.635,126.701 L534.677,126.701 z M463.832,90.911 L463.832,90.705 C463.832,70.24 479.158,53.475 500.96,53.475 C514.227,53.475 522.245,58.104 529.136,64.687 L521.015,74.046 C515.256,68.698 509.083,65.098 500.858,65.098 C487.178,65.098 477.099,76.41 477.099,90.5 L477.099,90.705 C477.099,104.797 487.076,116.211 500.858,116.211 C509.701,116.211 515.354,112.714 521.529,106.955 L529.651,115.184 C522.143,122.998 513.919,127.937 500.445,127.937 C479.465,127.937 463.832,111.584 463.832,90.911 M421.987,66.434 L399.155,66.434 L399.155,54.71 L457.569,54.71 L457.569,66.434 L434.738,66.434 L434.738,126.701 L421.987,126.701 z M334.785,54.71 L388.368,54.71 L388.368,66.229 L347.435,66.229 L347.435,85.871 L383.74,85.871 L383.74,97.39 L347.435,97.39 L347.435,126.701 L334.785,126.701 z M302.911,54.71 L315.561,54.71 L315.561,126.701 L302.911,126.701 z M218.387,90.911 L218.387,90.705 C218.387,70.549 233.812,53.475 255.514,53.475 C268.06,53.475 275.775,56.972 283.177,63.245 L275.158,72.811 C269.604,68.08 264.152,65.098 254.999,65.098 C241.732,65.098 231.654,76.718 231.654,90.5 L231.654,90.705 C231.654,105.514 241.423,116.416 256.132,116.416 C262.919,116.416 269.09,114.257 273.51,110.966 L273.51,97.493 L255.102,97.493 L255.102,86.489 L285.75,86.489 L285.75,116.726 C278.655,122.792 268.473,127.937 255.719,127.937 C233.197,127.937 218.387,111.89 218.387,90.911" fill="#A2A2A1"/>
      <path d="M128.848,73.035 L128.848,52.739 L57.813,52.739 L57.813,78.109 L93.331,78.109 L57.813,113.626 L57.813,133.922 L128.848,133.922 L128.848,108.552 L93.331,108.552 z M184.661,93.331 C184.661,143.771 143.771,184.661 93.331,184.661 C42.89,184.661 2,143.771 2,93.331 C2,42.89 42.89,2 93.331,2 C143.771,2 184.661,42.89 184.661,93.331" fill="#602D6C"/>
    </g>
  </g>
</svg>
