<?xml version="1.0" encoding="UTF-8"?>
<!DOCTYPE svg PUBLIC "-//W3C//DTD SVG 1.1//EN" "http://www.w3.org/Graphics/SVG/1.1/DTD/svg11.dtd">
<svg version="1.1" xmlns="http://www.w3.org/2000/svg" xmlns:xlink="http://www.w3.org/1999/xlink" x="0" y="0" width="241" height="73" viewBox="0, 0, 241, 73">
  <g id="Background">
    <rect x="0" y="0" width="241" height="73" fill="#000000" fill-opacity="0"/>
  </g>
  <g id="Layer_1">
    <path d="M5.245,22.45 L7.979,22.45 L7.979,34.462 C9.086,33.004 10.304,31.913 11.632,31.191 C12.96,30.468 14.398,30.107 15.948,30.107 C17.537,30.107 18.946,30.51 20.177,31.318 C21.407,32.125 22.315,33.209 22.901,34.57 C23.487,35.93 23.78,38.063 23.78,40.966 L23.78,51.904 L21.046,51.904 L21.046,41.767 C21.046,39.319 20.948,37.685 20.753,36.865 C20.414,35.458 19.799,34.401 18.907,33.691 C18.015,32.981 16.847,32.626 15.401,32.626 C13.748,32.626 12.267,33.173 10.958,34.267 C9.649,35.361 8.787,36.715 8.37,38.329 C8.109,39.371 7.979,41.298 7.979,44.111 L7.979,51.904 L5.245,51.904 L5.245,22.45" fill="#0B0B0A"/>
    <path d="M47.53,39.13 C47.165,37.672 46.634,36.506 45.937,35.634 C45.239,34.762 44.316,34.059 43.169,33.525 C42.022,32.99 40.816,32.724 39.552,32.724 C37.466,32.724 35.673,33.395 34.174,34.736 C33.079,35.712 32.251,37.177 31.69,39.13 L47.53,39.13 z M47.53,44.853 L49.835,46.064 C49.079,47.548 48.206,48.746 47.215,49.657 C46.225,50.569 45.11,51.262 43.873,51.738 C42.634,52.213 41.233,52.45 39.669,52.45 C36.203,52.45 33.492,51.315 31.537,49.042 C29.582,46.77 28.604,44.201 28.604,41.337 C28.604,38.642 29.432,36.239 31.087,34.13 C33.185,31.448 35.994,30.107 39.513,30.107 C43.136,30.107 46.029,31.481 48.192,34.228 C49.73,36.168 50.512,38.59 50.538,41.493 L31.417,41.493 C31.469,43.962 32.258,45.985 33.783,47.564 C35.308,49.142 37.192,49.931 39.435,49.931 C40.517,49.931 41.569,49.743 42.593,49.366 C43.616,48.99 44.486,48.491 45.203,47.868 C45.92,47.246 46.696,46.24 47.53,44.853" fill="#0B0B0A"/>
    <path d="M65.88,32.743 C64.358,32.743 62.954,33.117 61.666,33.865 C60.378,34.613 59.354,35.663 58.593,37.016 C57.833,38.368 57.452,39.799 57.452,41.308 C57.452,42.804 57.836,44.235 58.603,45.6 C59.37,46.965 60.401,48.029 61.695,48.789 C62.989,49.551 64.377,49.931 65.86,49.931 C67.356,49.931 68.773,49.554 70.113,48.799 C71.453,48.045 72.483,47.024 73.205,45.737 C73.927,44.449 74.288,42.999 74.288,41.386 C74.288,38.928 73.479,36.873 71.859,35.221 C70.24,33.57 68.247,32.743 65.88,32.743 z M76.808,30.653 L76.808,51.904 L74.112,51.904 L74.112,48.251 C72.966,49.645 71.681,50.693 70.255,51.396 C68.829,52.099 67.27,52.45 65.577,52.45 C62.569,52.45 60.001,51.36 57.872,49.179 C55.743,46.998 54.679,44.345 54.679,41.22 C54.679,38.16 55.753,35.543 57.901,33.368 C60.05,31.194 62.634,30.107 65.655,30.107 C67.4,30.107 68.979,30.478 70.392,31.22 C71.804,31.962 73.044,33.075 74.112,34.56 L74.112,30.653 L76.808,30.653" fill="#0B0B0A"/>
    <path d="M93.243,32.743 C91.722,32.743 90.317,33.117 89.029,33.865 C87.741,34.613 86.717,35.663 85.956,37.016 C85.196,38.368 84.815,39.799 84.815,41.308 C84.815,42.804 85.199,44.235 85.966,45.6 C86.733,46.965 87.764,48.029 89.058,48.789 C90.352,49.551 91.741,49.931 93.224,49.931 C94.719,49.931 96.137,49.554 97.477,48.799 C98.816,48.045 99.847,47.024 100.568,45.737 C101.291,44.449 101.651,42.999 101.651,41.386 C101.651,38.928 100.842,36.873 99.223,35.221 C97.603,33.57 95.61,32.743 93.243,32.743 z M104.171,22.45 L104.171,51.904 L101.476,51.904 L101.476,48.251 C100.33,49.645 99.044,50.693 97.618,51.396 C96.192,52.099 94.633,52.45 92.94,52.45 C89.933,52.45 87.364,51.36 85.235,49.179 C83.106,46.998 82.042,44.345 82.042,41.22 C82.042,38.16 83.116,35.543 85.265,33.368 C87.413,31.194 89.998,30.107 93.019,30.107 C94.763,30.107 96.342,30.478 97.755,31.22 C99.167,31.962 100.408,33.075 101.476,34.56 L101.476,22.45 L104.171,22.45" fill="#0B0B0A"/>
    <path d="M109.021,30.653 L110.916,30.653 C110.928,27.867 110.974,26.22 111.052,25.712 C111.195,24.54 111.687,23.612 112.527,22.929 C113.367,22.245 114.555,21.903 116.091,21.903 C117.198,21.903 118.448,22.157 119.841,22.665 L119.841,26.728 C119.073,26.506 118.441,26.396 117.947,26.396 C117.322,26.396 116.866,26.526 116.58,26.786 C116.371,26.982 116.267,27.385 116.267,27.997 L116.248,30.653 L119.626,30.653 L119.626,35.165 L116.248,35.165 L116.248,51.904 L110.916,51.904 L110.916,35.165 L109.021,35.165 L109.021,30.653" fill="#E77A2B"/>
    <path d="M133.11,35.029 C131.462,35.029 130.093,35.612 129.003,36.777 C127.912,37.942 127.367,39.436 127.367,41.259 C127.367,43.095 127.922,44.606 129.031,45.79 C130.142,46.975 131.507,47.568 133.129,47.568 C134.804,47.568 136.191,46.985 137.295,45.82 C138.397,44.655 138.949,43.127 138.949,41.24 C138.949,39.391 138.397,37.894 137.295,36.747 C136.191,35.602 134.797,35.029 133.11,35.029 z M138.715,30.653 L144.047,30.653 L144.047,51.904 L138.715,51.904 L138.715,49.657 C137.675,50.647 136.631,51.36 135.584,51.796 C134.537,52.233 133.402,52.45 132.18,52.45 C129.436,52.45 127.062,51.386 125.059,49.257 C123.057,47.128 122.055,44.482 122.055,41.318 C122.055,38.036 123.023,35.348 124.962,33.251 C126.899,31.154 129.253,30.107 132.023,30.107 C133.298,30.107 134.494,30.348 135.613,30.829 C136.731,31.311 137.766,32.033 138.715,32.997 L138.715,30.653" fill="#E77A2B"/>
    <path d="M148.468,30.653 L153.038,30.653 L153.038,33.329 C153.533,32.275 154.19,31.474 155.011,30.927 C155.831,30.38 156.729,30.107 157.706,30.107 C158.396,30.107 159.119,30.289 159.874,30.653 L158.214,35.243 C157.589,34.931 157.074,34.775 156.671,34.775 C155.851,34.775 155.157,35.282 154.591,36.298 C154.024,37.314 153.741,39.306 153.741,42.275 L153.761,43.31 L153.761,51.904 L148.468,51.904 L148.468,30.653" fill="#E77A2B"/>
    <path d="M162.752,30.653 L168.084,30.653 L168.084,33.095 C168.996,32.092 170.009,31.344 171.123,30.849 C172.237,30.354 173.452,30.107 174.769,30.107 C176.097,30.107 177.296,30.432 178.364,31.083 C179.433,31.735 180.293,32.685 180.944,33.935 C181.791,32.685 182.83,31.735 184.062,31.083 C185.293,30.432 186.639,30.107 188.098,30.107 C189.609,30.107 190.938,30.458 192.085,31.161 C193.231,31.865 194.056,32.782 194.558,33.915 C195.06,35.048 195.311,36.891 195.311,39.443 L195.311,51.904 L189.939,51.904 L189.939,41.122 C189.939,38.713 189.64,37.083 189.041,36.23 C188.441,35.377 187.543,34.95 186.346,34.95 C185.434,34.95 184.617,35.211 183.895,35.732 C183.172,36.252 182.635,36.972 182.283,37.89 C181.932,38.808 181.756,40.282 181.756,42.314 L181.756,51.904 L176.385,51.904 L176.385,41.611 C176.385,39.709 176.244,38.332 175.964,37.48 C175.683,36.627 175.262,35.992 174.701,35.575 C174.14,35.158 173.461,34.95 172.665,34.95 C171.777,34.95 170.972,35.214 170.247,35.741 C169.522,36.269 168.981,37.008 168.622,37.958 C168.264,38.908 168.084,40.407 168.084,42.45 L168.084,51.904 L162.752,51.904 L162.752,30.653" fill="#E77A2B"/>
    <path d="M216.626,38.622 C216.273,37.438 215.579,36.474 214.542,35.732 C213.505,34.99 212.302,34.618 210.933,34.618 C209.445,34.618 208.142,35.035 207.02,35.868 C206.315,36.389 205.663,37.308 205.063,38.622 L216.626,38.622 z M221.958,42.822 L204.829,42.822 C205.076,44.332 205.737,45.533 206.812,46.425 C207.886,47.317 209.256,47.763 210.923,47.763 C212.915,47.763 214.627,47.067 216.06,45.673 L220.552,47.782 C219.432,49.371 218.091,50.546 216.528,51.308 C214.966,52.07 213.11,52.45 210.962,52.45 C207.628,52.45 204.913,51.399 202.817,49.296 C200.721,47.194 199.673,44.56 199.673,41.396 C199.673,38.153 200.718,35.461 202.808,33.32 C204.897,31.178 207.518,30.107 210.669,30.107 C214.015,30.107 216.736,31.178 218.833,33.32 C220.929,35.461 221.978,38.29 221.978,41.806 L221.958,42.822" fill="#E77A2B"/>
    <path d="M225.304,30.653 L229.874,30.653 L229.874,33.329 C230.37,32.275 231.026,31.474 231.847,30.927 C232.667,30.38 233.565,30.107 234.542,30.107 C235.233,30.107 235.956,30.289 236.71,30.653 L235.05,35.243 C234.425,34.931 233.911,34.775 233.507,34.775 C232.687,34.775 231.993,35.282 231.427,36.298 C230.86,37.314 230.577,39.306 230.577,42.275 L230.597,43.31 L230.597,51.904 L225.304,51.904 L225.304,30.653" fill="#E77A2B"/>
    <path d="M153.535,17.286 L154.839,17.286 L154.839,19.837 C155.096,19.615 155.354,19.449 155.613,19.339 C155.873,19.228 156.137,19.173 156.402,19.173 C156.922,19.173 157.36,19.352 157.716,19.712 C158.021,20.023 158.173,20.48 158.173,21.083 L158.173,24.542 L156.879,24.542 L156.879,22.247 C156.879,21.641 156.851,21.23 156.792,21.015 C156.734,20.8 156.636,20.64 156.496,20.534 C156.357,20.428 156.185,20.375 155.979,20.375 C155.713,20.375 155.484,20.464 155.294,20.64 C155.103,20.817 154.971,21.057 154.896,21.362 C154.858,21.519 154.839,21.878 154.839,22.44 L154.839,24.542 L153.535,24.542 L153.535,17.286" fill="#0B0B0A"/>
    <path d="M159.202,19.307 L159.669,19.307 C159.673,18.621 159.684,18.215 159.703,18.09 C159.738,17.801 159.859,17.573 160.066,17.404 C160.273,17.236 160.565,17.152 160.944,17.152 C161.217,17.152 161.524,17.214 161.868,17.34 L161.868,18.34 C161.679,18.286 161.523,18.258 161.401,18.258 C161.247,18.258 161.135,18.29 161.064,18.355 C161.014,18.403 160.987,18.502 160.987,18.653 L160.982,19.307 L161.815,19.307 L161.815,20.419 L160.982,20.419 L160.982,24.542 L159.669,24.542 L159.669,20.419 L159.202,20.419 L159.202,19.307" fill="#0B0B0A"/>
    <path d="M162.801,19.307 L163.489,19.307 L163.489,20.073 C163.694,19.771 163.911,19.546 164.139,19.396 C164.366,19.247 164.604,19.173 164.851,19.173 C165.037,19.173 165.236,19.232 165.447,19.351 L165.097,19.918 C164.955,19.858 164.837,19.827 164.74,19.827 C164.516,19.827 164.299,19.919 164.091,20.104 C163.882,20.288 163.724,20.574 163.614,20.963 C163.531,21.261 163.489,21.864 163.489,22.772 L163.489,24.542 L162.801,24.542 L162.801,19.307" fill="#0B0B0A"/>
    <path d="M170.773,21.395 C170.684,21.036 170.553,20.749 170.381,20.534 C170.209,20.319 169.981,20.146 169.699,20.014 C169.416,19.883 169.119,19.817 168.808,19.817 C168.294,19.817 167.853,19.983 167.482,20.313 C167.213,20.553 167.009,20.914 166.871,21.395 L170.773,21.395 z M170.773,22.805 L171.341,23.104 C171.154,23.469 170.939,23.764 170.695,23.989 C170.451,24.214 170.177,24.385 169.872,24.501 C169.567,24.618 169.222,24.677 168.837,24.677 C167.982,24.677 167.314,24.397 166.833,23.837 C166.352,23.278 166.11,22.645 166.11,21.939 C166.11,21.275 166.314,20.683 166.723,20.164 C167.239,19.503 167.932,19.173 168.798,19.173 C169.69,19.173 170.403,19.511 170.937,20.188 C171.315,20.666 171.508,21.262 171.515,21.978 L166.804,21.978 C166.816,22.586 167.011,23.084 167.387,23.473 C167.763,23.862 168.227,24.056 168.779,24.056 C169.045,24.056 169.305,24.01 169.557,23.917 C169.809,23.824 170.023,23.701 170.2,23.548 C170.377,23.395 170.567,23.147 170.773,22.805" fill="#0B0B0A"/>
    <path d="M178.235,20.395 L177.701,20.727 C177.239,20.114 176.61,19.808 175.813,19.808 C175.175,19.808 174.646,20.013 174.224,20.423 C173.803,20.833 173.592,21.331 173.592,21.918 C173.592,22.299 173.688,22.658 173.883,22.994 C174.076,23.33 174.343,23.591 174.681,23.778 C175.019,23.963 175.397,24.056 175.816,24.056 C176.586,24.056 177.214,23.75 177.701,23.137 L178.235,23.489 C177.984,23.865 177.648,24.157 177.227,24.365 C176.805,24.573 176.325,24.677 175.786,24.677 C174.958,24.677 174.271,24.414 173.727,23.888 C173.181,23.362 172.908,22.722 172.908,21.968 C172.908,21.461 173.036,20.99 173.291,20.556 C173.546,20.121 173.896,19.782 174.343,19.538 C174.788,19.295 175.287,19.173 175.839,19.173 C176.186,19.173 176.52,19.225 176.842,19.331 C177.164,19.437 177.438,19.575 177.662,19.745 C177.887,19.915 178.078,20.132 178.235,20.395" fill="#0B0B0A"/>
    <path d="M179.658,19.307 L180.347,19.307 L180.347,20.073 C180.552,19.771 180.769,19.546 180.996,19.396 C181.224,19.247 181.461,19.173 181.708,19.173 C181.895,19.173 182.094,19.232 182.305,19.351 L181.954,19.918 C181.813,19.858 181.694,19.827 181.598,19.827 C181.373,19.827 181.156,19.919 180.948,20.104 C180.739,20.288 180.581,20.574 180.472,20.963 C180.389,21.261 180.347,21.864 180.347,22.772 L180.347,24.542 L179.658,24.542 L179.658,19.307" fill="#0B0B0A"/>
    <path d="M183.175,19.307 L183.849,19.307 L183.849,21.752 C183.849,22.348 183.881,22.759 183.944,22.983 C184.041,23.304 184.225,23.557 184.496,23.743 C184.768,23.929 185.092,24.023 185.468,24.023 C185.843,24.023 186.162,23.932 186.424,23.751 C186.686,23.57 186.866,23.331 186.966,23.036 C187.033,22.834 187.067,22.406 187.067,21.752 L187.067,19.307 L187.755,19.307 L187.755,21.877 C187.755,22.598 187.671,23.142 187.503,23.507 C187.334,23.873 187.081,24.16 186.742,24.366 C186.404,24.573 185.979,24.677 185.47,24.677 C184.96,24.677 184.534,24.573 184.192,24.366 C183.851,24.16 183.596,23.871 183.428,23.501 C183.259,23.13 183.175,22.573 183.175,21.828 L183.175,19.307" fill="#0B0B0A"/>
    <path d="M189.535,19.307 L190.209,19.307 L190.209,24.542 L189.535,24.542 z M189.87,17.152 C190.023,17.152 190.154,17.206 190.263,17.315 C190.371,17.424 190.426,17.556 190.426,17.71 C190.426,17.861 190.371,17.99 190.263,18.099 C190.154,18.209 190.023,18.263 189.87,18.263 C189.72,18.263 189.59,18.209 189.481,18.099 C189.373,17.99 189.318,17.861 189.318,17.71 C189.318,17.556 189.373,17.424 189.481,17.315 C189.59,17.206 189.72,17.152 189.87,17.152" fill="#0B0B0A"/>
    <path d="M192.581,17.364 L193.254,17.364 L193.254,19.307 L194.322,19.307 L194.322,19.889 L193.254,19.889 L193.254,24.542 L192.581,24.542 L192.581,19.889 L191.662,19.889 L191.662,19.307 L192.581,19.307 L192.581,17.364" fill="#0B0B0A"/>
    <path d="M195.615,19.307 L196.289,19.307 L196.289,24.542 L195.615,24.542 z M195.95,17.152 C196.104,17.152 196.234,17.206 196.343,17.315 C196.451,17.424 196.506,17.556 196.506,17.71 C196.506,17.861 196.451,17.99 196.343,18.099 C196.234,18.209 196.104,18.263 195.95,18.263 C195.8,18.263 195.67,18.209 195.562,18.099 C195.453,17.99 195.398,17.861 195.398,17.71 C195.398,17.556 195.453,17.424 195.562,17.315 C195.67,17.206 195.8,17.152 195.95,17.152" fill="#0B0B0A"/>
    <path d="M198.074,19.307 L198.747,19.307 L198.747,20.245 C199.017,19.886 199.315,19.617 199.643,19.44 C199.97,19.261 200.325,19.173 200.711,19.173 C201.102,19.173 201.449,19.272 201.752,19.471 C202.056,19.67 202.279,19.938 202.424,20.275 C202.567,20.611 202.64,21.136 202.64,21.848 L202.64,24.542 L201.967,24.542 L201.967,22.045 C201.967,21.442 201.941,21.039 201.892,20.837 C201.813,20.491 201.664,20.23 201.442,20.055 C201.221,19.881 200.933,19.793 200.576,19.793 C200.169,19.793 199.804,19.928 199.481,20.198 C199.159,20.467 198.946,20.8 198.844,21.198 C198.779,21.458 198.747,21.933 198.747,22.622 L198.747,24.542 L198.074,24.542 L198.074,19.307" fill="#0B0B0A"/>
    <path d="M206.993,19.822 C206.611,19.822 206.257,19.914 205.93,20.099 C205.603,20.283 205.347,20.538 205.16,20.864 C204.975,21.189 204.881,21.541 204.881,21.92 C204.881,22.494 205.073,22.969 205.459,23.344 C205.844,23.719 206.342,23.907 206.955,23.907 C207.574,23.907 208.072,23.721 208.449,23.349 C208.826,22.977 209.015,22.487 209.015,21.882 C209.015,21.487 208.928,21.135 208.755,20.825 C208.581,20.516 208.336,20.271 208.019,20.091 C207.701,19.912 207.359,19.822 206.993,19.822 z M208.98,19.307 L209.654,19.307 L209.654,23.479 C209.654,24.214 209.59,24.751 209.462,25.09 C209.285,25.572 208.979,25.943 208.543,26.202 C208.106,26.462 207.582,26.592 206.97,26.592 C206.521,26.592 206.117,26.528 205.76,26.401 C205.401,26.274 205.11,26.104 204.886,25.89 C204.661,25.676 204.454,25.363 204.266,24.951 L204.997,24.951 C205.195,25.298 205.453,25.554 205.768,25.721 C206.082,25.888 206.473,25.971 206.938,25.971 C207.397,25.971 207.785,25.885 208.102,25.715 C208.418,25.544 208.644,25.329 208.778,25.07 C208.913,24.811 208.98,24.393 208.98,23.816 L208.98,23.546 C208.727,23.867 208.417,24.113 208.051,24.285 C207.685,24.456 207.297,24.542 206.886,24.542 C206.403,24.542 205.951,24.423 205.527,24.184 C205.104,23.945 204.775,23.623 204.545,23.219 C204.313,22.815 204.198,22.371 204.198,21.886 C204.198,21.402 204.318,20.95 204.56,20.532 C204.8,20.113 205.133,19.782 205.559,19.538 C205.984,19.295 206.433,19.173 206.904,19.173 C207.297,19.173 207.662,19.254 208,19.416 C208.339,19.577 208.666,19.844 208.98,20.216 L208.98,19.307" fill="#0B0B0A"/>
    <path d="M212.223,23.484 C212.387,23.484 212.526,23.541 212.642,23.657 C212.757,23.772 212.814,23.914 212.814,24.08 C212.814,24.244 212.757,24.385 212.642,24.501 C212.526,24.618 212.387,24.677 212.223,24.677 C212.06,24.677 211.92,24.618 211.805,24.501 C211.688,24.385 211.631,24.244 211.631,24.08 C211.631,23.914 211.688,23.772 211.805,23.657 C211.92,23.541 212.06,23.484 212.223,23.484" fill="#0B0B0A"/>
    <path d="M218.957,20.395 L218.423,20.727 C217.961,20.114 217.332,19.808 216.534,19.808 C215.896,19.808 215.367,20.013 214.945,20.423 C214.524,20.833 214.313,21.331 214.313,21.918 C214.313,22.299 214.41,22.658 214.604,22.994 C214.798,23.33 215.064,23.591 215.402,23.778 C215.74,23.963 216.119,24.056 216.538,24.056 C217.308,24.056 217.936,23.75 218.423,23.137 L218.957,23.489 C218.706,23.865 218.37,24.157 217.948,24.365 C217.526,24.573 217.047,24.677 216.508,24.677 C215.68,24.677 214.993,24.414 214.448,23.888 C213.902,23.362 213.63,22.722 213.63,21.968 C213.63,21.461 213.758,20.99 214.013,20.556 C214.268,20.121 214.618,19.782 215.064,19.538 C215.51,19.295 216.009,19.173 216.561,19.173 C216.907,19.173 217.241,19.225 217.563,19.331 C217.886,19.437 218.159,19.575 218.384,19.745 C218.608,19.915 218.8,20.132 218.957,20.395" fill="#0B0B0A"/>
    <path d="M222.175,19.832 C221.614,19.832 221.133,20.039 220.73,20.452 C220.328,20.866 220.127,21.366 220.127,21.954 C220.127,22.332 220.219,22.685 220.402,23.012 C220.586,23.34 220.834,23.592 221.146,23.77 C221.458,23.948 221.801,24.037 222.175,24.037 C222.548,24.037 222.891,23.948 223.203,23.77 C223.515,23.592 223.763,23.34 223.946,23.012 C224.13,22.685 224.222,22.332 224.222,21.954 C224.222,21.366 224.02,20.866 223.615,20.452 C223.212,20.039 222.731,19.832 222.175,19.832 z M222.177,19.173 C222.983,19.173 223.651,19.465 224.182,20.048 C224.664,20.581 224.905,21.211 224.905,21.939 C224.905,22.671 224.65,23.31 224.141,23.857 C223.632,24.404 222.977,24.677 222.177,24.677 C221.373,24.677 220.717,24.404 220.208,23.857 C219.698,23.31 219.443,22.671 219.443,21.939 C219.443,21.214 219.685,20.586 220.167,20.053 C220.697,19.466 221.367,19.173 222.177,19.173" fill="#0B0B0A"/>
    <path d="M225.595,19.307 L226.268,19.307 L226.268,20.212 C226.503,19.878 226.743,19.634 226.99,19.481 C227.331,19.275 227.689,19.173 228.064,19.173 C228.318,19.173 228.56,19.222 228.787,19.322 C229.016,19.421 229.201,19.553 229.346,19.718 C229.49,19.884 229.616,20.12 229.722,20.428 C229.946,20.018 230.226,19.706 230.562,19.492 C230.897,19.279 231.26,19.173 231.646,19.173 C232.009,19.173 232.327,19.264 232.604,19.447 C232.881,19.63 233.087,19.884 233.221,20.212 C233.355,20.539 233.423,21.03 233.423,21.684 L233.423,24.542 L232.734,24.542 L232.734,21.684 C232.734,21.123 232.694,20.737 232.615,20.527 C232.535,20.317 232.398,20.148 232.205,20.019 C232.012,19.891 231.78,19.827 231.512,19.827 C231.186,19.827 230.888,19.923 230.617,20.115 C230.348,20.308 230.149,20.565 230.025,20.886 C229.9,21.206 229.838,21.742 229.838,22.492 L229.838,24.542 L229.165,24.542 L229.165,21.862 C229.165,21.23 229.125,20.801 229.047,20.575 C228.968,20.349 228.831,20.168 228.636,20.032 C228.439,19.895 228.207,19.827 227.938,19.827 C227.626,19.827 227.335,19.921 227.064,20.109 C226.793,20.296 226.593,20.549 226.463,20.866 C226.333,21.184 226.268,21.67 226.268,22.324 L226.268,24.542 L225.595,24.542 L225.595,19.307" fill="#0B0B0A"/>
    <path d="M5.963,60.857 L5.963,63.298 L7.2,63.308 C7.68,63.308 8.034,63.262 8.264,63.171 C8.494,63.08 8.673,62.935 8.802,62.735 C8.931,62.534 8.995,62.31 8.995,62.063 C8.995,61.822 8.93,61.603 8.799,61.407 C8.669,61.209 8.498,61.069 8.286,60.984 C8.074,60.899 7.722,60.857 7.229,60.857 L5.963,60.857 z M5.245,60.154 L6.676,60.154 C7.473,60.154 8.014,60.186 8.297,60.251 C8.723,60.349 9.07,60.559 9.337,60.879 C9.604,61.2 9.737,61.596 9.737,62.065 C9.737,62.456 9.646,62.8 9.461,63.097 C9.277,63.394 9.015,63.617 8.673,63.769 C8.331,63.92 7.859,63.998 7.257,64.001 L9.84,67.336 L8.952,67.336 L6.369,64.001 L5.963,64.001 L5.963,67.336 L5.245,67.336 L5.245,60.154" fill="#0B0B0A"/>
    <path d="M19.264,60.154 L23.38,60.154 L23.38,60.857 L19.981,60.857 L19.981,63.108 L23.351,63.108 L23.351,63.811 L19.981,63.811 L19.981,66.633 L23.351,66.633 L23.351,67.336 L19.264,67.336 L19.264,60.154" fill="#0B0B0A"/>
    <path d="M38.612,61.487 L38.045,61.921 C37.733,61.514 37.358,61.205 36.92,60.996 C36.482,60.785 36.001,60.681 35.477,60.681 C34.904,60.681 34.373,60.819 33.885,61.094 C33.397,61.368 33.019,61.739 32.75,62.201 C32.481,62.666 32.347,63.188 32.347,63.767 C32.347,64.643 32.647,65.373 33.248,65.959 C33.849,66.545 34.606,66.838 35.521,66.838 C36.527,66.838 37.368,66.445 38.045,65.657 L38.612,66.086 C38.254,66.542 37.807,66.895 37.271,67.143 C36.736,67.393 36.138,67.517 35.477,67.517 C34.221,67.517 33.229,67.099 32.503,66.262 C31.894,65.556 31.59,64.702 31.59,63.703 C31.59,62.652 31.959,61.768 32.696,61.049 C33.434,60.332 34.357,59.973 35.467,59.973 C36.138,59.973 36.743,60.106 37.284,60.371 C37.824,60.636 38.267,61.008 38.612,61.487" fill="#0B0B0A"/>
    <path d="M47.301,60.857 L47.301,63.298 L48.538,63.308 C49.018,63.308 49.372,63.262 49.602,63.171 C49.831,63.08 50.011,62.935 50.14,62.735 C50.269,62.534 50.333,62.31 50.333,62.063 C50.333,61.822 50.268,61.603 50.137,61.407 C50.007,61.209 49.836,61.069 49.624,60.984 C49.412,60.899 49.06,60.857 48.567,60.857 L47.301,60.857 z M46.583,60.154 L48.014,60.154 C48.811,60.154 49.352,60.186 49.635,60.251 C50.061,60.349 50.408,60.559 50.675,60.879 C50.942,61.2 51.075,61.596 51.075,62.065 C51.075,62.456 50.983,62.8 50.799,63.097 C50.615,63.394 50.352,63.617 50.011,63.769 C49.669,63.92 49.197,63.998 48.595,64.001 L51.178,67.336 L50.29,67.336 L47.707,64.001 L47.301,64.001 L47.301,67.336 L46.583,67.336 L46.583,60.154" fill="#0B0B0A"/>
    <path d="M60.282,60.154 L61,60.154 L61,64.49 C61,65.004 61.009,65.324 61.029,65.451 C61.065,65.735 61.148,65.971 61.278,66.162 C61.408,66.352 61.608,66.512 61.878,66.641 C62.149,66.769 62.42,66.833 62.694,66.833 C62.931,66.833 63.16,66.782 63.377,66.682 C63.595,66.581 63.778,66.441 63.924,66.262 C64.071,66.083 64.178,65.866 64.247,65.613 C64.295,65.43 64.32,65.056 64.32,64.49 L64.32,60.154 L65.038,60.154 L65.038,64.49 C65.038,65.131 64.975,65.649 64.85,66.045 C64.724,66.44 64.473,66.784 64.098,67.077 C63.721,67.37 63.267,67.517 62.733,67.517 C62.154,67.517 61.657,67.378 61.244,67.102 C60.831,66.825 60.553,66.459 60.414,66.003 C60.326,65.723 60.282,65.219 60.282,64.49 L60.282,60.154" fill="#0B0B0A"/>
    <path d="M72.08,60.154 L72.798,60.154 L72.798,67.337 L72.08,67.337 z" fill="#0B0B0A"/>
    <path d="M81.251,60.857 L81.251,60.154 L85.186,60.154 L85.186,60.857 L83.585,60.857 L83.585,67.336 L82.852,67.336 L82.852,60.857 L81.251,60.857" fill="#0B0B0A"/>
    <path d="M95.639,60.154 L96.357,60.154 L96.357,67.337 L95.639,67.337 z" fill="#0B0B0A"/>
    <path d="M104.955,67.336 L104.955,60.154 L105.111,60.154 L109.891,65.659 L109.891,60.154 L110.599,60.154 L110.599,67.336 L110.438,67.336 L105.697,61.898 L105.697,67.336 L104.955,67.336" fill="#0B0B0A"/>
    <path d="M122.959,61.36 L122.403,61.887 C122.002,61.493 121.564,61.195 121.086,60.99 C120.61,60.787 120.145,60.686 119.693,60.686 C119.129,60.686 118.593,60.824 118.084,61.101 C117.575,61.377 117.18,61.752 116.9,62.227 C116.62,62.699 116.48,63.2 116.48,63.728 C116.48,64.268 116.625,64.782 116.915,65.268 C117.205,65.755 117.605,66.137 118.116,66.416 C118.626,66.694 119.187,66.833 119.795,66.833 C120.535,66.833 121.16,66.625 121.67,66.208 C122.181,65.791 122.484,65.251 122.579,64.587 L120.289,64.587 L120.289,63.894 L123.384,63.894 C123.377,65.004 123.048,65.885 122.395,66.537 C121.743,67.191 120.87,67.517 119.776,67.517 C118.448,67.517 117.396,67.065 116.622,66.159 C116.026,65.463 115.728,64.657 115.728,63.742 C115.728,63.062 115.899,62.429 116.241,61.843 C116.583,61.257 117.051,60.799 117.647,60.469 C118.243,60.138 118.917,59.973 119.668,59.973 C120.277,59.973 120.85,60.082 121.387,60.303 C121.924,60.522 122.449,60.874 122.959,61.36" fill="#0B0B0A"/>
    <path d="M143.277,60.154 L147.394,60.154 L147.394,60.857 L143.995,60.857 L143.995,63.108 L147.364,63.108 L147.364,63.811 L143.995,63.811 L143.995,66.633 L147.364,66.633 L147.364,67.336 L143.277,67.336 L143.277,60.154" fill="#0B0B0A"/>
    <path d="M156.564,60.154 L157.403,60.154 L159.123,62.948 L160.852,60.154 L161.681,60.154 L159.539,63.624 L161.822,67.336 L160.983,67.336 L159.118,64.305 L157.247,67.336 L156.408,67.336 L158.702,63.629 L156.564,60.154" fill="#0B0B0A"/>
    <path d="M171.368,60.857 L171.368,63.293 L172.584,63.308 C173.075,63.308 173.436,63.263 173.663,63.174 C173.891,63.084 174.07,62.94 174.2,62.74 C174.33,62.54 174.396,62.317 174.396,62.071 C174.396,61.829 174.33,61.61 174.2,61.409 C174.07,61.21 173.898,61.068 173.686,60.984 C173.472,60.899 173.123,60.857 172.638,60.857 L171.368,60.857 z M170.65,60.154 L172.081,60.154 C172.901,60.154 173.455,60.19 173.741,60.261 C174.151,60.362 174.486,60.57 174.747,60.883 C175.008,61.198 175.138,61.592 175.138,62.068 C175.138,62.546 175.011,62.941 174.757,63.252 C174.503,63.563 174.153,63.772 173.707,63.879 C173.382,63.957 172.772,63.996 171.881,63.996 L171.368,63.996 L171.368,67.336 L170.65,67.336 L170.65,60.154" fill="#0B0B0A"/>
    <path d="M184.615,60.154 L188.731,60.154 L188.731,60.857 L185.333,60.857 L185.333,63.108 L188.702,63.108 L188.702,63.811 L185.333,63.811 L185.333,66.633 L188.702,66.633 L188.702,67.336 L184.615,67.336 L184.615,60.154" fill="#0B0B0A"/>
    <path d="M198.873,60.857 L198.873,63.298 L200.11,63.308 C200.59,63.308 200.944,63.262 201.174,63.171 C201.404,63.08 201.583,62.935 201.712,62.735 C201.841,62.534 201.905,62.31 201.905,62.063 C201.905,61.822 201.84,61.603 201.71,61.407 C201.579,61.209 201.408,61.069 201.196,60.984 C200.984,60.899 200.632,60.857 200.14,60.857 L198.873,60.857 z M198.155,60.154 L199.586,60.154 C200.384,60.154 200.924,60.186 201.207,60.251 C201.634,60.349 201.98,60.559 202.247,60.879 C202.514,61.2 202.647,61.596 202.647,62.065 C202.647,62.456 202.556,62.8 202.371,63.097 C202.188,63.394 201.925,63.617 201.583,63.769 C201.241,63.92 200.77,63.998 200.167,64.001 L202.75,67.336 L201.862,67.336 L199.279,64.001 L198.873,64.001 L198.873,67.336 L198.155,67.336 L198.155,60.154" fill="#0B0B0A"/>
    <path d="M212.264,60.857 L212.264,60.154 L216.2,60.154 L216.2,60.857 L214.598,60.857 L214.598,67.336 L213.866,67.336 L213.866,60.857 L212.264,60.857" fill="#0B0B0A"/>
    <path d="M225.909,65.998 L226.52,65.632 C226.949,66.423 227.445,66.819 228.009,66.819 C228.25,66.819 228.476,66.762 228.688,66.651 C228.899,66.537 229.061,66.387 229.171,66.198 C229.281,66.01 229.337,65.81 229.337,65.598 C229.337,65.357 229.256,65.121 229.093,64.89 C228.868,64.571 228.458,64.187 227.862,63.737 C227.264,63.285 226.891,62.958 226.744,62.756 C226.49,62.417 226.363,62.051 226.363,61.657 C226.363,61.345 226.438,61.06 226.588,60.803 C226.737,60.546 226.948,60.343 227.221,60.196 C227.492,60.047 227.787,59.973 228.106,59.973 C228.445,59.973 228.762,60.057 229.057,60.225 C229.351,60.392 229.662,60.7 229.991,61.15 L229.405,61.594 C229.135,61.236 228.904,61 228.715,60.886 C228.523,60.772 228.316,60.715 228.092,60.715 C227.802,60.715 227.565,60.803 227.381,60.979 C227.197,61.155 227.105,61.371 227.105,61.628 C227.105,61.784 227.138,61.936 227.203,62.082 C227.269,62.229 227.387,62.388 227.56,62.561 C227.654,62.652 227.963,62.891 228.487,63.279 C229.109,63.737 229.535,64.146 229.767,64.504 C229.998,64.863 230.113,65.222 230.113,65.583 C230.113,66.104 229.916,66.557 229.52,66.941 C229.125,67.324 228.644,67.517 228.077,67.517 C227.641,67.517 227.245,67.401 226.891,67.168 C226.536,66.935 226.209,66.545 225.909,65.998" fill="#0B0B0A"/>
    <path d="M152.515,8.614 C152.136,8.29 151.565,8.334 151.241,8.713 C151.241,8.713 150.996,8.999 150.59,9.387 C150.188,9.778 149.613,10.264 148.977,10.627 C148.626,10.837 148.253,10.995 147.911,11.096 C148.025,10.99 148.148,10.88 148.259,10.777 C149.536,9.587 150.565,8.559 151.277,7.829 C151.984,7.086 152.388,6.662 152.388,6.662 C152.39,6.66 152.394,6.655 152.396,6.653 C152.658,6.369 152.639,5.926 152.354,5.664 C152.07,5.402 151.627,5.421 151.365,5.706 L151.346,5.727 C151.346,5.727 150.96,6.146 150.286,6.88 C149.599,7.609 148.603,8.64 147.366,9.834 C147.154,10.037 146.926,10.251 146.701,10.464 C146.701,10.462 146.701,10.461 146.702,10.459 C146.81,9.787 147.081,8.91 147.535,8.139 C147.638,7.941 147.772,7.762 147.896,7.583 C148.012,7.397 148.17,7.247 148.298,7.085 C148.424,6.921 148.587,6.797 148.718,6.661 C148.848,6.524 148.995,6.42 149.125,6.318 C149.378,6.105 149.618,5.966 149.782,5.865 C149.946,5.763 150.039,5.705 150.039,5.705 L150.083,5.678 C150.091,5.672 150.1,5.667 150.109,5.66 C150.333,5.499 150.384,5.186 150.223,4.962 C150.062,4.738 149.749,4.686 149.525,4.848 C149.525,4.848 149.423,4.921 149.244,5.049 C149.065,5.177 148.806,5.354 148.533,5.616 C148.393,5.742 148.237,5.872 148.098,6.039 C147.958,6.203 147.789,6.357 147.656,6.552 C147.522,6.745 147.36,6.927 147.243,7.144 C147.117,7.355 146.983,7.565 146.883,7.793 C146.438,8.685 146.215,9.655 146.148,10.384 C146.13,10.557 146.119,10.716 146.114,10.86 C146.014,10.934 145.951,11.045 145.941,11.168 C145.04,11.995 144.057,12.859 142.991,13.729 C143.009,13.602 143.025,13.481 143.048,13.337 C143.195,12.452 143.475,11.282 143.924,10.196 C144.148,9.653 144.418,9.137 144.709,8.686 C144.868,8.473 145,8.248 145.161,8.068 C145.324,7.891 145.465,7.71 145.615,7.568 C145.923,7.291 146.181,7.068 146.39,6.955 C146.587,6.826 146.7,6.752 146.7,6.752 L146.779,6.7 C146.79,6.693 146.8,6.685 146.81,6.678 C147.098,6.462 147.156,6.055 146.941,5.768 C146.726,5.48 146.318,5.422 146.031,5.637 C146.031,5.637 145.894,5.74 145.654,5.92 C145.402,6.086 145.098,6.381 144.75,6.746 C144.58,6.931 144.427,7.154 144.251,7.378 C144.078,7.605 143.942,7.869 143.778,8.129 C143.483,8.664 143.226,9.255 143.024,9.86 C142.423,11.639 142.29,13.465 142.262,14.315 C141.665,14.781 141.049,15.234 140.337,15.781 C140.399,15.454 140.473,15.113 140.564,14.775 C140.756,14.04 141.025,13.337 141.292,12.869 C141.432,12.64 141.543,12.448 141.643,12.337 C141.734,12.218 141.786,12.151 141.786,12.151 L141.821,12.106 C141.829,12.096 141.836,12.086 141.843,12.075 C141.995,11.844 141.93,11.533 141.699,11.382 C141.468,11.23 141.158,11.295 141.006,11.526 C141.006,11.526 140.946,11.618 140.84,11.778 C140.727,11.936 140.61,12.175 140.47,12.46 C140.204,13.036 139.981,13.825 139.843,14.615 C139.708,15.358 139.647,16.097 139.618,16.677 C139.483,16.885 139.358,17.086 139.225,17.271 C139.063,17.503 138.955,17.639 138.74,17.817 L138.091,18.384 C136.824,19.472 135.536,20.549 134.245,21.496 C134.736,20.493 135.423,19.128 136.158,17.787 C136.858,16.506 137.607,15.252 138.223,14.402 C138.53,13.973 138.8,13.668 138.984,13.469 C139.162,13.324 139.253,13.235 139.253,13.235 L139.409,13.084 C139.411,13.081 139.414,13.078 139.417,13.075 C139.764,12.723 139.761,12.157 139.409,11.81 C139.058,11.462 138.491,11.466 138.144,11.818 C138.144,11.818 137.976,11.988 137.682,12.286 C137.447,12.578 137.142,12.995 136.843,13.493 C136.237,14.49 135.578,15.834 134.968,17.196 C133.936,19.496 133.044,21.831 132.792,22.5 C132.11,22.919 131.452,23.324 130.81,23.719 C131.229,22.779 131.831,21.455 132.47,20.149 C133.057,18.949 133.676,17.764 134.182,16.948 C134.305,16.734 134.43,16.575 134.533,16.417 C134.638,16.248 134.729,16.176 134.8,16.078 C134.888,15.958 134.883,16.02 134.899,15.987 C134.909,15.976 134.912,15.965 134.912,15.965 L135.13,15.148 C135.186,14.933 135.141,14.695 134.988,14.512 C134.736,14.21 134.287,14.17 133.986,14.422 C133.986,14.422 133.927,14.47 133.818,14.562 C133.728,14.644 133.514,14.828 133.442,14.959 C133.347,15.103 133.191,15.296 133.094,15.486 C132.988,15.681 132.85,15.904 132.74,16.14 C132.262,17.089 131.741,18.348 131.252,19.618 C130.435,21.742 129.713,23.883 129.499,24.525 C128.892,24.899 128.303,25.261 127.757,25.597 C124.805,27.413 122.837,28.623 122.837,28.623 C122.664,28.731 122.607,28.959 122.712,29.135 C122.818,29.313 123.049,29.37 123.226,29.264 C123.226,29.264 125.215,28.088 128.197,26.323 C128.761,25.99 129.369,25.63 129.997,25.258 C130.009,25.254 130.018,25.245 130.029,25.24 C130.495,24.963 130.975,24.679 131.471,24.386 C131.634,24.484 131.878,24.627 132.193,24.797 C132.756,25.104 133.523,25.489 134.322,25.817 C135.12,26.15 135.952,26.424 136.596,26.59 C137.239,26.761 137.69,26.828 137.69,26.828 L137.742,26.836 C137.783,26.842 137.825,26.845 137.867,26.845 C138.366,26.847 138.772,26.444 138.774,25.944 C138.776,25.445 138.373,25.039 137.874,25.038 C137.874,25.038 137.491,25.036 136.904,24.966 C136.319,24.901 135.53,24.761 134.747,24.558 C133.962,24.359 133.186,24.098 132.612,23.884 C132.546,23.859 132.495,23.839 132.435,23.816 C132.719,23.647 133.001,23.481 133.292,23.309 C133.714,23.048 134.13,22.769 134.544,22.483 C134.708,22.561 134.939,22.665 135.217,22.777 C135.786,23.009 136.563,23.276 137.373,23.459 C138.181,23.648 139.022,23.749 139.664,23.768 C139.985,23.781 140.255,23.776 140.444,23.764 C140.634,23.756 140.743,23.751 140.743,23.751 C140.785,23.749 140.832,23.744 140.875,23.736 C141.365,23.642 141.686,23.168 141.592,22.678 C141.498,22.187 141.024,21.866 140.534,21.96 L140.488,21.969 C140.488,21.969 140.4,21.986 140.248,22.015 C140.096,22.049 139.876,22.087 139.605,22.116 C139.067,22.181 138.328,22.206 137.58,22.146 C136.832,22.092 136.081,21.955 135.527,21.821 C135.51,21.817 135.497,21.813 135.48,21.809 C136.474,21.076 137.452,20.296 138.422,19.497 C138.475,19.501 138.533,19.507 138.603,19.513 C138.701,19.525 138.811,19.538 138.931,19.553 C139.42,19.623 140.092,19.763 140.77,19.911 C141.448,20.058 142.132,20.211 142.67,20.306 C143.199,20.406 143.617,20.436 143.617,20.436 L143.658,20.439 C143.711,20.442 143.766,20.441 143.821,20.434 C144.317,20.377 144.674,19.928 144.616,19.431 C144.559,18.934 144.109,18.578 143.613,18.636 C143.613,18.636 143.335,18.668 142.829,18.661 C142.33,18.658 141.639,18.625 140.94,18.593 C140.462,18.571 139.983,18.553 139.549,18.547 C139.76,18.364 139.981,18.119 140.124,17.912 C140.478,17.421 140.772,16.916 141.082,16.637 C141.536,16.307 142.055,15.936 142.571,15.555 C142.592,15.574 142.612,15.594 142.634,15.613 C142.764,15.706 142.92,15.811 143.085,15.877 C143.754,16.18 144.63,16.266 145.483,16.233 C146.338,16.201 147.172,16.045 147.786,15.892 C148.402,15.742 148.801,15.602 148.801,15.602 L148.848,15.585 C148.888,15.571 148.928,15.553 148.967,15.533 C149.408,15.299 149.576,14.752 149.342,14.311 C149.108,13.869 148.561,13.702 148.12,13.936 C148.12,13.936 147.791,14.11 147.277,14.319 C146.766,14.532 146.062,14.776 145.343,14.911 C144.632,15.054 143.887,15.068 143.446,14.939 C143.429,14.935 143.418,14.93 143.402,14.925 C143.512,14.84 143.626,14.753 143.732,14.668 C144.835,13.799 145.85,12.938 146.781,12.114 C146.876,12.147 146.964,12.192 147.065,12.21 C147.83,12.348 148.729,12.155 149.547,11.828 C150.37,11.506 151.112,11.044 151.637,10.665 C152.167,10.29 152.493,10.006 152.493,10.006 L152.525,9.978 C152.556,9.951 152.586,9.92 152.614,9.888 C152.938,9.509 152.894,8.938 152.515,8.614" fill="#E77A2B"/>
  </g>
</svg>
