<?xml version="1.0" encoding="UTF-8"?>
<!DOCTYPE svg PUBLIC "-//W3C//DTD SVG 1.1//EN" "http://www.w3.org/Graphics/SVG/1.1/DTD/svg11.dtd">
<svg version="1.1" xmlns="http://www.w3.org/2000/svg" xmlns:xlink="http://www.w3.org/1999/xlink" x="0" y="0" width="690" height="113" viewBox="0, 0, 690, 113">
  <g id="Background">
    <rect x="0" y="0" width="690" height="113" fill="#FEFEFE" fill-opacity="0"/>
  </g>
  <defs>
    <clipPath id="Clip_1">
      <path d="M4.516,40.237 L67.857,40.237 L67.857,110.534 L4.516,110.534 z"/>
    </clipPath>
  </defs>
  <g id="Layer_1">
    <path d="M4.516,87.789 L62.549,51.767 L62.549,4.211 L4.516,40.237 z" fill="#6EBE53"/>
    <g>
      <g clip-path="url(#Clip_1)">
        <path d="M67.857,110.534 L4.515,87.79 L4.515,40.237 L67.857,62.997 z" fill="#9D9FA1"/>
      </g>
      <path d="M675.731,92.398 L676.403,92.398 C677.199,92.398 677.826,92.132 677.826,91.502 C677.826,90.935 677.412,90.571 676.519,90.571 C676.149,90.571 675.883,90.591 675.731,90.635 z M675.702,95.85 L674.275,95.85 L674.275,89.705 C674.838,89.632 675.624,89.515 676.64,89.515 C677.792,89.515 678.317,89.705 678.731,90.005 C679.101,90.258 679.364,90.71 679.364,91.309 C679.364,92.059 678.805,92.55 678.101,92.771 L678.101,92.853 C678.69,93.03 678.99,93.527 679.174,94.346 C679.364,95.275 679.514,95.616 679.63,95.85 L678.133,95.85 C677.94,95.616 677.826,95.091 677.646,94.346 C677.535,93.711 677.158,93.409 676.374,93.409 L675.702,93.409 z M671.911,92.661 C671.911,95.381 673.977,97.563 676.71,97.563 C679.364,97.597 681.392,95.381 681.392,92.694 C681.392,89.964 679.364,87.755 676.64,87.755 C673.977,87.755 671.911,89.964 671.911,92.661 M682.966,92.661 C682.966,96.109 680.191,98.834 676.662,98.834 C673.158,98.834 670.341,96.109 670.341,92.661 C670.341,89.219 673.158,86.521 676.71,86.521 C680.191,86.521 682.966,89.219 682.966,92.661" fill="#9D9FA1"/>
      <path d="M564.537,93.53 C554.982,93.53 544.004,90.726 544.004,68.854 C544.004,51.566 550.112,44.189 564.401,44.189 C573.958,44.189 584.918,47.008 584.918,68.975 C584.918,86.184 578.823,93.53 564.537,93.53 M564.537,38.807 C546.124,38.807 537.548,48.392 537.548,68.975 C537.548,89.483 546.083,99.04 564.401,99.04 C582.816,99.04 591.39,89.447 591.39,68.854 C591.39,48.355 582.861,38.807 564.537,38.807" fill="#9D9FA1"/>
      <path d="M511.368,65.291 C498.877,63.728 494.925,62.853 494.925,54.866 C494.925,48.181 497.434,44.562 510.663,44.562 C515.815,44.562 523.546,45.361 527.268,46.095 L525.907,40.732 C521.233,39.729 515.897,39.183 510.786,39.183 C491.224,39.183 488.592,47.236 488.592,55.12 C488.592,66.787 493.007,68.666 510.416,71.045 C520.791,72.526 525.379,73.513 525.379,81.491 C525.379,90.842 521.648,93.403 508.011,93.403 C502.119,93.403 494.58,92.064 490.367,90.91 L491.851,96.879 C496.811,98.045 503.09,98.79 508.011,98.79 C526.047,98.79 531.842,94.555 531.842,81.366 C531.842,69.975 526.727,67.357 511.368,65.291" fill="#9D9FA1"/>
      <path d="M609.752,40.907 L609.752,26.145 C609.752,17.603 611.547,14.731 623.956,11.592 L622.684,6.16 C606.35,10.021 603.414,14.727 603.414,25.773 L603.414,40.907 L592.51,40.907 L593.904,46.418 L603.414,46.418 L603.414,97.551 L609.752,97.551 L609.752,46.418 L626.161,46.418 L624.754,40.907 z" fill="#9D9FA1"/>
      <path d="M652.078,92.416 C646.755,92.416 646.308,87.746 646.308,82.968 L646.308,46.418 L659.477,46.418 L658.076,40.907 L646.308,40.907 L646.308,19.068 L640.102,20.792 L640.102,40.907 L630.177,40.907 L631.57,46.418 L640.102,46.418 L640.102,83.836 C640.102,93.613 643.589,98.17 651.074,98.17 C654.514,98.17 657.503,97.835 662.787,97.09 L662.211,91.46 C657.901,92.159 655.133,92.416 652.078,92.416" fill="#9D9FA1"/>
      <path d="M170.89,39.075 C162.595,39.075 153.78,43.208 150.39,44.984 L149.357,40.189 L140.265,40.189 L140.265,97.85 L152.39,97.85 L152.39,55.255 C156.375,53.354 163.937,50.673 169.422,50.673 C175.35,50.673 176.633,52.01 176.633,58.192 L176.633,97.85 L188.869,97.85 L188.869,56.759 C188.869,45.024 182.823,39.075 170.89,39.075" fill="#6EBE53"/>
      <path d="M215.72,40.523 L215.72,30.567 C215.72,24.686 215.72,23.108 227.596,20.297 L229.107,19.943 L226.486,8.745 L224.977,9.076 C208.307,12.739 203.485,17.484 203.485,30.228 L203.485,40.523 L193.369,40.523 L196.287,52.018 L203.485,52.018 L203.485,97.851 L215.72,97.851 L215.72,52.018 L232.233,52.018 L232.233,51.429 L229.484,40.523 z" fill="#6EBE53"/>
      <path d="M274.84,82.786 C270.848,84.684 263.284,87.367 257.804,87.367 C251.868,87.367 250.59,86.033 250.59,79.846 L250.59,40.19 L238.349,40.19 L238.349,81.282 C238.349,93.018 244.404,98.961 256.332,98.961 C264.639,98.961 273.446,94.828 276.837,93.059 L277.865,97.85 L286.957,97.85 L286.957,40.19 L274.84,40.19 z" fill="#6EBE53"/>
      <path d="M117.168,97.851 L129.406,97.851 L129.406,15.787 L117.168,19.294 z" fill="#6EBE53"/>
      <path d="M347.974,36.379 L360.21,32.924 L360.21,19.023 L347.974,22.289 z" fill="#6EBE53"/>
      <path d="M394.7,87.698 C387.054,87.698 379.582,86.242 379.582,68.855 C379.582,53.097 385.086,50.013 394.586,50.013 C402.24,50.013 409.711,51.477 409.711,68.964 C409.711,84.631 404.207,87.698 394.7,87.698 M394.7,38.637 C376.217,38.637 367.231,48.557 367.231,68.964 C367.231,89.296 376.18,99.183 394.586,99.183 C413.077,99.183 422.057,89.266 422.057,68.855 C422.057,48.525 413.108,38.637 394.7,38.637" fill="#6EBE53"/>
      <path d="M458.992,39.075 C450.696,39.075 441.883,43.208 438.488,44.984 L437.452,40.189 L428.361,40.189 L428.361,97.85 L440.481,97.85 L440.481,55.255 C444.006,53.582 451.634,50.673 457.521,50.673 C463.457,50.673 464.736,52.01 464.736,58.192 L464.736,97.85 L476.971,97.85 L476.971,56.759 C476.971,45.024 470.92,39.075 458.992,39.075" fill="#6EBE53"/>
      <path d="M347.974,97.851 L360.21,97.851 L360.21,39.148 L347.974,42.653 z" fill="#6EBE53"/>
      <path d="M319.008,62.635 C307.113,61.144 307.113,60.524 307.113,56.527 C307.113,53.066 307.113,50.566 317.947,50.566 C322.701,50.566 330.271,51.385 332.86,52.018 L337.451,53.537 L334.298,41.124 L333.958,41.042 C329.244,39.866 323.443,39.191 318.053,39.191 C302.245,39.191 294.881,44.776 294.881,56.759 C294.881,70.57 302.559,72.267 317.278,74.279 C327.475,75.73 327.865,76.665 327.865,80.4 C327.865,85.327 327.865,87.802 315.574,87.802 C309.952,87.802 301.948,86.247 299.119,85.215 L295.15,83.864 L298.378,96.879 L298.715,96.966 C303.552,98.297 310.325,99.182 315.574,99.182 C330.785,99.182 340.211,96.027 340.211,80.285 C340.211,67.696 333.376,64.564 319.008,62.635" fill="#6EBE53"/>
    </g>
  </g>
</svg>
