<?xml version="1.0" encoding="UTF-8"?>
<!DOCTYPE svg PUBLIC "-//W3C//DTD SVG 1.1//EN" "http://www.w3.org/Graphics/SVG/1.1/DTD/svg11.dtd">
<svg version="1.1" xmlns="http://www.w3.org/2000/svg" xmlns:xlink="http://www.w3.org/1999/xlink" x="0" y="0" width="263" height="263" viewBox="0, 0, 263, 263">
  <g id="Background">
    <rect x="0" y="0" width="263" height="263" fill="#FFFFFF"/>
  </g>
  <g id="Layer_1">
    <g>
      <path d="M188.92,155.478 C179.827,151.89 171.553,143.439 170.706,131.015 C170.082,121.801 173.695,114.814 177.793,110.103 C179.786,107.813 182.45,105.529 185.553,103.864 C188.608,102.211 192.399,101.009 196.687,100.658 C210.145,99.553 220.058,107.319 224.35,115.669 C227.039,120.903 228.247,127.256 227.217,133.554 C224.613,149.458 207.197,162.704 188.92,155.478 M134.944,156.825 C119.814,159.594 108.192,150.402 103.903,139.956 C101.511,134.129 100.915,126.072 103.4,119.378 C106.567,110.873 113.174,104.202 122.46,101.668 C125.657,100.796 129.011,100.314 131.91,98.965 C135.845,97.144 139.208,93.065 139.16,87.503 C139.138,84.738 138.019,82.391 137.307,79.905 C136.577,77.345 135.996,74.801 135.789,71.979 C135.362,66.304 136.694,60.841 138.996,56.627 C140.977,52.999 143.991,49.347 147.933,46.674 C151.732,44.096 156.544,42.386 162.447,41.954 C170.225,41.375 177.501,44.587 182.013,48.358 C186.64,52.246 190.212,57.225 191.628,64.559 C194.709,80.577 184.899,92.792 173.574,96.778 C170.135,97.98 165.448,98.226 162.108,99.816 C158.678,101.436 155.543,104.732 155.017,109.764 C154.63,113.532 156.096,117.224 156.875,120.225 C157.717,123.458 158.566,126.771 158.224,131.189 C157.168,144.739 147.216,154.581 134.944,156.825 M85.853,109.764 C85.467,113.532 86.926,117.224 87.71,120.225 C88.553,123.458 89.402,126.771 89.056,131.189 C88.009,144.739 78.048,154.581 65.782,156.825 C50.647,159.594 39.033,150.402 34.744,139.956 C32.344,134.129 31.748,126.072 34.237,119.378 C37.402,110.873 44.007,104.202 53.295,101.668 C56.498,100.796 59.843,100.314 62.741,98.965 C66.683,97.144 70.045,93.065 70,87.503 C69.979,84.738 68.851,82.391 68.14,79.905 C67.409,77.345 66.837,74.801 66.625,71.979 C66.196,66.304 67.528,60.841 69.831,56.627 C71.816,52.999 74.836,49.347 78.772,46.674 C82.564,44.096 87.382,42.386 93.277,41.954 C101.062,41.375 108.342,44.587 112.845,48.358 C117.476,52.246 121.048,57.225 122.46,64.559 C125.55,80.577 115.726,92.792 104.411,96.778 C100.976,97.98 96.289,98.226 92.939,99.816 C89.516,101.436 86.374,104.732 85.853,109.764 M131.367,0 C58.818,0 -0,58.814 -0,131.367 C-0,203.913 58.818,262.721 131.367,262.721 C203.918,262.721 262.731,203.913 262.731,131.367 C262.731,58.814 203.918,0 131.367,0" fill="#00B3E2"/>
      <path d="M41.46,195.235 L37.201,195.235 L37.201,182.292 C37.201,177.206 39.847,174.27 45.595,174.27 C48.779,174.27 50.764,175.387 51.798,177.289 C52.873,175.387 54.899,174.27 58,174.27 C63.955,174.27 66.353,177.123 66.353,182.292 L66.353,195.235 L62.094,195.235 L62.094,182.292 C62.094,179.687 61.35,178.24 58,178.24 C54.609,178.24 53.824,179.687 53.824,182.292 L53.824,195.235 L49.689,195.235 L49.689,182.292 C49.689,179.687 48.986,178.24 45.595,178.24 C42.204,178.24 41.46,179.687 41.46,182.292 z" fill="#FFFFFE"/>
      <path d="M74.665,183.078 L84.341,183.078 L84.341,182.044 C84.341,179.233 82.563,177.95 79.461,177.95 C76.36,177.95 74.665,179.233 74.665,182.044 z M87.939,186.552 L74.665,186.552 L74.665,187.461 C74.665,190.48 76.402,191.679 80.578,191.679 C82.977,191.679 86.119,191.142 87.649,190.48 L87.649,194.491 C85.747,195.277 82.977,195.69 80.578,195.69 C73.714,195.69 70.406,193.168 70.406,186.841 L70.406,183.243 C70.406,178.075 72.68,174.27 79.586,174.27 C85.292,174.27 88.352,177.165 88.352,182.83 C88.352,183.781 88.269,185.394 87.939,186.552" fill="#FFFFFE"/>
      <path d="M92.074,166.289 L96.334,166.289 L96.334,188.619 C96.334,190.934 97.036,191.554 98.277,191.554 C98.773,191.554 99.394,191.513 99.848,191.306 L99.848,195.193 C99.269,195.441 98.525,195.565 97.574,195.565 C94.514,195.565 92.074,193.87 92.074,189.446 z" fill="#FFFFFE"/>
      <path d="M100.881,175.387 L104.479,174.725 L105.182,169.35 L108.696,169.35 L108.696,174.725 L116.222,174.725 L116.222,178.695 L108.696,178.695 L108.696,188.082 C108.696,190.811 109.978,191.679 111.922,191.679 C113.783,191.679 115.768,191.307 116.967,190.811 L116.967,194.78 C115.603,195.359 113.865,195.649 111.922,195.649 C107.621,195.649 104.479,193.788 104.479,188.04 L104.479,178.695 L100.881,178.695 z" fill="#FFFFFE"/>
      <path d="M124.121,195.235 L119.862,195.235 L119.862,182.292 C119.862,177.206 122.508,174.27 128.256,174.27 C131.44,174.27 133.425,175.387 134.459,177.289 C135.534,175.387 137.56,174.27 140.662,174.27 C146.616,174.27 149.014,177.123 149.014,182.292 L149.014,195.235 L144.755,195.235 L144.755,182.292 C144.755,179.687 144.011,178.24 140.662,178.24 C137.271,178.24 136.485,179.687 136.485,182.292 L136.485,195.235 L132.35,195.235 L132.35,182.292 C132.35,179.687 131.647,178.24 128.256,178.24 C124.865,178.24 124.121,179.687 124.121,182.292 z" fill="#FFFFFE"/>
      <path d="M157.326,183.078 L167.003,183.078 L167.003,182.044 C167.003,179.233 165.224,177.95 162.123,177.95 C159.021,177.95 157.326,179.233 157.326,182.044 z M170.6,186.552 L157.326,186.552 L157.326,187.461 C157.326,190.48 159.063,191.679 163.239,191.679 C165.638,191.679 168.781,191.142 170.31,190.48 L170.31,194.491 C168.408,195.277 165.638,195.69 163.239,195.69 C156.375,195.69 153.067,193.168 153.067,186.841 L153.067,183.243 C153.067,178.075 155.342,174.27 162.247,174.27 C167.954,174.27 171.014,177.165 171.014,182.83 C171.014,183.781 170.931,185.394 170.6,186.552" fill="#FFFFFE"/>
      <path d="M178.828,186.758 C178.828,189.983 179.697,191.679 183.997,191.679 C188.256,191.679 189.249,189.983 189.249,186.758 L189.249,183.202 C189.249,179.976 188.256,178.24 183.997,178.24 C179.779,178.24 178.828,179.976 178.828,183.202 z M193.467,186.841 C193.467,192.878 189.827,195.69 184.039,195.69 C177.753,195.69 174.569,192.878 174.569,186.841 L174.569,183.284 C174.569,177.619 177.215,174.27 183.212,174.27 C186.355,174.27 188.215,175.304 189.249,176.958 L189.249,166.289 L193.467,166.289 z" fill="#FFFFFE"/>
      <path d="M198.056,174.725 L202.316,174.725 L202.316,195.235 L198.056,195.235 z M200.207,165.793 C201.654,165.793 202.812,166.992 202.812,168.399 C202.812,169.846 201.654,171.004 200.207,171.004 C198.76,171.004 197.561,169.846 197.561,168.399 C197.561,166.951 198.76,165.793 200.207,165.793" fill="#FFFFFE"/>
      <path d="M218.939,186.303 L214.39,186.303 C211.579,186.303 210.214,187.13 210.214,189.239 C210.214,191.679 212.157,192.092 214.266,192.092 C216.955,192.092 218.939,191.679 218.939,188.867 z M223.157,189.074 C223.157,193.622 220.469,195.69 214.349,195.69 C208.974,195.69 205.955,193.705 205.955,189.322 C205.955,184.69 209.222,183.078 214.39,183.078 L218.939,183.078 L218.939,181.052 C218.939,178.488 216.996,177.909 214.06,177.909 C211.62,177.909 209.511,178.198 208.188,178.695 L208.188,174.973 C209.677,174.477 211.579,174.27 213.812,174.27 C219.394,174.27 223.157,175.883 223.157,181.052 z" fill="#FFFFFE"/>
    </g>
  </g>
</svg>
