<?xml version="1.0" encoding="UTF-8"?>
<!DOCTYPE svg PUBLIC "-//W3C//DTD SVG 1.1//EN" "http://www.w3.org/Graphics/SVG/1.1/DTD/svg11.dtd">
<svg version="1.1" xmlns="http://www.w3.org/2000/svg" xmlns:xlink="http://www.w3.org/1999/xlink" x="0" y="0" width="42.7" height="16" viewBox="0, 0, 427, 160">
  <g id="Background">
    <rect x="0" y="0" width="427" height="160" fill="#000000" fill-opacity="0"/>
  </g>
  <g id="Layer_1">
    <path d="M151.27,62.739 C152.768,62.739 154.202,62.551 155.571,62.176 C156.939,61.802 158.148,61.202 159.198,60.377 C160.247,59.553 161.09,58.513 161.728,57.256 C162.365,56 162.684,54.492 162.684,52.729 C162.646,49.881 161.785,47.66 160.097,46.066 C158.41,44.473 155.655,43.676 151.832,43.676 L136.255,43.676 L136.255,62.739 L151.27,62.739 z M135.131,82.701 L135.131,42.552 L151.55,42.552 C155.748,42.552 158.823,43.386 160.772,45.054 C162.721,46.722 163.733,49.319 163.809,52.842 C163.883,55.541 163.171,57.781 161.672,59.562 C160.172,61.342 158.017,62.551 155.206,63.189 L155.206,63.301 C156.892,63.526 158.261,63.929 159.31,64.51 C160.359,65.091 161.166,65.851 161.728,66.787 C162.29,67.725 162.665,68.831 162.853,70.105 C163.04,71.38 163.134,72.823 163.134,74.435 C163.134,74.997 163.152,75.7 163.19,76.544 C163.227,77.387 163.283,78.221 163.359,79.046 C163.434,79.871 163.528,80.62 163.64,81.295 C163.753,81.97 163.902,82.439 164.09,82.701 L162.853,82.701 C162.665,82.289 162.515,81.736 162.403,81.042 C162.29,80.349 162.206,79.608 162.15,78.821 C162.094,78.034 162.056,77.237 162.038,76.431 C162.018,75.625 162.01,74.904 162.01,74.266 C162.01,72.617 161.887,71.145 161.644,69.852 C161.4,68.559 160.903,67.472 160.154,66.59 C159.404,65.71 158.335,65.035 156.948,64.566 C155.561,64.098 153.706,63.863 151.382,63.863 L136.255,63.863 L136.255,82.701 L135.131,82.701" fill="#FFFFFF"/>
    <path d="M196.929,81.576 L196.929,82.701 L170.05,82.701 L170.05,42.552 L196.704,42.552 L196.704,43.676 L171.174,43.676 L171.174,61.22 L195.185,61.22 L195.185,62.345 L171.174,62.345 L171.174,81.576 L196.929,81.576" fill="#FFFFFF"/>
    <path d="M233.084,73.675 C232.147,75.719 230.938,77.471 229.457,78.933 C227.976,80.395 226.224,81.539 224.2,82.363 C222.175,83.187 219.889,83.6 217.34,83.6 C214.678,83.6 212.231,83.085 210.001,82.054 C207.77,81.023 205.859,79.599 204.266,77.78 C202.672,75.962 201.426,73.788 200.527,71.258 C199.627,68.727 199.177,65.963 199.177,62.963 C199.177,60.527 199.523,58.044 200.217,55.513 C200.91,52.982 202.007,50.687 203.507,48.625 C205.005,46.563 206.955,44.876 209.355,43.564 C211.753,42.252 214.659,41.596 218.071,41.596 C220.732,41.596 223.056,42.037 225.043,42.917 C227.03,43.799 228.688,44.904 230.019,46.235 C231.35,47.566 232.353,48.981 233.028,50.48 C233.703,51.98 234.058,53.348 234.096,54.585 L232.972,54.585 C232.859,53.123 232.428,51.689 231.678,50.284 C230.928,48.878 229.907,47.612 228.614,46.488 C227.321,45.363 225.783,44.455 224.003,43.76 C222.222,43.068 220.244,42.721 218.071,42.721 C214.771,42.721 211.988,43.386 209.72,44.717 C207.452,46.048 205.624,47.716 204.238,49.721 C202.851,51.727 201.848,53.91 201.23,56.272 C200.611,58.634 200.302,60.865 200.302,62.963 C200.302,65.513 200.676,67.968 201.426,70.33 C202.176,72.692 203.282,74.772 204.744,76.572 C206.206,78.371 207.995,79.814 210.114,80.901 C212.231,81.989 214.64,82.532 217.34,82.532 C219.738,82.532 221.894,82.138 223.806,81.351 C225.718,80.564 227.367,79.477 228.755,78.09 C230.141,76.703 231.265,75.053 232.128,73.141 C232.99,71.229 233.571,69.169 233.871,66.956 L234.996,66.956 C234.658,69.393 234.021,71.633 233.084,73.675" fill="#FFFFFF"/>
    <path d="M256.026,62.739 C257.525,62.739 258.959,62.551 260.328,62.176 C261.696,61.802 262.905,61.202 263.955,60.377 C265.004,59.553 265.847,58.513 266.485,57.256 C267.122,56 267.441,54.492 267.441,52.729 C267.403,49.881 266.542,47.66 264.854,46.066 C263.167,44.473 260.412,43.676 256.589,43.676 L241.012,43.676 L241.012,62.739 L256.026,62.739 z M239.888,82.701 L239.888,42.552 L256.307,42.552 C260.505,42.552 263.58,43.386 265.529,45.054 C267.478,46.722 268.49,49.319 268.566,52.842 C268.64,55.541 267.928,57.781 266.429,59.562 C264.929,61.342 262.774,62.551 259.962,63.189 L259.962,63.301 C261.649,63.526 263.018,63.929 264.067,64.51 C265.116,65.091 265.923,65.851 266.485,66.787 C267.047,67.725 267.422,68.831 267.61,70.105 C267.797,71.38 267.891,72.823 267.891,74.435 C267.891,74.997 267.909,75.7 267.947,76.544 C267.984,77.387 268.04,78.221 268.116,79.046 C268.191,79.871 268.285,80.62 268.397,81.295 C268.509,81.97 268.659,82.439 268.847,82.701 L267.61,82.701 C267.422,82.289 267.272,81.736 267.16,81.042 C267.047,80.349 266.963,79.608 266.907,78.821 C266.851,78.034 266.813,77.237 266.795,76.431 C266.775,75.625 266.767,74.904 266.767,74.266 C266.767,72.617 266.644,71.145 266.401,69.852 C266.157,68.559 265.66,67.472 264.911,66.59 C264.16,65.71 263.092,65.035 261.705,64.566 C260.318,64.098 258.463,63.863 256.139,63.863 L241.012,63.863 L241.012,82.701 L239.888,82.701" fill="#FFFFFF"/>
    <path d="M304.272,42.552 L304.272,67.743 C304.272,73.141 303.016,77.134 300.504,79.72 C297.993,82.307 294.338,83.6 289.539,83.6 C284.74,83.6 281.086,82.307 278.575,79.72 C276.062,77.134 274.807,73.141 274.807,67.743 L274.807,42.552 L275.931,42.552 L275.931,67.743 C275.931,72.579 277.037,76.253 279.249,78.765 C281.461,81.276 284.891,82.532 289.539,82.532 C294.188,82.532 297.617,81.276 299.83,78.765 C302.041,76.253 303.148,72.579 303.148,67.743 L303.148,42.552 L304.272,42.552" fill="#FFFFFF"/>
    <path d="M310.906,42.552 L312.031,42.552 L312.031,82.701 L310.906,82.701 z" fill="#FFFFFF"/>
    <path d="M314.73,42.552 L344.701,42.552 L344.701,43.676 L330.25,43.676 L330.25,82.701 L329.125,82.701 L329.125,43.676 L314.73,43.676 L314.73,42.552" fill="#FFFFFF"/>
    <path d="M347.344,42.552 L348.468,42.552 L348.468,82.701 L347.344,82.701 z" fill="#FFFFFF"/>
    <path d="M356.79,42.552 L384.231,81.295 L384.343,81.295 L384.343,42.552 L385.468,42.552 L385.468,82.701 L383.781,82.701 L356.34,43.958 L356.227,43.958 L356.227,82.701 L355.103,82.701 L355.103,42.552 L356.79,42.552" fill="#FFFFFF"/>
    <path d="M410.266,63.919 L426.965,63.919 L426.965,82.701 L425.842,82.701 L425.842,72.748 L425.73,72.748 C424.642,76.159 422.693,78.821 419.881,80.732 C417.069,82.645 413.676,83.6 409.704,83.6 C406.629,83.6 403.911,83.047 401.55,81.942 C399.188,80.837 397.22,79.337 395.646,77.443 C394.071,75.55 392.881,73.329 392.075,70.78 C391.268,68.231 390.866,65.513 390.866,62.626 C390.866,59.702 391.296,56.957 392.159,54.388 C393.021,51.821 394.258,49.59 395.871,47.697 C397.482,45.804 399.45,44.314 401.775,43.227 C404.098,42.14 406.742,41.596 409.704,41.596 C411.953,41.596 414.023,41.915 415.917,42.552 C417.81,43.189 419.478,44.098 420.921,45.279 C422.364,46.46 423.545,47.876 424.464,49.525 C425.382,51.174 426.011,53.03 426.347,55.091 L425.223,55.091 C424.885,53.217 424.276,51.52 423.396,50.002 C422.514,48.484 421.408,47.182 420.078,46.094 C418.747,45.007 417.21,44.173 415.467,43.592 C413.724,43.011 411.802,42.721 409.704,42.721 C406.892,42.721 404.39,43.246 402.197,44.295 C400.003,45.345 398.148,46.769 396.63,48.568 C395.112,50.368 393.958,52.477 393.171,54.895 C392.384,57.312 391.991,59.89 391.991,62.626 C391.991,65.363 392.365,67.94 393.115,70.358 C393.865,72.776 394.989,74.885 396.489,76.684 C397.988,78.483 399.853,79.909 402.084,80.958 C404.314,82.007 406.91,82.532 409.872,82.532 C412.084,82.532 414.164,82.148 416.114,81.379 C418.062,80.611 419.759,79.543 421.203,78.174 C422.645,76.806 423.78,75.175 424.604,73.282 C425.428,71.39 425.842,69.337 425.842,67.125 L425.842,65.044 L410.266,65.044 L410.266,63.919" fill="#FFFFFF"/>
    <path d="M163.359,98.783 L148.064,138.932 L146.827,138.932 L131.139,98.783 L132.207,98.783 L147.39,137.47 L147.502,137.47 L162.234,98.783 L163.359,98.783" fill="#FFFFFF"/>
    <path d="M192.824,137.807 L192.824,138.932 L165.945,138.932 L165.945,98.783 L192.599,98.783 L192.599,99.907 L167.07,99.907 L167.07,117.451 L191.08,117.451 L191.08,118.576 L167.07,118.576 L167.07,137.807 L192.824,137.807" fill="#FFFFFF"/>
    <path d="M198.39,98.783 L225.831,137.526 L225.943,137.526 L225.943,98.783 L227.068,98.783 L227.068,138.932 L225.38,138.932 L197.94,100.189 L197.827,100.189 L197.827,138.932 L196.703,138.932 L196.703,98.783 L198.39,98.783" fill="#FFFFFF"/>
    <path d="M229.767,98.783 L259.738,98.783 L259.738,99.907 L245.286,99.907 L245.286,138.932 L244.162,138.932 L244.162,99.907 L229.767,99.907 L229.767,98.783" fill="#FFFFFF"/>
    <path d="M291.846,98.783 L291.846,123.974 C291.846,129.372 290.589,133.365 288.078,135.951 C285.566,138.538 281.911,139.831 277.113,139.831 C272.314,139.831 268.659,138.538 266.148,135.951 C263.636,133.365 262.38,129.372 262.38,123.974 L262.38,98.783 L263.505,98.783 L263.505,123.974 C263.505,128.81 264.611,132.484 266.823,134.996 C269.035,137.507 272.464,138.763 277.113,138.763 C281.761,138.763 285.191,137.507 287.404,134.996 C289.615,132.484 290.721,128.81 290.721,123.974 L290.721,98.783 L291.846,98.783" fill="#FFFFFF"/>
    <path d="M314.619,118.97 C316.117,118.97 317.551,118.783 318.92,118.407 C320.288,118.033 321.497,117.433 322.547,116.608 C323.596,115.784 324.44,114.744 325.077,113.487 C325.715,112.231 326.033,110.723 326.033,108.96 C325.995,106.112 325.134,103.891 323.447,102.297 C321.76,100.704 319.004,99.907 315.181,99.907 L299.605,99.907 L299.605,118.97 L314.619,118.97 z M298.48,138.932 L298.48,98.783 L314.9,98.783 C319.098,98.783 322.172,99.617 324.122,101.285 C326.07,102.953 327.082,105.55 327.158,109.073 C327.233,111.772 326.52,114.013 325.021,115.793 C323.522,117.573 321.366,118.783 318.555,119.42 L318.555,119.532 C320.242,119.757 321.61,120.16 322.66,120.741 C323.709,121.322 324.515,122.082 325.077,123.018 C325.64,123.956 326.014,125.062 326.202,126.336 C326.389,127.611 326.483,129.054 326.483,130.665 C326.483,131.228 326.502,131.931 326.539,132.775 C326.577,133.618 326.633,134.452 326.708,135.276 C326.783,136.102 326.877,136.851 326.99,137.526 C327.102,138.201 327.251,138.67 327.439,138.932 L326.202,138.932 C326.014,138.52 325.864,137.967 325.752,137.273 C325.64,136.58 325.556,135.839 325.499,135.052 C325.443,134.265 325.405,133.468 325.387,132.662 C325.367,131.856 325.359,131.135 325.359,130.497 C325.359,128.848 325.236,127.376 324.993,126.083 C324.749,124.79 324.253,123.703 323.503,122.822 C322.753,121.941 321.684,121.266 320.298,120.797 C318.911,120.329 317.055,120.094 314.731,120.094 L299.605,120.094 L299.605,138.932 L298.48,138.932" fill="#FFFFFF"/>
    <path d="M360.278,137.807 L360.278,138.932 L333.399,138.932 L333.399,98.783 L360.053,98.783 L360.053,99.907 L334.524,99.907 L334.524,117.451 L358.534,117.451 L358.534,118.576 L334.524,118.576 L334.524,137.807 L360.278,137.807" fill="#FFFFFF"/>
    <path d="M389.826,104.828 C389.132,103.422 388.214,102.279 387.071,101.397 C385.927,100.517 384.569,99.889 382.994,99.514 C381.42,99.14 379.733,98.951 377.934,98.951 C376.546,98.951 375.103,99.092 373.603,99.373 C372.104,99.654 370.744,100.152 369.527,100.863 C368.308,101.576 367.306,102.522 366.518,103.703 C365.731,104.884 365.338,106.374 365.338,108.173 C365.338,109.972 365.74,111.416 366.546,112.503 C367.352,113.591 368.402,114.471 369.695,115.146 C370.989,115.821 372.46,116.346 374.11,116.72 C375.759,117.096 377.446,117.489 379.171,117.901 C381.045,118.389 382.816,118.857 384.484,119.307 C386.152,119.757 387.605,120.357 388.842,121.107 C390.08,121.857 391.063,122.85 391.794,124.087 C392.526,125.323 392.891,126.992 392.891,129.091 C392.891,131.003 392.478,132.634 391.654,133.983 C390.829,135.333 389.742,136.449 388.392,137.329 C387.043,138.21 385.525,138.848 383.838,139.241 C382.151,139.635 380.445,139.831 378.721,139.831 C376.434,139.831 374.325,139.569 372.395,139.044 C370.464,138.52 368.796,137.686 367.39,136.542 C365.984,135.399 364.897,133.927 364.129,132.128 C363.36,130.328 362.994,128.154 363.032,125.605 L364.157,125.605 C364.157,128.005 364.512,130.039 365.225,131.706 C365.937,133.375 366.94,134.734 368.233,135.783 C369.527,136.832 371.064,137.592 372.844,138.06 C374.624,138.53 376.584,138.763 378.721,138.763 C380.295,138.763 381.86,138.586 383.416,138.229 C384.971,137.873 386.368,137.301 387.605,136.514 C388.842,135.727 389.845,134.714 390.613,133.478 C391.382,132.24 391.766,130.76 391.766,129.035 C391.766,127.011 391.325,125.408 390.445,124.227 C389.564,123.046 388.439,122.11 387.071,121.416 C385.702,120.722 384.184,120.198 382.516,119.841 C380.848,119.486 379.245,119.12 377.709,118.745 C376.096,118.371 374.484,117.977 372.873,117.564 C371.26,117.152 369.808,116.58 368.515,115.849 C367.221,115.118 366.181,114.143 365.394,112.925 C364.607,111.707 364.213,110.123 364.213,108.173 C364.213,106.187 364.625,104.528 365.45,103.197 C366.274,101.867 367.343,100.807 368.655,100.02 C369.967,99.232 371.439,98.67 373.07,98.333 C374.7,97.996 376.321,97.827 377.934,97.827 C379.92,97.827 381.748,98.043 383.416,98.473 C385.084,98.905 386.546,99.598 387.802,100.554 C389.057,101.51 390.06,102.766 390.811,104.321 C391.56,105.877 391.991,107.78 392.104,110.029 L390.979,110.029 C390.903,107.968 390.519,106.233 389.826,104.828" fill="#FFFFFF"/>
    <path d="M59.153,71.182 C57.526,69.768 55.085,69.168 51.829,69.168 L33.973,69.168 L33.973,87.912 L51.829,87.912 C55.085,87.912 57.526,86.663 59.153,85.217 C60.78,83.771 61.594,81.155 61.594,77.9 C61.594,74.767 60.78,72.603 59.153,71.182" fill="#FFFFFF"/>
    <path d="M63.492,123.056 C62.708,120.713 62.228,118.147 62.046,115.31 C61.866,112.479 61.594,109.555 61.233,106.962 C60.749,103.587 59.725,101.161 58.158,99.592 C56.59,98.024 54.03,97.283 50.472,97.283 L33.973,97.283 L33.973,123.056 L19.915,123.056 L19.915,58.625 L56.892,58.625 C59.787,58.625 62.393,58.607 64.713,59.543 C67.033,60.479 69.022,61.515 70.68,63.139 C72.339,64.769 73.604,66.533 74.478,68.67 C75.351,70.812 75.79,73.059 75.79,75.527 C75.79,79.326 73.834,82.583 72.237,85.353 C70.64,88.129 66.774,90.205 63.26,91.651 L63.26,91.832 C65.603,92.317 67.611,93.052 68.757,94.047 C69.901,95.042 71.414,96.218 72.137,97.573 C72.861,98.932 73.677,100.421 74.009,102.05 C74.339,103.677 74.71,105.304 74.831,106.935 C74.89,107.958 75.024,109.162 75.083,110.55 C75.144,111.937 75.285,113.351 75.436,114.799 C75.587,116.246 75.846,118.039 76.179,119.334 C76.508,120.632 77.025,121.884 77.688,123.056 L63.492,123.056 z M98.258,123.056 L77.372,58.625 L91.929,58.625 L106.305,103.141 L106.486,103.141 L120.077,58.625 L120.077,30.509 L-0,30.509 L-0,150 L120.077,150 L120.077,99.26 L114.263,123.056 L98.258,123.056" fill="#FFFFFF"/>
    <path d="M0,6.878 L3.832,6.878 Q6.021,6.878 7.163,7.871 Q7.752,8.39 8.024,9.132 Q8.297,9.875 8.297,10.807 Q8.297,12.74 7.172,13.733 Q6.618,14.226 5.783,14.476 Q4.948,14.727 3.832,14.727 L1.775,14.727 L1.775,20 L0,20 z M3.832,13.268 Q4.491,13.268 4.966,13.092 Q5.44,12.916 5.757,12.617 Q6.442,11.976 6.442,10.798 Q6.442,9.629 5.757,8.979 Q5.08,8.337 3.832,8.337 L1.775,8.337 L1.775,13.268 z" fill="#FFFFFF"/>
    <path d="M11.979,10.156 L13.447,10.156 L13.605,12.081 Q14.019,11.035 14.854,10.473 Q15.68,9.919 16.831,9.919 Q17.429,9.919 17.956,10.068 Q18.211,10.139 18.466,10.257 Q18.721,10.376 18.949,10.534 L18.949,12.187 Q18.448,11.782 17.895,11.598 Q17.35,11.413 16.708,11.413 Q15.205,11.413 14.405,12.362 Q13.605,13.303 13.605,15.104 L13.605,20 L11.979,20 z" fill="#FFFFFF"/>
    <path d="M26.112,20.255 Q24.979,20.255 24.078,19.908 Q23.177,19.561 22.544,18.884 Q21.911,18.207 21.582,17.253 Q21.252,16.3 21.252,15.096 Q21.252,13.856 21.586,12.92 Q21.92,11.984 22.509,11.325 Q23.15,10.613 24.012,10.266 Q24.873,9.919 25.866,9.919 Q26.851,9.919 27.593,10.244 Q28.336,10.569 28.863,11.185 Q29.391,11.8 29.667,12.674 Q29.944,13.549 29.944,14.674 L29.944,15.465 L22.939,15.465 L22.939,15.518 Q22.939,17.126 23.783,18.005 Q24.188,18.427 24.763,18.655 Q25.339,18.884 26.139,18.884 Q26.938,18.884 27.765,18.638 Q28.617,18.383 29.566,17.891 L29.566,19.499 Q29.101,19.692 28.661,19.833 Q28.222,19.974 27.791,20.07 Q27.369,20.167 26.947,20.211 Q26.525,20.255 26.112,20.255 z M28.327,14.199 Q28.31,13.443 28.129,12.903 Q27.949,12.362 27.659,12.028 Q27.343,11.659 26.877,11.475 Q26.411,11.29 25.831,11.29 Q24.645,11.29 23.897,12.063 Q23.142,12.846 23.001,14.208 z" fill="#FFFFFF"/>
    <path d="M36.185,20.255 Q35.798,20.255 35.389,20.215 Q34.98,20.176 34.603,20.105 Q34.26,20.035 33.798,19.912 Q33.337,19.789 32.871,19.64 L32.871,17.97 Q33.434,18.251 33.829,18.405 Q34.225,18.559 34.603,18.664 Q35.007,18.778 35.385,18.84 Q35.763,18.901 36.167,18.901 Q37.23,18.901 37.828,18.462 Q38.136,18.233 38.276,17.926 Q38.417,17.618 38.417,17.302 Q38.417,16.687 37.898,16.304 Q37.38,15.922 36.264,15.693 L36.193,15.676 L35.587,15.553 Q34.928,15.421 34.414,15.201 Q33.899,14.981 33.548,14.63 Q32.906,13.988 32.906,12.863 Q32.906,12.151 33.148,11.606 Q33.39,11.062 33.864,10.684 Q34.365,10.279 35.06,10.099 Q35.754,9.919 36.615,9.919 Q36.993,9.919 37.371,9.954 Q37.749,9.989 38.118,10.06 Q38.452,10.13 38.817,10.24 Q39.182,10.35 39.551,10.499 L39.551,12.081 Q38.848,11.677 38.153,11.475 Q37.802,11.378 37.446,11.325 Q37.09,11.272 36.686,11.272 Q36.176,11.272 35.767,11.36 Q35.358,11.448 35.086,11.624 Q34.541,11.984 34.541,12.723 Q34.541,13.03 34.642,13.285 Q34.743,13.54 34.945,13.698 Q35.147,13.856 35.618,14.01 Q36.088,14.164 36.958,14.331 L37.608,14.454 Q38.241,14.577 38.689,14.806 Q39.138,15.034 39.437,15.368 Q40.052,16.045 40.052,17.161 Q40.052,17.917 39.784,18.475 Q39.516,19.033 39.015,19.429 Q38.479,19.851 37.762,20.053 Q37.046,20.255 36.185,20.255 z" fill="#FFFFFF"/>
    <path d="M47.786,20.255 Q46.652,20.255 45.751,19.908 Q44.851,19.561 44.218,18.884 Q43.585,18.207 43.255,17.253 Q42.926,16.3 42.926,15.096 Q42.926,13.856 43.26,12.92 Q43.594,11.984 44.183,11.325 Q44.824,10.613 45.686,10.266 Q46.547,9.919 47.54,9.919 Q48.524,9.919 49.267,10.244 Q50.01,10.569 50.537,11.185 Q51.064,11.8 51.341,12.674 Q51.618,13.549 51.618,14.674 L51.618,15.465 L44.613,15.465 L44.613,15.518 Q44.613,17.126 45.457,18.005 Q45.861,18.427 46.437,18.655 Q47.013,18.884 47.812,18.884 Q48.612,18.884 49.438,18.638 Q50.291,18.383 51.24,17.891 L51.24,19.499 Q50.774,19.692 50.335,19.833 Q49.896,19.974 49.465,20.07 Q49.043,20.167 48.621,20.211 Q48.199,20.255 47.786,20.255 z M50.001,14.199 Q49.983,13.443 49.803,12.903 Q49.623,12.362 49.333,12.028 Q49.017,11.659 48.551,11.475 Q48.085,11.29 47.505,11.29 Q46.318,11.29 45.571,12.063 Q44.815,12.846 44.675,14.208 z" fill="#FFFFFF"/>
    <path d="M54.387,10.156 L55.846,10.156 L56.004,11.633 Q56.443,10.78 57.173,10.35 Q57.902,9.919 58.913,9.919 Q59.704,9.919 60.258,10.174 Q60.812,10.429 61.172,10.903 Q61.91,11.896 61.91,13.9 L61.91,20 L60.284,20 L60.284,13.9 Q60.284,12.573 59.818,11.949 Q59.353,11.325 58.351,11.325 Q57.771,11.325 57.344,11.527 Q56.918,11.729 56.619,12.125 Q56.004,12.925 56.004,14.437 L56.004,20 L54.387,20 z" fill="#FFFFFF"/>
    <path d="M70.603,20.035 Q68.792,20.035 68.036,19.306 Q67.289,18.585 67.289,16.792 L67.289,11.413 L64.661,11.413 L64.661,10.156 L67.289,10.156 L67.289,7.581 L68.906,6.878 L68.906,10.156 L72.58,10.156 L72.58,11.413 L68.906,11.413 L68.906,16.792 Q68.906,17.873 69.319,18.312 Q69.724,18.743 70.761,18.743 L72.58,18.743 L72.58,20.035 z" fill="#FFFFFF"/>
    <path d="M80.297,20.255 Q79.163,20.255 78.262,19.908 Q77.361,19.561 76.729,18.884 Q76.096,18.207 75.766,17.253 Q75.437,16.3 75.437,15.096 Q75.437,13.856 75.771,12.92 Q76.104,11.984 76.693,11.325 Q77.335,10.613 78.196,10.266 Q79.058,9.919 80.051,9.919 Q81.035,9.919 81.778,10.244 Q82.521,10.569 83.048,11.185 Q83.575,11.8 83.852,12.674 Q84.129,13.549 84.129,14.674 L84.129,15.465 L77.124,15.465 L77.124,15.518 Q77.124,17.126 77.968,18.005 Q78.372,18.427 78.948,18.655 Q79.523,18.884 80.323,18.884 Q81.123,18.884 81.949,18.638 Q82.802,18.383 83.751,17.891 L83.751,19.499 Q83.285,19.692 82.846,19.833 Q82.406,19.974 81.976,20.07 Q81.554,20.167 81.132,20.211 Q80.71,20.255 80.297,20.255 z M82.512,14.199 Q82.494,13.443 82.314,12.903 Q82.134,12.362 81.844,12.028 Q81.527,11.659 81.062,11.475 Q80.596,11.29 80.016,11.29 Q78.829,11.29 78.082,12.063 Q77.326,12.846 77.186,14.208 z" fill="#FFFFFF"/>
    <path d="M90.097,20.255 Q89.165,20.255 88.462,19.886 Q87.759,19.517 87.284,18.866 Q86.774,18.172 86.52,17.209 Q86.265,16.247 86.265,15.061 Q86.265,13.892 86.515,12.929 Q86.766,11.967 87.284,11.281 Q87.803,10.596 88.523,10.257 Q89.244,9.919 90.097,9.919 Q90.993,9.919 91.661,10.297 Q92.338,10.684 92.725,11.413 L92.725,6.324 L94.342,6.324 L94.342,20 L92.883,20 L92.725,18.761 Q92.522,19.112 92.268,19.389 Q92.013,19.666 91.652,19.868 Q90.984,20.255 90.097,20.255 z M90.325,18.884 Q91.512,18.884 92.118,17.917 Q92.725,16.959 92.725,15.087 Q92.725,13.215 92.118,12.248 Q91.837,11.8 91.397,11.545 Q90.958,11.29 90.334,11.29 Q89.156,11.29 88.567,12.248 Q87.97,13.215 87.97,15.087 Q87.97,16.959 88.567,17.926 Q88.875,18.427 89.323,18.655 Q89.771,18.884 90.325,18.884 z" fill="#FFFFFF"/>
    <path d="M108.316,6.878 L112.201,6.878 Q114.205,6.878 115.304,7.748 Q116.394,8.618 116.394,10.218 Q116.394,10.833 116.244,11.303 Q116.095,11.773 115.822,12.107 Q115.541,12.441 115.11,12.666 Q114.68,12.89 114.091,12.978 Q115.392,13.18 116.121,14.076 Q116.481,14.524 116.666,15.104 Q116.851,15.685 116.851,16.405 Q116.851,18.181 115.682,19.086 Q114.504,20 112.201,20 L108.316,20 z M112.166,12.292 Q112.834,12.292 113.287,12.169 Q113.739,12.046 114.029,11.791 Q114.601,11.299 114.601,10.235 Q114.601,9.708 114.46,9.352 Q114.319,8.996 114.038,8.776 Q113.467,8.337 112.166,8.337 L110.101,8.337 L110.101,12.292 z M112.201,18.541 Q113.739,18.541 114.407,17.996 Q115.066,17.46 115.066,16.221 Q115.066,14.938 114.372,14.331 Q113.669,13.733 112.201,13.733 L110.101,13.733 L110.101,18.541 z" fill="#FFFFFF"/>
    <path d="M119.312,22.391 L120.27,22.391 Q120.665,22.391 120.938,22.272 Q121.21,22.153 121.386,21.978 Q121.579,21.775 121.825,21.283 Q122.071,20.791 122.414,19.842 L118.608,10.156 L120.322,10.156 L123.24,17.855 L126.114,10.156 L127.828,10.156 L125.235,16.836 Q125.024,17.381 124.906,17.68 Q124.787,17.979 124.721,18.15 Q124.655,18.321 124.62,18.414 Q124.585,18.506 124.541,18.629 Q124.497,18.752 124.422,18.954 Q124.348,19.156 124.207,19.543 Q123.943,20.255 123.754,20.738 Q123.565,21.222 123.425,21.542 Q123.284,21.863 123.192,22.052 Q123.1,22.241 123.038,22.355 Q122.845,22.689 122.607,22.949 Q122.37,23.208 122.027,23.401 Q121.421,23.744 120.612,23.744 L119.312,23.744 z" fill="#FFFFFF"/>
  </g>
</svg>
