<?xml version="1.0" encoding="utf-8"?>
<!-- Generator: Adobe Illustrator 15.1.0, SVG Export Plug-In . SVG Version: 6.00 Build 0)  -->
<!DOCTYPE svg PUBLIC "-//W3C//DTD SVG 1.1//EN" "http://www.w3.org/Graphics/SVG/1.1/DTD/svg11.dtd">
<svg version="1.1" id="Layer_1" xmlns="http://www.w3.org/2000/svg" xmlns:xlink="http://www.w3.org/1999/xlink" x="0px" y="0px"
	 width="1493.638px" height="360px" viewBox="0 0 1493.638 360" enable-background="new 0 0 1493.638 360" xml:space="preserve">
<g>
	<g>
		<polygon fill="#66CC00" points="342.663,0 251.086,279.563 212.517,149.813 150.486,149.813 221.776,354.619 287.838,354.619 
			412.429,0 		"/>
		<polygon fill="#66CC00" points="106.583,279.552 62.795,149.811 0,149.811 71.251,354.628 143.484,354.628 172.899,267.148 
			141.094,175.969 		"/>
	</g>
	<polygon fill="#66CC00" points="860.412,242.216 960.906,149.76 877.181,149.76 812.725,210.377 812.725,57.413 753.524,57.413 
		753.524,354.619 812.725,354.619 812.725,272.668 892.719,354.619 972.803,354.619 	"/>
	<path fill="#66CC00" d="M732.822,210.873c0.003,0.022-8.001-5.495-28.431-5.495c-14.958,0-27.818,8.819-32.801,15.466
		c-4.987,6.647-10.386,19.942-10.386,42.792v90.983h-62.131V149.799h62.131l-0.418,29.083h0.833
		c11.631-22.435,28.665-33.137,50.685-33.137c13.709,0,20.519,4.055,20.519,4.055V210.873z"/>
	<g>
		<path fill="#66CC00" d="M466.005,360c-65.134,0-114.4-40.498-114.4-106.884c0-66.385,49.266-107.301,114.4-107.301
			c65.132,0,113.982,40.916,113.982,107.301C579.987,319.501,531.137,360,466.005,360z M466.005,198.42
			c-29.645,0-46.763,22.964-46.763,53.442c0,30.479,17.118,53.442,46.763,53.442c29.226,0,46.761-22.963,46.761-53.442
			C512.767,221.384,495.231,198.42,466.005,198.42z"/>
	</g>
	<path fill="#66CC00" d="M1493.638,354.667h-63.866l-1.253-20.966c-8.767,8.767-25.463,26.298-58.857,26.298
		c-36.317,0-74.721-19.619-74.721-65.536s42.161-61.363,80.147-63.031l51.761-2.088v-4.591c0-21.707-15.445-32.978-42.161-32.978
		c-26.298,0-52.596,11.688-63.031,18.367l-17.533-43.414c17.533-8.766,49.675-20.871,88.078-20.871
		c38.405,0,60.528,8.766,76.809,23.794c15.861,15.028,24.628,35.064,24.628,69.71V354.667z M1427.267,264.827l-32.978,2.086
		c-20.454,0.835-32.56,9.602-32.56,25.046c0,15.862,12.94,25.465,31.308,25.465c17.948,0,30.056-11.689,34.229-18.784V264.827z"/>
	<path fill="#66CC00" d="M1294.887,149.763l-84.354,204.857h-62.329l-83.938-204.857h69.395l46.54,129.645l46.124-129.645H1294.887z
		"/>
	<path fill="#66CC00" d="M1046.625,354.62H980.14V149.763h66.485V354.62z"/>
	<polygon fill="#66CC00" points="980.107,132.516 980.107,57.422 1061.566,57.422 	"/>
</g>
</svg>
