<?xml version="1.0" encoding="UTF-8"?>
<!DOCTYPE svg PUBLIC "-//W3C//DTD SVG 1.1//EN" "http://www.w3.org/Graphics/SVG/1.1/DTD/svg11.dtd">
<svg version="1.1" xmlns="http://www.w3.org/2000/svg" xmlns:xlink="http://www.w3.org/1999/xlink" x="0" y="0" width="800" height="231" viewBox="0, 0, 800, 231">
  <g id="Background">
    <rect x="0" y="0" width="800" height="231" fill="#000000" fill-opacity="0"/>
  </g>
  <g id="Layer_1">
    <path d="M201.432,83.356 C201.432,83.356 199.633,78.703 198.598,76.447 L214.968,53.508 L204.99,39.706 L177.841,47.775 C172.662,42.956 166.917,38.73 160.72,35.212 C160.734,28.503 160.093,7.084 160.093,7.084 L143.88,1.435 C143.88,1.435 130.543,19.157 127.373,24.12 C123.589,23.64 119.733,23.395 115.819,23.395 C112.483,23.395 109.187,23.578 105.942,23.929 L89.627,1.435 L72.791,7.084 L72.791,34.179 C66.075,37.782 59.866,42.208 54.291,47.316 L29.139,39.077 L19.165,52.878 C19.165,52.878 29.235,69.279 33.898,74.637 C30.486,81.643 27.954,89.156 26.435,97.027 C16.722,100.109 1.081,104.951 1.081,104.951 L1.704,123.145 C1.704,123.145 20.206,128.277 26.316,131.065 C27.78,138.951 30.262,146.484 33.625,153.516 L17.918,174.584 L27.894,189.014 L53.77,180.914 C59.422,186.18 65.741,190.734 72.593,194.44 C72.723,195.617 72.711,196.981 72.168,197.797 L72.168,221.008 L89.006,227.283 L105.515,204.742 C108.899,205.123 112.333,205.326 115.819,205.326 C119.745,205.326 123.611,205.076 127.405,204.596 L142.632,226.656 L160.093,221.635 L160.093,193.856 C166.397,190.346 172.24,186.108 177.509,181.25 L203.119,189.641 L214.345,175.211 L198.076,153.389 C199.301,150.813 201.396,145.467 201.396,145.467 L197.51,143.135 L183.566,144.858 C173.979,172.033 146.608,188.389 115.819,188.389 C74.494,188.389 40.991,154.82 40.991,113.42 C40.991,72.016 74.494,38.45 115.819,38.45 C147.118,38.45 173.058,55.643 184.159,83.123 L196.259,85.033 L201.432,83.356" fill="#DC3C3F"/>
    <path d="M179.188,145.002 C167.027,168.527 143.724,184.311 116.087,184.311 C77.17,184.311 45.622,152.57 45.622,113.42 C45.622,74.27 77.17,42.528 116.087,42.528 C144.224,42.528 168.506,59.117 179.804,83.106 C179.764,83.199 169.713,87.469 169.713,87.469 L152.895,87.469 C144.575,75.295 130.637,67.311 114.84,67.311 C89.354,67.311 68.693,88.094 68.693,113.734 C68.693,139.371 89.354,160.158 114.84,160.158 C130.697,160.158 144.689,152.106 152.993,139.85 L170.337,139.85 L179.188,145.002" fill="#434542"/>
    <path d="M280.562,84.863 C285.169,89.316 287.728,94.373 288.236,100.033 L279.429,100.033 C278.445,95.735 276.49,92.33 273.562,89.815 C270.634,87.301 266.52,86.044 261.231,86.044 C254.778,86.044 249.567,88.356 245.598,92.981 C241.627,97.6 239.647,104.682 239.647,114.227 C239.647,122.043 241.436,128.383 245.02,133.248 C248.604,138.113 253.951,140.545 261.059,140.545 C267.599,140.545 272.583,137.984 276.005,132.869 C277.818,130.172 279.171,126.631 280.063,122.238 L288.872,122.238 C288.094,129.266 285.521,135.156 281.152,139.906 C275.915,145.629 268.851,148.49 259.963,148.49 C252.3,148.49 245.867,146.143 240.658,141.447 C233.806,135.236 230.382,125.647 230.382,112.68 C230.382,102.836 232.955,94.762 238.1,88.459 C243.667,81.61 251.34,78.187 261.127,78.187 C269.474,78.187 275.953,80.413 280.562,84.863" fill="#434542"/>
    <path d="M329.621,135.26 C331.61,131.162 332.605,126.604 332.605,121.582 C332.605,117.045 331.886,113.359 330.451,110.516 C328.174,106.039 324.254,103.803 318.685,103.803 C313.746,103.803 310.154,105.709 307.907,109.518 C305.662,113.328 304.541,117.924 304.541,123.305 C304.541,128.479 305.662,132.787 307.907,136.234 C310.154,139.682 313.716,141.404 318.595,141.404 C323.954,141.404 327.63,139.358 329.621,135.26 z M334.696,102.934 C338.996,107.111 341.145,113.248 341.145,121.354 C341.145,129.191 339.25,135.666 335.46,140.777 C331.674,145.891 325.797,148.445 317.83,148.445 C311.183,148.445 305.91,146.182 302,141.662 C298.092,137.139 296.14,131.066 296.14,123.443 C296.14,115.274 298.198,108.774 302.316,103.934 C306.436,99.096 311.967,96.674 318.911,96.674 C325.136,96.674 330.396,98.762 334.696,102.934" fill="#434542"/>
    <path d="M359.656,136.047 C361.855,139.557 365.379,141.315 370.23,141.315 C373.994,141.315 377.09,139.688 379.516,136.434 C381.941,133.18 383.152,128.508 383.152,122.422 C383.152,116.275 381.902,111.727 379.402,108.775 C376.902,105.824 373.814,104.348 370.141,104.348 C366.041,104.348 362.721,105.924 360.174,109.07 C357.629,112.219 356.358,116.852 356.358,122.967 C356.358,128.174 357.458,132.535 359.656,136.047 z M377.902,99.58 C379.35,100.488 380.994,102.078 382.834,104.348 L382.834,79.778 L390.691,79.778 L390.691,146.719 L383.336,146.719 L383.336,139.953 C381.436,142.949 379.186,145.115 376.592,146.445 C373.998,147.777 371.028,148.445 367.68,148.445 C362.281,148.445 357.607,146.166 353.656,141.608 C349.704,137.055 347.729,130.992 347.729,123.422 C347.729,116.334 349.53,110.199 353.134,105.006 C356.738,99.816 361.887,97.217 368.583,97.217 C372.293,97.217 375.398,98.006 377.902,99.58" fill="#434542"/>
    <path d="M435.879,118.516 C435.551,114.975 434.785,112.143 433.584,110.024 C431.361,106.088 427.654,104.121 422.461,104.121 C418.736,104.121 415.617,105.477 413.094,108.186 C410.574,110.895 409.236,114.338 409.086,118.516 L435.879,118.516 z M432.951,99.422 C436.172,101.041 438.625,103.137 440.309,105.713 C441.934,108.162 443.016,111.024 443.561,114.293 C444.039,116.533 444.283,120.108 444.283,125.008 L408.904,125.008 C409.057,129.961 410.213,133.928 412.375,136.922 C414.537,139.912 417.885,141.404 422.424,141.404 C426.658,141.404 430.037,139.994 432.563,137.162 C433.973,135.522 434.973,133.621 435.563,131.457 L443.602,131.457 C443.387,133.244 442.686,135.236 441.488,137.432 C440.291,139.625 438.961,141.42 437.486,142.815 C435.021,145.236 431.973,146.869 428.338,147.717 C426.383,148.201 424.176,148.445 421.713,148.445 C415.695,148.445 410.596,146.242 406.412,141.836 C402.229,137.432 400.136,131.264 400.136,123.328 C400.136,115.518 402.246,109.178 406.461,104.301 C410.67,99.428 416.176,96.99 422.979,96.99 C426.406,96.99 429.732,97.803 432.951,99.422" fill="#434542"/>
    <path d="M454.861,98.08 L462.629,98.08 L462.629,106.483 C463.262,104.85 464.822,102.858 467.307,100.51 C469.787,98.164 472.65,96.99 475.887,96.99 C476.039,96.99 476.295,97.01 476.662,97.037 C477.023,97.068 477.643,97.129 478.521,97.217 L478.521,105.846 C478.039,105.756 477.59,105.695 477.184,105.664 C476.771,105.637 476.328,105.621 475.844,105.621 C471.727,105.621 468.564,106.943 466.354,109.592 C464.143,112.24 463.037,115.291 463.037,118.744 L463.037,146.719 L454.861,146.719 L454.861,98.08" fill="#434542"/>
    <path d="M559.721,84.863 C564.328,89.316 566.889,94.373 567.396,100.033 L558.588,100.033 C557.605,95.735 555.65,92.33 552.723,89.815 C549.793,87.301 545.684,86.044 540.391,86.044 C533.938,86.044 528.727,88.356 524.756,92.981 C520.787,97.6 518.805,104.682 518.805,114.227 C518.805,122.043 520.598,128.383 524.182,133.248 C527.766,138.113 533.107,140.545 540.219,140.545 C546.76,140.545 551.744,137.984 555.164,132.869 C556.975,130.172 558.33,126.631 559.221,122.238 L568.033,122.238 C567.254,129.266 564.68,135.156 560.313,139.906 C555.074,145.629 548.012,148.49 539.125,148.49 C531.461,148.49 525.027,146.143 519.82,141.447 C512.965,135.236 509.541,125.647 509.541,112.68 C509.541,102.836 512.113,94.762 517.26,88.459 C522.826,81.61 530.502,78.187 540.287,78.187 C548.635,78.187 555.113,80.413 559.721,84.863" fill="#DC3C3F"/>
    <path d="M587.471,139.365 C589.197,140.727 591.242,141.404 593.602,141.404 C596.479,141.404 599.264,140.74 601.955,139.41 C606.5,137.203 608.768,133.59 608.768,128.574 L608.768,121.998 C607.771,122.637 606.49,123.17 604.916,123.594 C603.346,124.022 601.805,124.322 600.295,124.502 L595.352,125.139 C592.393,125.531 590.164,126.15 588.672,126.996 C586.145,128.416 584.881,130.682 584.881,133.793 C584.881,136.152 585.744,138.006 587.471,139.365 z M604.682,117.283 C606.559,117.041 607.816,116.254 608.451,114.926 C608.816,114.193 608.996,113.149 608.996,111.779 C608.996,108.986 608.006,106.955 606.025,105.695 C604.047,104.434 601.217,103.803 597.529,103.803 C593.27,103.803 590.248,104.959 588.465,107.272 C587.471,108.551 586.818,110.449 586.516,112.975 L578.887,112.975 C579.039,106.963 580.982,102.781 584.713,100.43 C588.449,98.076 592.783,96.901 597.713,96.901 C603.426,96.901 608.066,97.992 611.637,100.172 C615.174,102.35 616.941,105.74 616.941,110.342 L616.941,138.363 C616.941,139.213 617.117,139.893 617.465,140.406 C617.813,140.92 618.549,141.18 619.668,141.18 C620.031,141.18 620.439,141.156 620.893,141.111 C621.35,141.065 621.834,140.996 622.348,140.906 L622.348,146.945 C621.076,147.309 620.107,147.537 619.441,147.629 C618.773,147.717 617.865,147.764 616.717,147.764 C613.902,147.764 611.857,146.766 610.586,144.768 C609.92,143.707 609.449,142.209 609.178,140.272 C607.514,142.451 605.121,144.344 602.002,145.947 C598.883,147.549 595.447,148.354 591.693,148.354 C587.182,148.354 583.496,146.984 580.639,144.25 C577.775,141.512 576.344,138.088 576.344,133.975 C576.344,129.471 577.752,125.975 580.566,123.496 C583.383,121.018 587.074,119.488 591.648,118.916 L604.682,117.283" fill="#DC3C3F"/>
    <path d="M630.342,98.08 L638.424,98.08 L638.424,104.983 C640.363,102.594 642.119,100.852 643.693,99.762 C646.385,97.914 649.443,96.99 652.865,96.99 C656.74,96.99 659.859,97.945 662.223,99.854 C663.551,100.941 664.766,102.549 665.855,104.664 C667.672,102.063 669.805,100.131 672.26,98.877 C674.709,97.621 677.465,96.99 680.521,96.99 C687.063,96.99 691.51,99.352 693.873,104.072 C695.145,106.619 695.781,110.041 695.781,114.338 L695.781,146.719 L687.291,146.719 L687.291,112.932 C687.291,109.693 686.479,107.467 684.859,106.256 C683.238,105.045 681.264,104.441 678.934,104.441 C675.725,104.441 672.961,105.512 670.645,107.664 C668.33,109.813 667.17,113.4 667.17,118.424 L667.17,146.719 L658.861,146.719 L658.861,114.975 C658.861,111.674 658.465,109.268 657.68,107.754 C656.438,105.484 654.123,104.348 650.732,104.348 C647.643,104.348 644.832,105.545 642.309,107.936 C639.779,110.328 638.514,114.658 638.514,120.922 L638.514,146.719 L630.342,146.719 L630.342,98.08" fill="#DC3C3F"/>
    <path d="M737.889,136.434 C740.426,133.238 741.695,128.463 741.695,122.104 C741.695,118.229 741.131,114.9 740.01,112.111 C737.883,106.756 733.994,104.072 728.344,104.072 C722.662,104.072 718.773,106.908 716.678,112.566 C715.553,115.596 714.99,119.44 714.99,124.102 C714.99,127.856 715.553,131.051 716.678,133.686 C718.803,138.713 722.691,141.225 728.344,141.225 C732.17,141.225 735.352,139.625 737.889,136.434 z M707.135,98.309 L715.129,98.309 L715.129,104.756 C716.766,102.549 718.557,100.836 720.5,99.625 C723.266,97.809 726.512,96.901 730.242,96.901 C735.766,96.901 740.457,99.012 744.314,103.234 C748.168,107.459 750.096,113.49 750.096,121.33 C750.096,131.93 747.314,139.498 741.75,144.039 C738.225,146.914 734.123,148.354 729.443,148.354 C725.766,148.354 722.68,147.549 720.189,145.945 C718.727,145.039 717.102,143.479 715.311,141.27 L715.311,166.109 L707.135,166.109 L707.135,98.309" fill="#DC3C3F"/>
    <path d="M764.4,131.457 C764.648,134.184 765.344,136.275 766.484,137.727 C768.588,140.361 772.234,141.676 777.426,141.676 C780.514,141.676 783.234,141.022 785.584,139.701 C787.932,138.387 789.107,136.35 789.107,133.594 C789.107,131.504 788.168,129.914 786.293,128.826 C785.088,128.16 782.723,127.387 779.184,126.508 L772.584,124.875 C768.367,123.846 765.262,122.693 763.262,121.422 C759.691,119.211 757.906,116.152 757.906,112.25 C757.906,107.647 759.586,103.926 762.947,101.078 C766.305,98.232 770.824,96.809 776.5,96.809 C783.926,96.809 789.279,98.959 792.561,103.258 C794.619,105.984 795.615,108.918 795.555,112.066 L787.834,112.066 C787.68,110.233 787.014,108.561 785.836,107.055 C783.914,104.916 780.582,103.85 775.842,103.85 C772.68,103.85 770.285,104.438 768.66,105.611 C767.031,106.791 766.217,108.342 766.217,110.272 C766.217,112.383 767.287,114.074 769.428,115.342 C770.658,116.096 772.48,116.76 774.887,117.336 L780.391,118.652 C786.377,120.074 790.385,121.453 792.418,122.785 C795.602,124.875 797.189,128.16 797.189,132.641 C797.189,136.971 795.527,140.709 792.201,143.859 C788.875,147.006 783.809,148.58 777.006,148.58 C769.68,148.58 764.492,146.938 761.441,143.652 C758.395,140.369 756.76,136.303 756.545,131.457 L764.4,131.457" fill="#DC3C3F"/>
  </g>
</svg>
