<?xml version="1.0" encoding="UTF-8"?>
<!DOCTYPE svg PUBLIC "-//W3C//DTD SVG 1.1//EN" "http://www.w3.org/Graphics/SVG/1.1/DTD/svg11.dtd">
<svg version="1.1" xmlns="http://www.w3.org/2000/svg" xmlns:xlink="http://www.w3.org/1999/xlink" x="0" y="0" width="715" height="140" viewBox="0, 0, 715, 140">
  <g id="Background">
    <rect x="0" y="0" width="715" height="140" fill="#FFFFFF"/>
  </g>
  <g id="Layer_1">
    <g>
      <path d="M204.893,41.523 C211.669,41.523 219.089,44.346 224.574,49.106 C225.3,49.67 225.38,50.638 224.735,51.283 L218.363,58.059 C217.717,58.623 216.831,58.623 216.185,58.139 C213.12,55.316 209.571,54.268 205.619,54.268 C196.826,54.268 189.729,61.688 189.729,70.561 C189.729,79.353 196.908,86.611 205.699,86.611 C208.038,86.611 210.459,86.289 212.878,85.321 L212.878,80.643 L207.796,80.643 C206.909,80.643 206.264,79.998 206.264,79.191 L206.264,71.206 C206.264,70.319 206.909,69.673 207.796,69.673 L224.009,69.673 C224.816,69.673 225.46,70.399 225.46,71.206 L225.542,92.903 C225.542,93.307 225.219,93.952 224.896,94.194 C224.896,94.194 216.589,99.437 204.893,99.437 C188.841,99.437 175.936,86.693 175.936,70.561 C175.936,54.428 188.841,41.523 204.893,41.523" fill="#6A6A6A"/>
      <path d="M236.597,43.782 C236.597,42.975 237.323,42.249 238.129,42.249 L247.808,42.249 C248.615,42.249 249.341,42.975 249.341,43.782 L249.341,97.178 C249.341,97.985 248.615,98.711 247.808,98.711 L238.129,98.711 C237.323,98.711 236.597,97.985 236.597,97.178 z" fill="#6A6A6A"/>
      <path d="M260.393,43.782 C260.393,42.975 261.038,42.249 261.925,42.249 L295.318,42.249 C296.205,42.249 296.851,42.975 296.851,43.782 L296.851,52.573 C296.851,53.381 296.205,54.106 295.318,54.106 L272.975,54.106 L272.975,65.721 L291.366,65.721 C292.172,65.721 292.898,66.447 292.898,67.254 L292.898,76.045 C292.898,76.852 292.172,77.577 291.366,77.577 L272.975,77.577 L272.975,97.178 C272.975,97.985 272.249,98.711 271.443,98.711 L261.925,98.711 C261.038,98.711 260.393,97.985 260.393,97.178 z" fill="#6A6A6A"/>
      <path d="M313.066,54.106 L301.531,54.106 C300.644,54.106 299.999,53.38 299.999,52.573 L299.999,43.782 C299.999,42.974 300.644,42.249 301.531,42.249 L337.344,42.249 C338.231,42.249 338.877,42.974 338.877,43.782 L338.877,52.573 C338.877,53.38 338.231,54.106 337.344,54.106 L325.81,54.106 L325.81,97.178 C325.81,97.985 325.084,98.711 324.277,98.711 L314.598,98.711 C313.792,98.711 313.066,97.985 313.066,97.178 z" fill="#6A6A6A"/>
      <path d="M369.598,41.442 C377.665,41.442 383.633,43.943 389.117,48.943 C389.843,49.589 389.843,50.557 389.199,51.202 L382.907,57.735 C382.342,58.3 381.455,58.3 380.89,57.735 C377.907,55.073 373.954,53.622 370.002,53.622 C360.887,53.622 354.192,61.203 354.192,70.238 C354.192,79.191 360.967,86.611 370.082,86.611 C373.873,86.611 377.987,85.24 380.89,82.74 C381.455,82.256 382.503,82.256 382.987,82.82 L389.279,89.515 C389.843,90.079 389.763,91.128 389.199,91.693 C383.713,97.016 376.777,99.516 369.598,99.516 C353.466,99.516 340.48,86.692 340.48,70.56 C340.48,54.428 353.466,41.442 369.598,41.442" fill="#6A6A6A"/>
      <path d="M425.58,79.353 L419.45,66.044 L419.369,66.044 L413.32,79.353 z M392.429,96.614 L417.675,42.33 C417.917,41.846 418.482,41.443 419.046,41.443 L419.853,41.443 C420.418,41.443 420.982,41.846 421.224,42.33 L446.471,96.614 C446.955,97.663 446.309,98.711 445.099,98.711 L436.146,98.711 C434.695,98.711 434.049,98.227 433.323,96.694 L430.42,90.322 L408.48,90.322 L405.577,96.775 C405.173,97.743 404.286,98.711 402.672,98.711 L393.8,98.711 C392.59,98.711 391.945,97.663 392.429,96.614" fill="#6A6A6A"/>
      <path d="M475.672,66.366 C478.979,66.366 481.803,63.301 481.803,59.914 C481.803,56.526 478.979,53.784 475.672,53.784 L463.735,53.784 L463.735,66.366 z M451.072,43.782 C451.072,42.974 451.716,42.249 452.604,42.249 L476.721,42.249 C486.4,42.249 494.305,50.073 494.305,59.672 C494.305,67.092 489.385,73.061 482.367,75.884 L493.417,96.371 C493.982,97.42 493.417,98.711 492.046,98.711 L481.318,98.711 C480.674,98.711 480.19,98.307 480.028,97.985 L469.3,76.61 L463.735,76.61 L463.735,97.178 C463.735,97.985 463.008,98.711 462.202,98.711 L452.604,98.711 C451.716,98.711 451.072,97.985 451.072,97.178 z" fill="#6A6A6A"/>
      <path d="M520.153,86.773 C529.268,86.773 535.882,79.595 535.882,70.399 C535.882,61.284 529.268,54.106 520.153,54.106 L512.41,54.106 L512.41,86.773 z M499.827,43.782 C499.827,42.975 500.472,42.249 501.279,42.249 L520.96,42.249 C536.527,42.249 549.271,54.912 549.271,70.399 C549.271,86.047 536.527,98.711 520.96,98.711 L501.279,98.711 C500.472,98.711 499.827,97.985 499.827,97.178 z" fill="#6A6A6A"/>
      <path d="M571.862,95.726 L593.317,54.268 L593.317,54.106 L575.733,54.106 C574.927,54.106 574.201,53.38 574.201,52.573 L574.201,43.782 C574.201,42.975 574.927,42.249 575.733,42.249 L610.013,42.249 C610.82,42.249 611.546,42.975 611.546,43.782 L611.546,44.83 L590.817,86.693 L590.817,86.853 L608.401,86.853 C609.286,86.853 609.932,87.58 609.932,88.386 L609.932,97.178 C609.932,97.985 609.286,98.711 608.401,98.711 L573.393,98.711 C572.588,98.711 571.862,97.985 571.862,97.178 z" fill="#6A6A6A"/>
      <path d="M617.84,43.782 C617.84,42.975 618.485,42.249 619.372,42.249 L652.765,42.249 C653.652,42.249 654.298,42.975 654.298,43.782 L654.298,52.573 C654.298,53.381 653.652,54.106 652.765,54.106 L630.422,54.106 L630.422,64.109 L648.813,64.109 C649.619,64.109 650.345,64.834 650.345,65.641 L650.345,74.433 C650.345,75.319 649.619,75.965 648.813,75.965 L630.422,75.965 L630.422,86.854 L652.765,86.854 C653.652,86.854 654.298,87.58 654.298,88.387 L654.298,97.178 C654.298,97.985 653.652,98.711 652.765,98.711 L619.372,98.711 C618.485,98.711 617.84,97.985 617.84,97.178 z" fill="#6A6A6A"/>
      <path d="M662.206,42.894 C662.206,42.088 662.932,41.442 663.739,41.442 L665.755,41.442 L697.939,72.416 L698.019,72.416 L698.019,43.781 C698.019,42.974 698.665,42.248 699.551,42.248 L709.231,42.248 C710.037,42.248 710.763,42.974 710.763,43.781 L710.763,98.065 C710.763,98.872 710.037,99.517 709.231,99.517 L707.94,99.517 C707.698,99.517 707.052,99.275 706.892,99.114 L675.031,67.092 L674.951,67.092 L674.951,97.177 C674.951,97.985 674.305,98.71 673.418,98.71 L663.819,98.71 C663.013,98.71 662.287,97.985 662.287,97.177 z" fill="#6A6A6A"/>
      <path d="M93.839,83.775 L74.637,83.775 L97.458,46.096 L97.458,46.096 L97.458,46.096 L97.458,45.587 L97.458,44.004 C97.458,42.081 95.801,40.457 93.839,40.457 L53.077,40.457 C51.081,40.457 49.458,42.048 49.458,44.004 L49.458,53.592 C49.458,55.548 51.081,57.139 53.077,57.139 L72.279,57.139 L49.721,94.378 L49.458,94.817 L49.458,95.327 L49.458,96.91 C49.458,98.833 51.115,100.457 53.077,100.457 L93.839,100.457 C95.834,100.457 97.458,98.866 97.458,96.91 L97.458,87.322 C97.458,85.366 95.834,83.775 93.839,83.775 M139.458,70.457 C139.458,106.908 109.909,136.457 73.458,136.457 C37.007,136.457 7.458,106.908 7.458,70.457 C7.458,34.006 37.007,4.457 73.458,4.457 C109.909,4.457 139.458,34.006 139.458,70.457" fill="#72C02C"/>
    </g>
  </g>
</svg>
