<?xml version="1.0" encoding="UTF-8"?>
<!DOCTYPE svg PUBLIC "-//W3C//DTD SVG 1.1//EN" "http://www.w3.org/Graphics/SVG/1.1/DTD/svg11.dtd">
<svg version="1.1" xmlns="http://www.w3.org/2000/svg" xmlns:xlink="http://www.w3.org/1999/xlink" x="0" y="0" width="167" height="146" viewBox="0, 0, 167, 146">
  <g id="Background">
    <rect x="0" y="0" width="167" height="146" fill="#000000" fill-opacity="0"/>
  </g>
  <defs>
    <clipPath id="Clip_1">
      <path d="M-0,146 L166.026,146 L166.026,0.071 L-0,0.071 z"/>
    </clipPath>
  </defs>
  <g id="Layer_1">
    <path d="M99.339,39.283 C99.478,39.2 99.732,39.083 99.925,39.083 C100.122,39.083 100.259,39.166 100.259,39.388 C100.259,40.255 96.583,44.184 94.994,44.186 C94.855,44.186 94.548,44.157 94.326,43.823 C95.609,42.261 97.474,40.56 99.339,39.283 z M103.42,27.913 C100.914,25.907 100.83,26.236 100.471,26.236 C99.91,26.236 87.264,27.024 74.283,27.024 C68.769,27.024 64.445,26.507 61.568,27.747 C54.343,30.866 53.183,40.377 59.183,40.174 C65.502,39.956 68.768,36.8 70.89,33.478 C71.549,32.444 71.16,32.065 70.548,32.827 C68.969,34.784 66.335,37.034 63.448,38.067 C56.62,40.516 59.098,30.376 63.816,29.07 C67.563,28.032 73.814,29.832 79.714,30.866 C79.714,30.866 79.269,31.177 79.043,31.343 C78.542,31.733 76.091,33.878 71.829,37.996 C69.293,40.452 64.25,45.297 64.25,47.053 C64.25,47.692 66.172,51.009 67.289,51.009 C67.707,51.009 67.428,50.115 69.603,47.308 C73.253,42.568 78.876,37.077 81.105,34.911 C83.004,33.071 85.536,31.01 86.4,31.01 C87.112,31.01 88.106,30.982 89.234,30.933 C84.794,34.921 77.534,41.622 74.066,46.691 C73.9,46.94 73.816,47.191 73.816,47.329 C73.816,48.356 75.655,49.835 76.184,49.835 C76.491,49.835 76.965,48.724 77.188,48.473 C81.063,43.738 83.514,41.65 85.686,40.726 C83.795,42.595 81.647,44.656 81.647,46.411 C81.647,47.8 82.458,49.75 84.042,49.75 C85.35,49.75 88.177,47.701 89.871,46.14 C90.019,47.318 92.527,50.006 93.717,50.006 C96.446,50.006 99.2,48.051 101.235,46.189 C102.378,45.156 103.489,43.874 103.489,43.567 C103.489,43.462 103.464,43.289 103.245,43.289 C102.988,43.289 100.315,45.768 95.221,47.639 C94.88,47.745 94.272,47.917 93.771,47.917 C92.91,47.917 92.682,47.329 92.682,46.884 C92.682,46.384 92.992,45.685 93.52,44.878 C94.132,45.524 94.968,45.857 95.555,45.857 C97.642,45.857 102.237,42.068 102.237,39.39 C102.237,39.032 102.153,38.556 101.155,37.638 C100.452,36.856 99.676,36.271 99.092,36.271 C98.03,36.271 96.329,37.161 94.103,39.166 C92.968,40.189 91.875,41.294 91.079,42.488 C90.795,42.922 89.826,44.294 88.887,45.017 C87.273,46.269 85.545,47.412 84.989,47.412 C84.791,47.412 84.625,47.308 84.625,47.025 C84.625,45.602 88.887,42.263 90.224,41.118 C90.698,40.701 90.812,40.562 90.812,40.228 C90.812,39.083 89.195,38.194 88.33,38.194 C86.878,38.194 85.823,38.86 84.01,39.749 C84.718,38.855 87.363,36.983 91.15,33.381 C92.331,32.265 93.795,31.098 95.727,30.559 C98.263,30.376 100.828,30.158 102.866,29.92 C103.589,29.836 104.76,29.587 104.76,29.253 C104.76,28.802 103.782,28.22 103.42,27.913" fill="#FFFFFE"/>
    <path d="M90.473,91.206 L96.188,91.206 C97.247,91.206 97.648,91.278 97.864,91.495 C98.192,91.861 98.27,92.41 98.27,93.723 C98.27,95.036 98.192,95.586 97.864,95.945 C97.647,96.164 97.247,96.24 96.188,96.24 L90.473,96.24 L90.473,91.206 z M63.662,98.029 L65.547,92.117 L67.334,92.117 L69.169,98.029 L63.662,98.029 z M124.491,91.278 C126.138,91.278 126.756,91.387 127.122,91.751 C127.524,92.158 127.668,93.213 127.668,98.358 C127.668,103.463 127.524,104.553 127.122,104.959 C126.758,105.318 126.14,105.43 124.491,105.43 L118.547,105.43 L118.478,91.278 L124.491,91.278 z M93.247,105.43 L90.474,105.43 L90.474,101.49 L94.76,101.49 L100.416,111.12 L125.703,111.12 C129.384,111.12 131.357,110.644 132.889,109.109 C134.633,107.365 135.55,104.736 135.55,98.361 C135.55,91.976 134.633,89.349 132.889,87.597 C131.357,86.063 129.384,85.59 125.703,85.59 L108.302,85.59 L108.302,91.28 L110.999,91.28 L110.999,105.432 L105.858,105.432 L101.99,98.869 C104.944,98.286 106.147,97.185 106.147,92.669 C106.147,89.49 105.786,88.072 104.655,86.938 C103.669,85.954 102.244,85.588 100.061,85.588 L80.3,85.588 L80.3,91.278 L82.997,91.278 L82.997,105.43 L79.199,105.43 L72.462,85.478 L60.979,85.478 L54.215,105.43 L51.299,105.43 L51.299,111.118 L64.023,111.118 L64.023,105.54 L61.688,105.54 L62.273,103.352 L70.555,103.352 L71.175,105.54 L68.84,105.54 L68.84,111.118 L93.247,111.118 L93.247,105.43" fill="#FFFFFE"/>
    <path d="M97.632,75.311 C97.408,75.535 97.047,75.606 95.953,75.606 L92.273,75.606 C91.181,75.606 90.82,75.535 90.596,75.311 C90.339,75.057 90.156,74.289 90.156,68.672 C90.156,63.094 90.34,62.293 90.596,62.037 C90.82,61.822 91.179,61.744 92.273,61.744 L95.953,61.744 C97.045,61.744 97.408,61.822 97.632,62.037 C97.887,62.293 98.07,63.094 98.07,68.672 C98.07,74.254 97.886,75.055 97.632,75.311 z M98.87,55.91 L89.355,55.91 C86.695,55.91 85.601,56.309 84.618,57.299 C83.116,58.756 82.282,61.634 82.282,68.674 C82.282,75.716 83.116,78.599 84.618,80.054 C85.599,81.043 86.695,81.441 89.355,81.441 L98.87,81.441 C101.529,81.441 102.629,81.043 103.608,80.054 C105.11,78.599 105.946,75.716 105.946,68.674 C105.946,61.632 105.11,58.754 103.608,57.299 C102.629,56.309 101.529,55.91 98.87,55.91" fill="#FFFFFE"/>
    <path d="M54.125,91.278 L56.715,91.278 L56.715,85.588 L43.947,85.588 L43.947,91.206 L46.173,91.206 L43.143,95.586 L42.997,95.586 L40.192,91.206 L42.414,91.206 L42.414,85.588 L29.16,85.588 L29.16,91.278 L31.691,91.278 L39.097,101.459 L39.097,105.432 L36.216,105.432 L36.216,111.12 L49.456,111.12 L49.456,105.43 L46.573,105.43 L46.573,101.348 L54.125,91.278" fill="#FFFFFE"/>
    <path d="M51.299,75.751 L44.425,75.751 L44.425,61.598 L51.299,61.598 L51.299,55.908 L29.159,55.908 L29.159,61.598 L36.038,61.598 L36.038,75.751 L29.159,75.751 L29.159,81.44 L51.299,81.44 L51.299,75.751" fill="#FFFFFE"/>
    <path d="M124.972,61.595 L127.488,61.595 L127.488,68.964 L119.001,55.906 L107.394,55.906 L107.394,61.596 L110.091,61.596 L110.091,75.75 L107.394,75.75 L107.394,81.438 L119.57,81.438 L119.535,75.75 L116.84,75.75 L116.84,66.888 L125.831,81.44 L134.23,81.44 L134.23,61.598 L136.866,61.598 L136.866,55.905 L124.972,55.905 L124.972,61.595" fill="#FFFFFE"/>
    <path d="M63.53,61.527 L69.24,61.527 C70.299,61.527 70.702,61.598 70.919,61.822 C71.246,62.183 71.32,62.726 71.32,64.044 C71.32,65.355 71.246,65.906 70.919,66.267 C70.702,66.489 70.301,66.56 69.242,66.561 L63.53,66.561 L63.53,61.527 z M67.816,71.811 L73.465,81.44 L81.351,81.44 L81.351,75.751 L78.91,75.751 L75.044,69.184 C77.996,68.599 79.199,67.512 79.199,62.982 C79.199,59.809 78.838,58.386 77.703,57.253 C76.721,56.275 75.296,55.908 73.109,55.908 L53.354,55.908 L53.354,61.598 L56.049,61.598 L56.049,75.751 L53.354,75.751 L53.354,81.44 L66.299,81.44 L66.299,75.751 L63.53,75.751 L63.53,71.811 L67.816,71.811" fill="#FFFFFE"/>
    <path d="M65.547,92.117 L63.662,98.029 L69.169,98.029 L67.334,92.117 L65.547,92.117" fill="#233038"/>
    <path d="M70.919,66.267 C71.246,65.906 71.32,65.355 71.32,64.044 C71.32,62.726 71.246,62.183 70.919,61.822 C70.702,61.598 70.299,61.527 69.24,61.527 L63.53,61.527 L63.53,66.561 L69.242,66.561 C70.301,66.56 70.702,66.489 70.919,66.267" fill="#233038"/>
    <path d="M94.994,44.186 C96.583,44.184 100.259,40.255 100.259,39.388 C100.259,39.166 100.122,39.083 99.925,39.083 C99.732,39.083 99.478,39.2 99.339,39.283 C97.474,40.56 95.609,42.261 94.326,43.823 C94.548,44.157 94.855,44.186 94.994,44.186" fill="#233038"/>
    <path d="M95.953,61.744 L92.273,61.744 C91.179,61.744 90.82,61.822 90.596,62.037 C90.34,62.293 90.156,63.094 90.156,68.672 C90.156,74.289 90.339,75.057 90.596,75.311 C90.82,75.535 91.181,75.606 92.273,75.606 L95.953,75.606 C97.047,75.606 97.408,75.535 97.632,75.311 C97.886,75.055 98.07,74.254 98.07,68.672 C98.07,63.094 97.887,62.293 97.632,62.037 C97.408,61.822 97.045,61.744 95.953,61.744" fill="#233038"/>
    <path d="M97.864,95.945 C98.192,95.586 98.27,95.036 98.27,93.723 C98.27,92.41 98.192,91.861 97.864,91.495 C97.648,91.278 97.247,91.206 96.188,91.206 L90.473,91.206 L90.473,96.24 L96.188,96.24 C97.247,96.24 97.647,96.164 97.864,95.945" fill="#233038"/>
    <g clip-path="url(#Clip_1)">
      <path d="M124.491,105.43 C126.14,105.43 126.758,105.318 127.122,104.959 C127.524,104.553 127.668,103.463 127.668,98.358 C127.668,93.213 127.524,92.158 127.122,91.751 C126.756,91.387 126.138,91.278 124.491,91.278 L118.478,91.278 L118.547,105.43 L124.491,105.43" fill="#233038"/>
      <path d="M136.866,61.598 L134.23,61.598 L134.23,81.44 L125.831,81.44 L116.84,66.888 L116.84,75.75 L119.535,75.75 L119.57,81.438 L107.394,81.438 L107.394,75.75 L110.091,75.75 L110.091,61.596 L107.394,61.596 L107.394,55.906 L119.001,55.906 L127.488,68.964 L127.488,61.595 L124.972,61.595 L124.972,55.905 L136.866,55.905 L136.866,61.598 z M29.159,75.751 L36.038,75.751 L36.038,61.598 L29.159,61.598 L29.159,55.908 L51.299,55.908 L51.299,61.598 L44.425,61.598 L44.425,75.751 L51.299,75.751 L51.299,81.44 L29.159,81.44 L29.159,75.751 z M49.456,105.43 L49.456,111.12 L36.216,111.12 L36.216,105.432 L39.097,105.432 L39.097,101.459 L31.691,91.278 L29.16,91.278 L29.16,85.588 L42.414,85.588 L42.414,91.206 L40.192,91.206 L42.997,95.586 L43.143,95.586 L46.173,91.206 L43.947,91.206 L43.947,85.588 L56.715,85.588 L56.715,91.278 L54.125,91.278 L46.573,101.348 L46.573,105.43 L49.456,105.43 z M66.299,75.751 L66.299,81.44 L53.354,81.44 L53.354,75.751 L56.049,75.751 L56.049,61.598 L53.354,61.598 L53.354,55.908 L73.109,55.908 C75.296,55.908 76.721,56.275 77.703,57.253 C78.838,58.386 79.199,59.809 79.199,62.982 C79.199,67.512 77.996,68.599 75.044,69.184 L78.91,75.751 L81.351,75.751 L81.351,81.44 L73.465,81.44 L67.816,71.811 L63.53,71.811 L63.53,75.751 L66.299,75.751 z M105.946,68.674 C105.946,75.716 105.11,78.599 103.608,80.054 C102.629,81.043 101.529,81.441 98.87,81.441 L89.355,81.441 C86.695,81.441 85.599,81.043 84.618,80.054 C83.116,78.599 82.282,75.716 82.282,68.674 C82.282,61.634 83.116,58.756 84.618,57.299 C85.601,56.309 86.695,55.91 89.355,55.91 L98.87,55.91 C101.529,55.91 102.629,56.309 103.608,57.299 C105.11,58.754 105.946,61.632 105.946,68.674 z M102.866,29.92 C100.828,30.158 98.263,30.376 95.727,30.559 C93.795,31.098 92.331,32.265 91.15,33.381 C87.363,36.983 84.718,38.855 84.01,39.749 C85.823,38.86 86.878,38.194 88.33,38.194 C89.195,38.194 90.812,39.083 90.812,40.228 C90.812,40.562 90.698,40.701 90.224,41.118 C88.887,42.263 84.625,45.602 84.625,47.025 C84.625,47.308 84.791,47.412 84.989,47.412 C85.545,47.412 87.273,46.269 88.887,45.017 C89.826,44.294 90.795,42.922 91.079,42.488 C91.875,41.294 92.968,40.189 94.103,39.166 C96.329,37.161 98.03,36.271 99.092,36.271 C99.676,36.271 100.452,36.856 101.155,37.638 C102.153,38.556 102.237,39.032 102.237,39.39 C102.237,42.068 97.642,45.857 95.555,45.857 C94.968,45.857 94.132,45.524 93.52,44.878 C92.992,45.685 92.682,46.384 92.682,46.884 C92.682,47.329 92.91,47.917 93.771,47.917 C94.272,47.917 94.88,47.745 95.221,47.639 C100.315,45.768 102.988,43.289 103.245,43.289 C103.464,43.289 103.489,43.462 103.489,43.567 C103.489,43.874 102.378,45.156 101.235,46.189 C99.2,48.051 96.446,50.006 93.717,50.006 C92.527,50.006 90.019,47.318 89.871,46.14 C88.177,47.701 85.35,49.75 84.042,49.75 C82.458,49.75 81.647,47.8 81.647,46.411 C81.647,44.656 83.795,42.595 85.686,40.726 C83.514,41.65 81.063,43.738 77.188,48.473 C76.965,48.724 76.491,49.835 76.184,49.835 C75.655,49.835 73.816,48.356 73.816,47.329 C73.816,47.191 73.9,46.94 74.066,46.691 C77.534,41.622 84.794,34.921 89.234,30.933 C88.106,30.982 87.112,31.01 86.4,31.01 C85.536,31.01 83.004,33.071 81.105,34.911 C78.876,37.077 73.253,42.568 69.603,47.308 C67.428,50.115 67.707,51.009 67.289,51.009 C66.172,51.009 64.25,47.692 64.25,47.053 C64.25,45.297 69.293,40.452 71.829,37.996 C76.091,33.878 78.542,31.733 79.043,31.343 C79.269,31.177 79.714,30.866 79.714,30.866 C73.814,29.832 67.563,28.032 63.816,29.07 C59.098,30.376 56.62,40.516 63.448,38.067 C66.335,37.034 68.969,34.784 70.548,32.827 C71.16,32.065 71.549,32.444 70.89,33.478 C68.768,36.8 65.502,39.956 59.183,40.174 C53.183,40.377 54.343,30.866 61.568,27.747 C64.445,26.507 68.769,27.024 74.283,27.024 C87.264,27.024 99.91,26.236 100.471,26.236 C100.83,26.236 100.914,25.907 103.42,27.913 C103.782,28.22 104.76,28.802 104.76,29.253 C104.76,29.587 103.589,29.836 102.866,29.92 z M80.299,111.118 L68.84,111.118 L68.84,105.54 L71.175,105.54 L70.555,103.352 L62.273,103.352 L61.688,105.54 L64.023,105.54 L64.023,111.118 L51.299,111.118 L51.299,105.43 L54.215,105.43 L60.979,85.478 L72.462,85.478 L79.199,105.43 L82.997,105.43 L82.997,91.278 L80.3,91.278 L80.3,85.588 L100.061,85.588 C102.244,85.588 103.669,85.954 104.655,86.938 C105.786,88.072 106.147,89.49 106.147,92.669 C106.147,97.185 104.944,98.286 101.99,98.869 L105.858,105.432 L110.999,105.432 L110.999,91.28 L108.302,91.28 L108.302,85.59 L125.703,85.59 C129.384,85.59 131.357,86.063 132.889,87.597 C134.633,89.349 135.55,91.976 135.55,98.361 C135.55,104.736 134.633,107.365 132.889,109.109 C131.357,110.644 129.384,111.12 125.703,111.12 L100.416,111.12 L94.76,101.49 L90.474,101.49 L90.474,105.43 L93.247,105.43 L93.247,111.118 L80.299,111.118 z M162.266,43.66 L86.773,0.997 C84.703,-0.238 81.323,-0.238 79.253,0.997 L3.759,43.66 C1.692,44.9 -0,47.878 -0,50.291 L-0,112.65 C-0,115.06 1.887,117.593 4.196,118.282 L78.816,145.478 C81.125,146.174 84.899,146.174 87.207,145.478 L161.83,118.282 C164.136,117.593 166.026,115.06 166.026,112.65 L166.026,50.291 C166.025,47.88 164.329,44.9 162.266,43.66" fill="#233038"/>
    </g>
  </g>
</svg>
