<?xml version="1.0" encoding="utf-8"?>
<!-- Generator: Adobe Illustrator 19.1.0, SVG Export Plug-In . SVG Version: 6.00 Build 0)  -->
<svg version="1.1" id="Layer_1" xmlns="http://www.w3.org/2000/svg" xmlns:xlink="http://www.w3.org/1999/xlink" x="0px" y="0px"
	 viewBox="0 0 381.6 316.1" style="enable-background:new 0 0 381.6 316.1;" xml:space="preserve">
<style type="text/css">
	.st0{fill:#FFFFFF;}
	.st1{fill:#5F6062;}
	.st2{fill:#231F20;}
	.st3{fill:#8B9B92;}
	.st4{fill:#BCC5BB;}
	.st5{fill:none;}
</style>
<g>
	<path class="st0" d="M370.8,122.5H354c-2.1-1.9-4.9-3-7.8-3c-1,0-1.9,0.1-2.9,0.4v-18.1l-37.5,0V59c0-6.2-2.7-12.2-7.3-16.4
		c-4.5-4.1-10.3-6.3-16.5-6.3H139.7c-5.3-22.4-14.5-27.3-21.6-27.3c-7.1,0-16.3,4.9-21.6,27.5c-5,0.6-9.7,2.7-13.4,6.1
		c-4.7,4.3-7.3,10.2-7.3,16.4v42.9H38.3v18c-0.9-0.2-1.9-0.3-2.9-0.3c-3,0-5.7,1.1-7.8,3H10.8v67.4h65l0,42.7c0,1.4,0.2,5.1,1.8,9.6
		c1.7,5,5.4,11.8,13.5,15.9l87.8,46c3.6,2,7.7,3,11.9,3c4.2,0,8.3-1,11.8-3l87.9-46c8.1-4.1,11.8-11,13.6-16
		c1.5-4.4,1.7-8.2,1.8-9.8v-42.5h65V122.5z"/>
	<g>
		<path class="st1" d="M131.7,46.8c-0.1-0.6-0.2-1.2-0.3-1.8c-0.1-0.6-0.2-1.2-0.3-1.8c-2.9-15-7.8-24.3-12.9-24.3
			c-5.1,0-10,9.3-12.9,24.3c-0.1,0.6-0.2,1.2-0.3,1.8c-0.1,0.6-0.2,1.2-0.3,1.8c-1.2,7.4-1.8,15.4-1.8,23.8c0,5.1,0.2,10.2,0.7,15.1
			l0.1,0.6h7.9V44.9c0-0.5,0.1-1,0.2-1.5c0.7-3,3.4-5.2,6.4-5.2c3.1,0,5.8,2.2,6.4,5.2c0.1,0.5,0.2,1,0.2,1.5v41.4h7.9l0.1-0.6
			c0.5-5,0.7-10,0.7-15.1C133.4,62.2,132.8,54.2,131.7,46.8z"/>
		<path class="st1" d="M118.2,40.5c-1.7,0-3.2,1-4,2.5c-0.3,0.6-0.5,1.3-0.5,1.9v68.9c0,2.4,2,4.4,4.4,4.4c2.4,0,4.4-2,4.4-4.4V44.9
			c0-0.7-0.2-1.3-0.5-1.9C121.4,41.5,119.9,40.5,118.2,40.5z"/>
	</g>
	<polygon class="st2" points="190.8,298.2 190.8,298.2 190.8,298.2 	"/>
	<path class="st3" d="M294.6,92.3c-0.4-0.5-0.9-1-1.3-1.4c-3-2.8-7-4.3-11.2-4.3H134.8l0.1-0.8c0.5-5,0.7-10.1,0.7-15.2
		c0-8-0.6-16.2-1.7-23.6l-0.1-0.8H282c3.7,0,7.1,1.3,9.7,3.7c2.6,2.4,4.1,5.7,4.1,9.1v34.7L294.6,92.3z"/>
	<path class="st3" d="M85.8,59c0-3.4,1.5-6.7,4.1-9.1c2.6-2.4,6.1-3.7,9.7-3.7h2.9l-0.1,0.8c-1.1,7.4-1.7,15.5-1.7,23.6
		c0,5.1,0.2,10.2,0.7,15.2l0.1,0.8h-1.8c-4.2,0-8.2,1.5-11.2,4.3c-0.5,0.4-0.9,0.9-1.4,1.4l-1.2,1.5V59z"/>
	<path class="st4" d="M85.8,165.9v66.5c0,0.7,0.1,3.3,1.2,6.5c1.1,3.3,3.5,7.7,8.7,10.3l88,46.1c2,1.1,4.2,1.7,6.4,1.8h1.4
		c2.2-0.1,4.4-0.7,6.4-1.8l88-46.1c5.1-2.6,7.6-7.1,8.7-10.3c1-3,1.2-5.5,1.2-6.5v-66.5H85.8z M235.6,201.7l-0.3,0.2v56.6
		l-73.6-49.3v25.1l0.3,0.2c3.3,2.6,5.3,6.7,5.3,10.9c0,7.7-6.3,14-14,14c-7.7,0-14-6.3-14-14c0-4.2,2-8.3,5.2-10.9l0.3-0.2v-56.7
		l4.3,2.6l69.3,46.8v-25.1l-0.3-0.2c-3.3-2.6-5.3-6.7-5.3-10.9c0-7.7,6.3-14,14-14c7.7,0,14,6.3,14,14
		C240.8,195,238.8,199,235.6,201.7z"/>
	<path class="st2" d="M236,202.2c3.4-2.8,5.5-7,5.5-11.4c0-8.1-6.6-14.7-14.7-14.7c-8.1,0-14.7,6.6-14.7,14.7
		c0,4.5,2.1,8.7,5.5,11.5v23.5l-73.6-49.3V234c-3.4,2.8-5.5,7-5.5,11.4c0,8.1,6.6,14.7,14.7,14.7c8.1,0,14.7-6.6,14.7-14.7
		c0-4.5-2.1-8.7-5.5-11.5v-23.4l73.6,49.3V202.2z M232.5,200.3C232.4,200.3,232.4,200.3,232.5,200.3l0,53.2l-73.6-49.3v31.6
		c3.3,1.9,5.5,5.5,5.5,9.6c0,6.1-5,11.1-11.1,11.1c-6.1,0-11.1-5-11.1-11.1c0-4.1,2.2-7.6,5.5-9.5c0,0,0,0,0,0v-53.1l73.6,49.3
		v-31.7c-3.3-1.9-5.5-5.5-5.5-9.6c0-6.1,5-11.1,11.1-11.1c6.1,0,11.1,5,11.1,11.1C237.9,194.8,235.7,198.4,232.5,200.3z"/>
	<rect x="296.9" y="163.7" class="st2" width="1.8" height="0.1"/>
	<path class="st2" d="M319.4,163.8c-0.6-1.6-2.2-2.8-4-2.8c-1.8,0-3.4,1.2-4,2.8H70.2c-0.6-1.6-2.1-2.8-4-2.8c-1.8,0-3.4,1.2-4,2.8
		c-0.2,0.4-0.2,0.9-0.2,1.4c0,2.3,1.9,4.2,4.2,4.2c1.8,0,3.4-1.2,4-2.8h12.7v65.9c0,0.8,0.1,3.8,1.4,7.4c1.3,3.8,4.1,8.9,10.1,12
		l88,46c2.6,1.4,5.5,2.2,8.5,2.2c3,0,5.9-0.8,8.5-2.1l88-46.1c6-3.1,8.8-8.2,10.1-12c1.2-3.6,1.4-6.6,1.4-7.5v-65.8h12.8
		c0.6,1.6,2.2,2.8,4,2.8c2.3,0,4.2-1.9,4.2-4.2C319.7,164.7,319.6,164.2,319.4,163.8z M295.1,232.4c0,0.7-0.1,3.2-1.2,6.3
		c-1.1,3.1-3.4,7.4-8.3,9.9l-88,46.1c-2.1,1.1-4.4,1.7-6.8,1.7c-2.3,0-4.7-0.6-6.7-1.7l-88-46.1c-4.9-2.5-7.2-6.8-8.3-9.9
		c-1.1-3.2-1.2-5.8-1.2-6.3v-65.8h208.6V232.4z"/>
	<polygon class="st2" points="88.9,124.7 88.9,141.1 86.5,139.6 84.7,138.5 82.9,137.3 63,124.7 63,151.3 68.8,151.3 68.8,134.4 
		82.9,143.6 84.7,144.8 86.5,146 94.6,151.3 94.6,124.7 	"/>
	<polygon class="st2" points="108.2,140.5 122.5,140.5 122.5,135.3 108.2,135.3 108.2,129.9 131,129.9 131,124.7 102.5,124.7 
		102.5,151.3 131.2,151.3 131.2,146.1 108.2,146.1 	"/>
	<polygon class="st2" points="221.2,140.5 235.5,140.5 235.5,135.3 221.2,135.3 221.2,129.9 243.9,129.9 243.9,124.7 215.4,124.7 
		215.4,151.3 244.1,151.3 244.1,146.1 221.2,146.1 	"/>
	<path class="st2" d="M167.3,138.8c1-1.4,1.6-3.1,1.6-5.3v-0.1c0-2.5-0.8-4.6-2.3-6.1c-1.8-1.8-4.4-2.7-7.7-2.7H138v26.6h5.8v-8.5
		h13.3h0.1l5.7,8.5h6.8l-6.5-9.5C164.9,141.2,166.2,140.2,167.3,138.8z M163,133.9c0,1.1-0.4,2-1.2,2.7c-0.8,0.7-1.9,1-3.3,1h-14.7
		V130h14.6c1.4,0,2.6,0.3,3.4,0.9C162.6,131.6,163,132.5,163,133.9L163,133.9z"/>
	<path class="st2" d="M279.7,138.8c1-1.4,1.6-3.1,1.6-5.3v-0.1c0-2.5-0.8-4.6-2.3-6.1c-1.8-1.8-4.4-2.7-7.7-2.7h-20.9v26.6h5.8v-8.5
		h13.3h0.1l5.7,8.5h6.8l-6.5-9.5C277.3,141.2,278.7,140.2,279.7,138.8z M275.4,133.9c0,1.1-0.4,2-1.2,2.7c-0.8,0.7-1.9,1-3.3,1
		h-14.7V130h14.6c1.4,0,2.6,0.3,3.4,0.9C275,131.6,275.4,132.5,275.4,133.9L275.4,133.9z"/>
	<path class="st2" d="M205.9,128.5c-1.3-1.2-2.7-2.1-4.5-2.8c-1.7-0.7-3.6-1-5.7-1H176v26.6h19.7c2.1,0,4-0.3,5.7-1
		c1.7-0.7,3.2-1.6,4.5-2.8c1.3-1.2,2.2-2.6,2.9-4.2c0.7-1.6,1-3.4,1-5.2v-0.1c0-1.9-0.3-3.6-1-5.2
		C208.1,131.1,207.2,129.7,205.9,128.5z M203.7,138.1c0,1.2-0.2,2.3-0.6,3.2c-0.4,1-0.9,1.8-1.6,2.5c-0.7,0.7-1.5,1.3-2.5,1.6
		c-1,0.4-2.1,0.6-3.3,0.6h-13.8v-16h13.8c1.2,0,2.3,0.2,3.3,0.6c1,0.4,1.8,0.9,2.5,1.7c0.7,0.7,1.2,1.6,1.6,2.5
		C203.5,135.8,203.7,136.9,203.7,138.1L203.7,138.1z"/>
	<polygon class="st2" points="314,124.7 302.6,135.4 291.3,124.7 283.2,124.7 299.6,140.8 299.6,151.3 305.5,151.3 305.5,140.7 
		322.2,124.7 	"/>
	<path class="st4" d="M124.8,109.7V88.8H282c3.7,0,7.1,1.3,9.7,3.7c1.9,1.7,3.3,4.1,3.8,6.6c0.1,0.6,0.2,1.2,0.2,1.9l0,0.2
		c0,0.1,0,0.2,0,0.4v8.2H124.8z"/>
	<path class="st5" d="M125.5,45.1v1.8v38.7h6.5c0.4-4.9,0.7-9.9,0.7-15c0-8.8-0.7-16.7-1.8-23.7c-0.1-0.6-0.2-1.2-0.3-1.8
		c-0.1-0.6-0.2-1.2-0.3-1.8c-2.8-14.7-7.7-23.7-12.2-23.7c-4.5,0-9.4,9-12.2,23.7c-0.1,0.6-0.2,1.2-0.3,1.8
		c-0.1,0.6-0.2,1.2-0.3,1.8c-1.1,6.9-1.8,14.9-1.8,23.7c0,5.1,0.2,10.2,0.7,15h6.6V46.9v-1.8v-0.2c0-0.6,0.1-1.1,0.2-1.6
		c0.7-3.3,3.6-5.7,7.1-5.7c3.5,0,6.4,2.5,7.1,5.7c0.1,0.5,0.2,1.1,0.2,1.6V45.1z"/>
	<path class="st5" d="M87.9,90.3c3.1-2.9,7.3-4.5,11.7-4.5h1.1c-0.5-5-0.7-10.1-0.7-15.3c0-8,0.6-16.2,1.7-23.7h-2.1
		c-3.5,0-6.8,1.2-9.3,3.5c-2.5,2.2-3.9,5.3-3.9,8.5v32.8C87,91.3,87.4,90.8,87.9,90.3z"/>
	<path class="st5" d="M118.2,41.2c-1.5,0-2.7,0.9-3.3,2.1c-0.2,0.5-0.4,1-0.4,1.6v0.2v1.8v38.7v0.2v1.6v0.2v1.6v0.2v9.7v1.8v1.8v6.2
		v1v2.6v1.2c0,2,1.7,3.7,3.7,3.7c2,0,3.7-1.7,3.7-3.7v-1.2V110v-1v-6.2V101v-1.8v-9.7v-0.2v-1.6v-0.2v-1.6v-0.2V46.9v-1.8v-0.2
		c0-0.6-0.1-1.1-0.4-1.6C120.9,42.1,119.6,41.2,118.2,41.2z"/>
	<path class="st5" d="M294.9,99.2c-0.5-2.3-1.8-4.5-3.6-6.2c-2.5-2.3-5.8-3.5-9.3-3.5H125.5v9.7v1.8v1.8v6.2h169.6v-6.2v-1.3
		c0-0.2,0-0.3,0-0.5C295.1,100.4,295,99.8,294.9,99.2z"/>
	<path class="st5" d="M282,46.9H134.6c1.1,7.5,1.7,15.7,1.7,23.7c0,5.2-0.2,10.3-0.7,15.3H282c4.4,0,8.5,1.6,11.7,4.5
		c0.5,0.5,1,1,1.4,1.5V59c0-3.2-1.4-6.3-3.8-8.5C288.8,48.2,285.5,46.9,282,46.9z"/>
	<path class="st4" d="M85.8,109.7v-8.2c0-0.1,0-0.3,0-0.4l0-0.2c0-0.7,0.1-1.3,0.2-1.9c0.5-2.5,1.9-4.8,3.8-6.6
		c2.6-2.4,6.1-3.7,9.7-3.7h11.9v20.9H85.8z"/>
	<path class="st2" d="M350.6,129.6c-0.7-1.7-2.4-3-4.4-3c-2.6,0-4.8,2.1-4.8,4.8c0,2.6,2.1,4.8,4.8,4.8c2,0,3.7-1.2,4.4-2.9h9.5v46
		l-40.2,0l16.4-10.1V109h-37.5v-6.2v-1.3V59c0-4.2-1.8-8.3-5-11.2c-3.2-2.9-7.3-4.5-11.7-4.5H134c-2.8-15.5-8.2-27.3-15.8-27.3
		c-7.6,0-13,11.8-15.8,27.3h-2.7c-4.4,0-8.5,1.6-11.7,4.5c-3.2,2.9-5,7-5,11.2v42.5v1.3v6.2H45.3v60.2l16.4,10.1l-40.2,0v-46H31
		c0.7,1.7,2.4,2.9,4.4,2.9c2.6,0,4.8-2.1,4.8-4.8c0-2.6-2.1-4.8-4.8-4.8c-2,0-3.7,1.2-4.4,3H17.9v53.2H74l-25-15.9v-54.4h61.9v1.2
		c0,4,3.3,7.3,7.3,7.3c4,0,7.3-3.3,7.3-7.3v-1.2h198.4v0h8.7v54.4l-25,15.9h56.1v-53.2H350.6z M86.5,59c0-3.2,1.4-6.3,3.9-8.5
		c2.5-2.3,5.8-3.5,9.3-3.5h2.1c-1.1,7.5-1.7,15.7-1.7,23.7c0,5.2,0.2,10.3,0.7,15.3h-1.1c-4.4,0-8.6,1.6-11.7,4.5
		c-0.5,0.5-1,1-1.4,1.5V59z M110.9,89.5V109H86.5v-6.2v0v-1.3v0c0-0.2,0-0.3,0-0.5c0-0.6,0.1-1.2,0.2-1.8c0.5-2.3,1.7-4.5,3.6-6.2
		c2.5-2.3,5.8-3.5,9.3-3.5L110.9,89.5L110.9,89.5z M121.9,45.1v68.7c0,2-1.7,3.7-3.7,3.7c-2,0-3.7-1.7-3.7-3.7V45.1v-0.2
		c0-0.6,0.1-1.1,0.4-1.6c0.6-1.2,1.9-2.1,3.3-2.1c1.5,0,2.7,0.9,3.3,2.1c0.2,0.5,0.4,1,0.4,1.6V45.1z M125.3,43.3
		c-0.7-3.3-3.6-5.7-7.1-5.7c-3.5,0-6.4,2.5-7.1,5.7c-0.1,0.5-0.2,1.1-0.2,1.6v0.2v40.5h-6.6c-0.5-4.9-0.7-9.9-0.7-15
		c0-8.8,0.7-16.7,1.8-23.7c0.1-0.6,0.2-1.2,0.3-1.8c0.1-0.6,0.2-1.2,0.3-1.8c2.8-14.7,7.7-23.7,12.2-23.7c4.5,0,9.4,9,12.2,23.7
		c0.1,0.6,0.2,1.2,0.3,1.8c0.1,0.6,0.2,1.2,0.3,1.8c1.1,6.9,1.8,14.9,1.8,23.7c0,5.1-0.2,10.2-0.7,15h-6.5V45.1v-0.2
		C125.5,44.4,125.4,43.9,125.3,43.3z M295.1,102.8v6.2H125.5V89.5H282c3.5,0,6.8,1.2,9.3,3.5c1.8,1.7,3.1,3.9,3.6,6.2
		c0.1,0.6,0.2,1.2,0.2,1.8c0,0.2,0,0.3,0,0.5V102.8z M295.1,91.8c-0.4-0.5-0.9-1-1.4-1.5c-3.2-2.9-7.3-4.5-11.7-4.5H135.6
		c0.5-5,0.7-10.1,0.7-15.3c0-8-0.6-16.2-1.7-23.7H282c3.5,0,6.8,1.2,9.3,3.5c2.4,2.2,3.8,5.3,3.8,8.5V91.8z"/>
	<path class="st2" d="M90.4,93c-1.9,1.7-3.1,3.9-3.6,6.2c-0.1,0.6-0.2,1.2-0.2,1.8c0,0.2,0,0.3,0,0.5v0c0-0.2,0-0.3,0-0.5
		c0-0.6,0.1-1.2,0.2-1.8C87.3,96.9,88.5,94.7,90.4,93c2.5-2.3,5.8-3.5,9.3-3.5h11.2v0H99.6C96.1,89.5,92.9,90.7,90.4,93z"/>
</g>
</svg>
